G75*
%MOIN*%
%OFA0B0*%
%FSLAX24Y24*%
%IPPOS*%
%LPD*%
%AMOC8*
5,1,8,0,0,1.08239X$1,22.5*
%
%ADD10C,0.0000*%
%ADD11C,0.0080*%
%ADD12C,0.0030*%
%ADD13R,0.0300X0.0180*%
%ADD14C,0.0070*%
%ADD15C,0.0110*%
%ADD16C,0.0120*%
D10*
X001180Y009140D02*
X001180Y015486D01*
X001182Y015516D01*
X001188Y015546D01*
X001197Y015575D01*
X001209Y015602D01*
X001225Y015628D01*
X001243Y015652D01*
X001264Y015673D01*
X001288Y015691D01*
X001314Y015707D01*
X001341Y015719D01*
X001370Y015728D01*
X001400Y015734D01*
X001430Y015736D01*
X023330Y015740D01*
X023360Y015738D01*
X023390Y015733D01*
X023419Y015724D01*
X023446Y015711D01*
X023472Y015696D01*
X023496Y015677D01*
X023517Y015656D01*
X023536Y015632D01*
X023551Y015606D01*
X023564Y015579D01*
X023573Y015550D01*
X023578Y015520D01*
X023580Y015490D01*
X023580Y009090D01*
X023585Y008991D01*
X023586Y008892D01*
X023583Y008794D01*
X023576Y008695D01*
X023565Y008597D01*
X023550Y008500D01*
X023531Y008403D01*
X023509Y008307D01*
X023483Y008212D01*
X023453Y008118D01*
X023419Y008025D01*
X023381Y007934D01*
X023340Y007844D01*
X023296Y007756D01*
X023248Y007670D01*
X023196Y007586D01*
X023142Y007504D01*
X023084Y007424D01*
X023023Y007346D01*
X022959Y007271D01*
X022892Y007199D01*
X022822Y007129D01*
X022749Y007062D01*
X022674Y006998D01*
X022597Y006938D01*
X022517Y006880D01*
X022435Y006825D01*
X022350Y006774D01*
X022264Y006726D01*
X022176Y006682D01*
X022086Y006641D01*
X021995Y006604D01*
X021902Y006570D01*
X021808Y006540D01*
X021713Y006514D01*
X021617Y006492D01*
X021520Y006473D01*
X021422Y006459D01*
X021324Y006448D01*
X021226Y006441D01*
X021127Y006438D01*
X021029Y006439D01*
X020930Y006444D01*
X020832Y006453D01*
X020734Y006466D01*
X020637Y006482D01*
X020540Y006503D01*
X020445Y006527D01*
X020350Y006555D01*
X020257Y006587D01*
X020165Y006622D01*
X020074Y006661D01*
X019985Y006704D01*
X019898Y006750D01*
X019813Y006800D01*
X019729Y006853D01*
X019648Y006909D01*
X019570Y006968D01*
X019493Y007031D01*
X019419Y007096D01*
X019348Y007164D01*
X019280Y007235D01*
X019214Y007309D01*
X019152Y007385D01*
X019092Y007464D01*
X019036Y007545D01*
X018983Y007628D01*
X018933Y007714D01*
X018887Y007801D01*
X018844Y007890D01*
X018805Y007980D01*
X018770Y008072D01*
X018738Y008165D01*
X018710Y008260D01*
X018685Y008356D01*
X018665Y008452D01*
X018648Y008549D01*
X018635Y008647D01*
X018626Y008745D01*
X018621Y008844D01*
X018620Y008943D01*
X018623Y009041D01*
X018630Y009140D01*
X006130Y009140D01*
X006133Y009041D01*
X006132Y008942D01*
X006127Y008843D01*
X006118Y008744D01*
X006105Y008646D01*
X006088Y008548D01*
X006067Y008451D01*
X006043Y008355D01*
X006014Y008260D01*
X005982Y008167D01*
X005946Y008074D01*
X005907Y007983D01*
X005863Y007894D01*
X005817Y007807D01*
X005767Y007721D01*
X005713Y007638D01*
X005656Y007557D01*
X005596Y007478D01*
X005533Y007401D01*
X005467Y007328D01*
X005398Y007256D01*
X005326Y007188D01*
X005251Y007123D01*
X005174Y007060D01*
X005095Y007001D01*
X005013Y006945D01*
X004929Y006893D01*
X004843Y006843D01*
X004755Y006798D01*
X004665Y006755D01*
X004574Y006717D01*
X004481Y006682D01*
X004387Y006651D01*
X004292Y006623D01*
X004196Y006600D01*
X004099Y006580D01*
X004001Y006564D01*
X003902Y006552D01*
X003804Y006544D01*
X003705Y006540D01*
X003605Y006540D01*
X003506Y006544D01*
X003408Y006552D01*
X003309Y006564D01*
X003211Y006580D01*
X003114Y006600D01*
X003018Y006623D01*
X002923Y006651D01*
X002829Y006682D01*
X002736Y006717D01*
X002645Y006755D01*
X002555Y006798D01*
X002467Y006843D01*
X002381Y006893D01*
X002297Y006945D01*
X002215Y007001D01*
X002136Y007060D01*
X002059Y007123D01*
X001984Y007188D01*
X001912Y007256D01*
X001843Y007328D01*
X001777Y007401D01*
X001714Y007478D01*
X001654Y007557D01*
X001597Y007638D01*
X001543Y007721D01*
X001493Y007807D01*
X001447Y007894D01*
X001403Y007983D01*
X001364Y008074D01*
X001328Y008167D01*
X001296Y008260D01*
X001267Y008355D01*
X001243Y008451D01*
X001222Y008548D01*
X001205Y008646D01*
X001192Y008744D01*
X001183Y008843D01*
X001178Y008942D01*
X001177Y009041D01*
X001180Y009140D01*
X002798Y010080D02*
X002800Y010121D01*
X002806Y010162D01*
X002816Y010202D01*
X002829Y010241D01*
X002846Y010278D01*
X002867Y010314D01*
X002891Y010348D01*
X002918Y010379D01*
X002947Y010407D01*
X002980Y010433D01*
X003014Y010455D01*
X003051Y010474D01*
X003089Y010489D01*
X003129Y010501D01*
X003169Y010509D01*
X003210Y010513D01*
X003252Y010513D01*
X003293Y010509D01*
X003333Y010501D01*
X003373Y010489D01*
X003411Y010474D01*
X003447Y010455D01*
X003482Y010433D01*
X003515Y010407D01*
X003544Y010379D01*
X003571Y010348D01*
X003595Y010314D01*
X003616Y010278D01*
X003633Y010241D01*
X003646Y010202D01*
X003656Y010162D01*
X003662Y010121D01*
X003664Y010080D01*
X003662Y010039D01*
X003656Y009998D01*
X003646Y009958D01*
X003633Y009919D01*
X003616Y009882D01*
X003595Y009846D01*
X003571Y009812D01*
X003544Y009781D01*
X003515Y009753D01*
X003482Y009727D01*
X003448Y009705D01*
X003411Y009686D01*
X003373Y009671D01*
X003333Y009659D01*
X003293Y009651D01*
X003252Y009647D01*
X003210Y009647D01*
X003169Y009651D01*
X003129Y009659D01*
X003089Y009671D01*
X003051Y009686D01*
X003015Y009705D01*
X002980Y009727D01*
X002947Y009753D01*
X002918Y009781D01*
X002891Y009812D01*
X002867Y009846D01*
X002846Y009882D01*
X002829Y009919D01*
X002816Y009958D01*
X002806Y009998D01*
X002800Y010039D01*
X002798Y010080D01*
X021097Y014801D02*
X021099Y014842D01*
X021105Y014883D01*
X021115Y014923D01*
X021128Y014962D01*
X021145Y014999D01*
X021166Y015035D01*
X021190Y015069D01*
X021217Y015100D01*
X021246Y015128D01*
X021279Y015154D01*
X021313Y015176D01*
X021350Y015195D01*
X021388Y015210D01*
X021428Y015222D01*
X021468Y015230D01*
X021509Y015234D01*
X021551Y015234D01*
X021592Y015230D01*
X021632Y015222D01*
X021672Y015210D01*
X021710Y015195D01*
X021746Y015176D01*
X021781Y015154D01*
X021814Y015128D01*
X021843Y015100D01*
X021870Y015069D01*
X021894Y015035D01*
X021915Y014999D01*
X021932Y014962D01*
X021945Y014923D01*
X021955Y014883D01*
X021961Y014842D01*
X021963Y014801D01*
X021961Y014760D01*
X021955Y014719D01*
X021945Y014679D01*
X021932Y014640D01*
X021915Y014603D01*
X021894Y014567D01*
X021870Y014533D01*
X021843Y014502D01*
X021814Y014474D01*
X021781Y014448D01*
X021747Y014426D01*
X021710Y014407D01*
X021672Y014392D01*
X021632Y014380D01*
X021592Y014372D01*
X021551Y014368D01*
X021509Y014368D01*
X021468Y014372D01*
X021428Y014380D01*
X021388Y014392D01*
X021350Y014407D01*
X021314Y014426D01*
X021279Y014448D01*
X021246Y014474D01*
X021217Y014502D01*
X021190Y014533D01*
X021166Y014567D01*
X021145Y014603D01*
X021128Y014640D01*
X021115Y014679D01*
X021105Y014719D01*
X021099Y014760D01*
X021097Y014801D01*
D11*
X002880Y006740D02*
X002630Y006990D01*
X002630Y007490D01*
X002880Y007740D01*
X002630Y007990D01*
X002630Y008490D01*
X002880Y008740D01*
X003380Y008740D01*
X003630Y008490D01*
X003880Y008740D01*
X004380Y008740D01*
X004630Y008490D01*
X004630Y007990D01*
X004380Y007740D01*
X003880Y007740D01*
X003630Y007990D01*
X003380Y007740D01*
X002880Y007740D01*
X003380Y007740D02*
X003630Y007490D01*
X003880Y007740D01*
X004380Y007740D02*
X004630Y007490D01*
X004630Y006990D01*
X004380Y006740D01*
X003880Y006740D01*
X003630Y006990D01*
X003380Y006740D01*
X002880Y006740D01*
X002580Y009340D02*
X002580Y009690D01*
X002368Y009516D01*
X002368Y009697D01*
X002368Y009516D02*
X002368Y009335D01*
X002374Y009506D02*
X002580Y009340D01*
X002705Y012268D02*
X003020Y012268D01*
X003020Y013253D01*
X003493Y013253D01*
X002705Y013646D02*
X002705Y012268D01*
X005067Y013253D02*
X005540Y013253D01*
X005540Y012268D01*
X005855Y012268D01*
X005855Y013646D01*
X005067Y015221D02*
X003493Y015221D01*
X008868Y013640D02*
X008892Y013640D01*
X009668Y013640D02*
X009692Y013640D01*
X010270Y013209D02*
X010270Y012871D01*
X010724Y013359D02*
X010936Y013359D01*
X011390Y013209D02*
X011390Y012871D01*
X011468Y014640D02*
X011492Y014640D01*
X010392Y014640D02*
X010368Y014640D01*
X014615Y014758D02*
X014615Y014522D01*
X015680Y013940D02*
X017880Y013940D01*
X018945Y014522D02*
X018945Y014758D01*
X017567Y015349D02*
X015993Y015349D01*
X020286Y012705D02*
X020286Y012075D01*
X020287Y012075D02*
X020292Y012059D01*
X020300Y012043D01*
X020310Y012029D01*
X020322Y012017D01*
X020337Y012007D01*
X020353Y012000D01*
X020370Y011996D01*
X020387Y011995D01*
X020405Y011997D01*
X020955Y011997D02*
X020973Y011995D01*
X020990Y011996D01*
X021007Y012000D01*
X021023Y012007D01*
X021038Y012017D01*
X021050Y012029D01*
X021060Y012043D01*
X021068Y012059D01*
X021073Y012075D01*
X021074Y012075D02*
X021074Y012705D01*
X021073Y012705D02*
X021068Y012721D01*
X021060Y012737D01*
X021050Y012751D01*
X021038Y012763D01*
X021023Y012773D01*
X021007Y012780D01*
X020990Y012784D01*
X020973Y012785D01*
X020955Y012783D01*
X020405Y012783D02*
X020387Y012785D01*
X020370Y012784D01*
X020353Y012780D01*
X020337Y012773D01*
X020322Y012763D01*
X020310Y012751D01*
X020300Y012737D01*
X020292Y012721D01*
X020287Y012705D01*
X022230Y013990D02*
X022230Y014340D01*
X022436Y014174D01*
X022442Y014164D02*
X022230Y013990D01*
X022442Y013983D02*
X022442Y014164D01*
X022442Y014345D01*
X017065Y009494D02*
X017012Y009494D01*
X016905Y009387D01*
X016905Y009280D02*
X016905Y009494D01*
X016750Y009440D02*
X016750Y009387D01*
X016537Y009387D01*
X016537Y009440D02*
X016590Y009494D01*
X016697Y009494D01*
X016750Y009440D01*
X016697Y009280D02*
X016590Y009280D01*
X016537Y009333D01*
X016537Y009440D01*
X016398Y009494D02*
X016291Y009494D01*
X016345Y009547D02*
X016345Y009333D01*
X016398Y009280D01*
X016144Y009494D02*
X016091Y009494D01*
X015984Y009387D01*
X015984Y009280D02*
X015984Y009494D01*
X015830Y009440D02*
X015830Y009387D01*
X015616Y009387D01*
X015616Y009440D02*
X015669Y009494D01*
X015776Y009494D01*
X015830Y009440D01*
X015776Y009280D02*
X015669Y009280D01*
X015616Y009333D01*
X015616Y009440D01*
X015461Y009494D02*
X015354Y009280D01*
X015248Y009494D01*
X015093Y009440D02*
X015093Y009280D01*
X015093Y009440D02*
X015039Y009494D01*
X014879Y009494D01*
X014879Y009280D01*
X014725Y009333D02*
X014725Y009440D01*
X014671Y009494D01*
X014564Y009494D01*
X014511Y009440D01*
X014511Y009333D01*
X014564Y009280D01*
X014671Y009280D01*
X014725Y009333D01*
X014356Y009333D02*
X014303Y009280D01*
X014196Y009280D01*
X014143Y009333D01*
X014143Y009547D01*
X014196Y009600D01*
X014303Y009600D01*
X014356Y009547D01*
X013636Y009494D02*
X013529Y009494D01*
X013582Y009547D02*
X013582Y009333D01*
X013636Y009280D01*
X013374Y009333D02*
X013321Y009387D01*
X013214Y009387D01*
X013161Y009440D01*
X013214Y009494D01*
X013374Y009494D01*
X013374Y009333D02*
X013321Y009280D01*
X013161Y009280D01*
X013006Y009333D02*
X013006Y009440D01*
X012952Y009494D01*
X012846Y009494D01*
X012792Y009440D01*
X012792Y009333D01*
X012846Y009280D01*
X012952Y009280D01*
X013006Y009333D01*
X012637Y009333D02*
X012637Y009440D01*
X012584Y009494D01*
X012477Y009494D01*
X012424Y009440D01*
X012424Y009333D01*
X012477Y009280D01*
X012584Y009280D01*
X012637Y009333D01*
X012269Y009333D02*
X012216Y009280D01*
X012056Y009280D01*
X012056Y009600D01*
X012216Y009600D01*
X012269Y009547D01*
X012269Y009494D01*
X012216Y009440D01*
X012056Y009440D01*
X012216Y009440D02*
X012269Y009387D01*
X012269Y009333D01*
X011549Y009280D02*
X011495Y009333D01*
X011495Y009547D01*
X011442Y009494D02*
X011549Y009494D01*
X011287Y009440D02*
X011287Y009387D01*
X011073Y009387D01*
X011073Y009440D02*
X011127Y009494D01*
X011234Y009494D01*
X011287Y009440D01*
X011234Y009280D02*
X011127Y009280D01*
X011073Y009333D01*
X011073Y009440D01*
X010927Y009494D02*
X010767Y009387D01*
X010927Y009280D01*
X010767Y009280D02*
X010767Y009600D01*
X010612Y009494D02*
X010452Y009494D01*
X010398Y009440D01*
X010398Y009333D01*
X010452Y009280D01*
X010612Y009280D01*
X010243Y009333D02*
X010243Y009440D01*
X010190Y009494D01*
X010083Y009494D01*
X010030Y009440D01*
X010030Y009333D01*
X010083Y009280D01*
X010190Y009280D01*
X010243Y009333D01*
X009875Y009440D02*
X009822Y009387D01*
X009662Y009387D01*
X009662Y009280D02*
X009662Y009600D01*
X009822Y009600D01*
X009875Y009547D01*
X009875Y009440D01*
X009138Y009387D02*
X009138Y009333D01*
X009085Y009280D01*
X008978Y009280D01*
X008925Y009333D01*
X008978Y009440D02*
X009085Y009440D01*
X009138Y009387D01*
X009138Y009547D02*
X009085Y009600D01*
X008978Y009600D01*
X008925Y009547D01*
X008925Y009494D01*
X008978Y009440D01*
X008770Y009440D02*
X008717Y009387D01*
X008557Y009387D01*
X008557Y009280D02*
X008557Y009600D01*
X008717Y009600D01*
X008770Y009547D01*
X008770Y009440D01*
X008402Y009387D02*
X008402Y009333D01*
X008348Y009280D01*
X008188Y009280D01*
X008188Y009600D01*
X008348Y009600D01*
X008402Y009547D01*
X008402Y009494D01*
X008348Y009440D01*
X008188Y009440D01*
X008348Y009440D02*
X008402Y009387D01*
X008034Y009387D02*
X008034Y009333D01*
X007980Y009280D01*
X007820Y009280D01*
X007820Y009600D01*
X007980Y009600D01*
X008034Y009547D01*
X008034Y009494D01*
X007980Y009440D01*
X007820Y009440D01*
X007980Y009440D02*
X008034Y009387D01*
X007074Y009675D02*
X007074Y010305D01*
X007073Y010305D02*
X007068Y010321D01*
X007060Y010337D01*
X007050Y010351D01*
X007038Y010363D01*
X007023Y010373D01*
X007007Y010380D01*
X006990Y010384D01*
X006973Y010385D01*
X006955Y010383D01*
X006405Y010383D02*
X006387Y010385D01*
X006370Y010384D01*
X006353Y010380D01*
X006337Y010373D01*
X006322Y010363D01*
X006310Y010351D01*
X006300Y010337D01*
X006292Y010321D01*
X006287Y010305D01*
X006286Y010305D02*
X006286Y009675D01*
X006287Y009675D02*
X006292Y009659D01*
X006300Y009643D01*
X006310Y009629D01*
X006322Y009617D01*
X006337Y009607D01*
X006353Y009600D01*
X006370Y009596D01*
X006387Y009595D01*
X006405Y009597D01*
X006955Y009597D02*
X006973Y009595D01*
X006990Y009596D01*
X007007Y009600D01*
X007023Y009607D01*
X007038Y009617D01*
X007050Y009629D01*
X007060Y009643D01*
X007068Y009659D01*
X007073Y009675D01*
X020134Y008490D02*
X020134Y007990D01*
X020384Y007740D01*
X020884Y007740D01*
X021134Y007990D01*
X021384Y007740D01*
X021884Y007740D01*
X022134Y007990D01*
X022134Y008490D01*
X021884Y008740D01*
X021384Y008740D01*
X021134Y008490D01*
X020884Y008740D01*
X020384Y008740D01*
X020134Y008490D01*
X020384Y007740D02*
X020134Y007490D01*
X020134Y006990D01*
X020384Y006740D01*
X020884Y006740D01*
X021134Y006990D01*
X021384Y006740D01*
X021884Y006740D01*
X022134Y006990D01*
X022134Y007490D01*
X021884Y007740D01*
X021384Y007740D02*
X021134Y007490D01*
X020884Y007740D01*
D12*
X020748Y011655D02*
X020663Y011655D01*
X020663Y011825D01*
X020748Y011825D01*
X020777Y011797D01*
X020777Y011683D01*
X020748Y011655D01*
X020593Y011655D02*
X020479Y011655D01*
X020479Y011825D01*
X020593Y011825D01*
X020536Y011740D02*
X020479Y011740D01*
X020408Y011655D02*
X020295Y011655D01*
X020295Y011825D01*
X021032Y011825D02*
X021032Y011655D01*
X021145Y011655D01*
X021216Y011655D02*
X021216Y011768D01*
X021301Y011768D01*
X021329Y011740D01*
X021329Y011655D01*
X021400Y011683D02*
X021428Y011655D01*
X021513Y011655D01*
X021513Y011740D01*
X021485Y011768D01*
X021428Y011768D01*
X021428Y011712D02*
X021513Y011712D01*
X021428Y011712D02*
X021400Y011683D01*
X021584Y011655D02*
X021584Y011825D01*
X021584Y011768D02*
X021669Y011768D01*
X021698Y011740D01*
X021698Y011683D01*
X021669Y011655D01*
X021584Y011655D01*
X021768Y011655D02*
X021825Y011655D01*
X021797Y011655D02*
X021797Y011825D01*
X021768Y011825D01*
X021891Y011740D02*
X021919Y011768D01*
X021976Y011768D01*
X022004Y011740D01*
X022004Y011712D01*
X021891Y011712D01*
X021891Y011740D02*
X021891Y011683D01*
X021919Y011655D01*
X021976Y011655D01*
X021145Y011825D02*
X021032Y011825D01*
X021032Y011740D02*
X021088Y011740D01*
X020177Y012855D02*
X020063Y012855D01*
X020120Y012855D02*
X020120Y013025D01*
X020063Y012968D01*
X019993Y013025D02*
X019936Y013025D01*
X019964Y013025D02*
X019964Y012883D01*
X019936Y012855D01*
X019908Y012855D01*
X019879Y012883D01*
X019808Y012883D02*
X019780Y012855D01*
X019723Y012855D01*
X019695Y012883D01*
X019723Y012940D02*
X019780Y012940D01*
X019808Y012912D01*
X019808Y012883D01*
X019723Y012940D02*
X019695Y012968D01*
X019695Y012997D01*
X019723Y013025D01*
X019780Y013025D01*
X019808Y012997D01*
X019361Y012725D02*
X019247Y012612D01*
X019276Y012640D02*
X019361Y012555D01*
X019247Y012555D02*
X019247Y012725D01*
X019177Y012697D02*
X019148Y012725D01*
X019092Y012725D01*
X019063Y012697D01*
X019063Y012583D01*
X019177Y012697D01*
X019177Y012583D01*
X019148Y012555D01*
X019092Y012555D01*
X019063Y012583D01*
X018993Y012555D02*
X018879Y012555D01*
X018993Y012668D01*
X018993Y012697D01*
X018964Y012725D01*
X018908Y012725D01*
X018879Y012697D01*
X018808Y012725D02*
X018752Y012697D01*
X018695Y012640D01*
X018780Y012640D01*
X018808Y012612D01*
X018808Y012583D01*
X018780Y012555D01*
X018723Y012555D01*
X018695Y012583D01*
X018695Y012640D01*
X018695Y012855D02*
X018695Y013025D01*
X018780Y013025D01*
X018808Y012997D01*
X018808Y012940D01*
X018780Y012912D01*
X018695Y012912D01*
X018752Y012912D02*
X018808Y012855D01*
X018879Y012883D02*
X018908Y012855D01*
X018964Y012855D01*
X018993Y012883D01*
X018993Y012912D01*
X018964Y012940D01*
X018936Y012940D01*
X018964Y012940D02*
X018993Y012968D01*
X018993Y012997D01*
X018964Y013025D01*
X018908Y013025D01*
X018879Y012997D01*
X021095Y013555D02*
X021208Y013555D01*
X021152Y013555D02*
X021152Y013725D01*
X021095Y013668D01*
X021279Y013668D02*
X021279Y013697D01*
X021308Y013725D01*
X021364Y013725D01*
X021393Y013697D01*
X021393Y013668D01*
X021364Y013640D01*
X021308Y013640D01*
X021279Y013668D01*
X021308Y013640D02*
X021279Y013612D01*
X021279Y013583D01*
X021308Y013555D01*
X021364Y013555D01*
X021393Y013583D01*
X021393Y013612D01*
X021364Y013640D01*
X021463Y013583D02*
X021577Y013697D01*
X021577Y013583D01*
X021548Y013555D01*
X021492Y013555D01*
X021463Y013583D01*
X021463Y013697D01*
X021492Y013725D01*
X021548Y013725D01*
X021577Y013697D01*
X021647Y013725D02*
X021733Y013725D01*
X021761Y013697D01*
X021761Y013640D01*
X021733Y013612D01*
X021647Y013612D01*
X021647Y013555D02*
X021647Y013725D01*
X021704Y013612D02*
X021761Y013555D01*
X021364Y013855D02*
X021364Y014025D01*
X021279Y013940D01*
X021393Y013940D01*
X021208Y013940D02*
X021180Y013912D01*
X021095Y013912D01*
X021152Y013912D02*
X021208Y013855D01*
X021208Y013940D02*
X021208Y013997D01*
X021180Y014025D01*
X021095Y014025D01*
X021095Y013855D01*
X022195Y015255D02*
X022280Y015255D01*
X022308Y015283D01*
X022308Y015397D01*
X022280Y015425D01*
X022195Y015425D01*
X022195Y015255D01*
X022379Y015255D02*
X022493Y015255D01*
X022436Y015255D02*
X022436Y015425D01*
X022379Y015368D01*
X016404Y012968D02*
X016347Y012968D01*
X016376Y012997D02*
X016376Y012883D01*
X016404Y012855D01*
X016277Y012883D02*
X016248Y012912D01*
X016192Y012912D01*
X016163Y012940D01*
X016192Y012968D01*
X016277Y012968D01*
X016277Y012883D02*
X016248Y012855D01*
X016163Y012855D01*
X016093Y012912D02*
X015979Y012912D01*
X015979Y012940D02*
X016008Y012968D01*
X016064Y012968D01*
X016093Y012940D01*
X016093Y012912D01*
X016064Y012855D02*
X016008Y012855D01*
X015979Y012883D01*
X015979Y012940D01*
X015908Y013025D02*
X015795Y013025D01*
X015852Y013025D02*
X015852Y012855D01*
X015880Y012725D02*
X015908Y012697D01*
X015795Y012583D01*
X015823Y012555D01*
X015880Y012555D01*
X015908Y012583D01*
X015908Y012697D01*
X015880Y012725D02*
X015823Y012725D01*
X015795Y012697D01*
X015795Y012583D01*
X015979Y012555D02*
X015979Y012725D01*
X016064Y012725D01*
X016093Y012697D01*
X016093Y012640D01*
X016064Y012612D01*
X015979Y012612D01*
X016036Y012612D02*
X016093Y012555D01*
X014698Y012955D02*
X014584Y013068D01*
X014513Y013097D02*
X014400Y012983D01*
X014400Y012955D01*
X014329Y012983D02*
X014301Y012955D01*
X014244Y012955D01*
X014216Y012983D01*
X014329Y013097D01*
X014329Y012983D01*
X014216Y012983D02*
X014216Y013097D01*
X014244Y013125D01*
X014301Y013125D01*
X014329Y013097D01*
X014400Y013125D02*
X014513Y013125D01*
X014513Y013097D01*
X014584Y012955D02*
X014698Y013068D01*
X014145Y012955D02*
X014032Y012955D01*
X014088Y012955D02*
X014088Y013125D01*
X014032Y013068D01*
X013961Y013012D02*
X013933Y013040D01*
X013847Y013040D01*
X013847Y012983D01*
X013876Y012955D01*
X013933Y012955D01*
X013961Y012983D01*
X013961Y013012D01*
X013904Y013097D02*
X013847Y013040D01*
X013777Y013012D02*
X013777Y012983D01*
X013748Y012955D01*
X013692Y012955D01*
X013663Y012983D01*
X013692Y013040D02*
X013748Y013040D01*
X013777Y013012D01*
X013777Y013097D02*
X013748Y013125D01*
X013692Y013125D01*
X013663Y013097D01*
X013663Y013068D01*
X013692Y013040D01*
X013593Y013040D02*
X013564Y013012D01*
X013479Y013012D01*
X013479Y012955D02*
X013479Y013125D01*
X013564Y013125D01*
X013593Y013097D01*
X013593Y013040D01*
X013408Y013125D02*
X013295Y013125D01*
X013352Y013125D02*
X013352Y012955D01*
X013380Y013255D02*
X013408Y013283D01*
X013408Y013425D01*
X013479Y013397D02*
X013508Y013425D01*
X013564Y013425D01*
X013593Y013397D01*
X013593Y013368D01*
X013479Y013255D01*
X013593Y013255D01*
X013380Y013255D02*
X013323Y013255D01*
X013295Y013283D01*
X013295Y013425D01*
X012693Y013640D02*
X012579Y013640D01*
X012664Y013725D01*
X012664Y013555D01*
X012508Y013583D02*
X012480Y013555D01*
X012423Y013555D01*
X012395Y013583D01*
X012395Y013697D01*
X012423Y013725D01*
X012480Y013725D01*
X012508Y013697D01*
X011893Y013697D02*
X011893Y013668D01*
X011864Y013640D01*
X011893Y013612D01*
X011893Y013583D01*
X011864Y013555D01*
X011808Y013555D01*
X011779Y013583D01*
X011708Y013583D02*
X011680Y013555D01*
X011623Y013555D01*
X011595Y013583D01*
X011595Y013697D01*
X011623Y013725D01*
X011680Y013725D01*
X011708Y013697D01*
X011779Y013697D02*
X011808Y013725D01*
X011864Y013725D01*
X011893Y013697D01*
X011864Y013640D02*
X011836Y013640D01*
X011864Y015055D02*
X011808Y015055D01*
X011779Y015083D01*
X011779Y015112D01*
X011808Y015140D01*
X011864Y015140D01*
X011893Y015112D01*
X011893Y015083D01*
X011864Y015055D01*
X011864Y015140D02*
X011893Y015168D01*
X011893Y015197D01*
X011864Y015225D01*
X011808Y015225D01*
X011779Y015197D01*
X011779Y015168D01*
X011808Y015140D01*
X011708Y015055D02*
X011595Y015055D01*
X011652Y015055D02*
X011652Y015225D01*
X011595Y015168D01*
X011595Y015355D02*
X011595Y015525D01*
X011680Y015525D01*
X011708Y015497D01*
X011708Y015440D01*
X011680Y015412D01*
X011595Y015412D01*
X011652Y015412D02*
X011708Y015355D01*
X011779Y015355D02*
X011893Y015468D01*
X011893Y015497D01*
X011864Y015525D01*
X011808Y015525D01*
X011779Y015497D01*
X011779Y015355D02*
X011893Y015355D01*
X011992Y015225D02*
X012048Y015225D01*
X012077Y015197D01*
X011963Y015083D01*
X011992Y015055D01*
X012048Y015055D01*
X012077Y015083D01*
X012077Y015197D01*
X012147Y015225D02*
X012147Y015055D01*
X012147Y015112D02*
X012261Y015225D01*
X012176Y015140D02*
X012261Y015055D01*
X011963Y015083D02*
X011963Y015197D01*
X011992Y015225D01*
X011293Y015225D02*
X011293Y015055D01*
X011179Y015055D02*
X011179Y015225D01*
X011236Y015168D01*
X011293Y015225D01*
X011293Y015355D02*
X011179Y015355D01*
X011236Y015355D02*
X011236Y015525D01*
X011179Y015468D01*
X011108Y015497D02*
X011108Y015440D01*
X011080Y015412D01*
X010995Y015412D01*
X011052Y015412D02*
X011108Y015355D01*
X010995Y015355D02*
X010995Y015525D01*
X011080Y015525D01*
X011108Y015497D01*
X011052Y015225D02*
X011052Y015055D01*
X011108Y015055D02*
X010995Y015055D01*
X010995Y015168D02*
X011052Y015225D01*
X008953Y014625D02*
X008840Y014625D01*
X008840Y014455D01*
X008769Y014455D02*
X008769Y014568D01*
X008840Y014540D02*
X008896Y014540D01*
X008769Y014455D02*
X008684Y014455D01*
X008655Y014483D01*
X008655Y014568D01*
X008585Y014597D02*
X008471Y014483D01*
X008471Y014455D01*
X008408Y014455D02*
X008379Y014455D01*
X008379Y014483D01*
X008408Y014483D01*
X008408Y014455D01*
X008280Y014455D02*
X008280Y014625D01*
X008195Y014540D01*
X008308Y014540D01*
X008471Y014625D02*
X008585Y014625D01*
X008585Y014597D01*
X008493Y014755D02*
X008379Y014755D01*
X008493Y014868D01*
X008493Y014897D01*
X008464Y014925D01*
X008408Y014925D01*
X008379Y014897D01*
X008308Y014897D02*
X008280Y014925D01*
X008223Y014925D01*
X008195Y014897D01*
X008195Y014783D01*
X008223Y014755D01*
X008280Y014755D01*
X008308Y014783D01*
X007953Y014625D02*
X007840Y014625D01*
X007840Y014455D01*
X007769Y014455D02*
X007769Y014568D01*
X007840Y014540D02*
X007896Y014540D01*
X007769Y014455D02*
X007684Y014455D01*
X007655Y014483D01*
X007655Y014568D01*
X007585Y014597D02*
X007471Y014483D01*
X007471Y014455D01*
X007408Y014455D02*
X007379Y014455D01*
X007379Y014483D01*
X007408Y014483D01*
X007408Y014455D01*
X007280Y014455D02*
X007280Y014625D01*
X007195Y014540D01*
X007308Y014540D01*
X007471Y014625D02*
X007585Y014625D01*
X007585Y014597D01*
X007493Y014755D02*
X007379Y014755D01*
X007436Y014755D02*
X007436Y014925D01*
X007379Y014868D01*
X007308Y014897D02*
X007280Y014925D01*
X007223Y014925D01*
X007195Y014897D01*
X007195Y014783D01*
X007223Y014755D01*
X007280Y014755D01*
X007308Y014783D01*
X005289Y015512D02*
X005289Y015625D01*
X005289Y015512D02*
X005232Y015455D01*
X005175Y015512D01*
X005175Y015625D01*
X005104Y015625D02*
X004991Y015625D01*
X004991Y015540D01*
X005048Y015568D01*
X005076Y015568D01*
X005104Y015540D01*
X005104Y015483D01*
X005076Y015455D01*
X005019Y015455D01*
X004991Y015483D01*
X004927Y015483D02*
X004927Y015455D01*
X004899Y015455D01*
X004899Y015483D01*
X004927Y015483D01*
X004828Y015540D02*
X004715Y015540D01*
X004800Y015625D01*
X004800Y015455D01*
X004460Y015483D02*
X004460Y015540D01*
X004432Y015568D01*
X004375Y015568D01*
X004346Y015540D01*
X004346Y015483D01*
X004375Y015455D01*
X004432Y015455D01*
X004460Y015483D01*
X004280Y015455D02*
X004252Y015483D01*
X004252Y015597D01*
X004224Y015568D02*
X004280Y015568D01*
X003969Y015512D02*
X003969Y015625D01*
X003969Y015512D02*
X003912Y015455D01*
X003855Y015512D01*
X003855Y015625D01*
X003785Y015597D02*
X003756Y015625D01*
X003700Y015625D01*
X003671Y015597D01*
X003671Y015568D01*
X003700Y015540D01*
X003785Y015540D01*
X003785Y015483D02*
X003785Y015597D01*
X003785Y015483D02*
X003756Y015455D01*
X003700Y015455D01*
X003671Y015483D01*
X003608Y015483D02*
X003608Y015455D01*
X003579Y015455D01*
X003579Y015483D01*
X003608Y015483D01*
X003508Y015483D02*
X003480Y015455D01*
X003423Y015455D01*
X003395Y015483D01*
X003508Y015597D01*
X003508Y015483D01*
X003395Y015483D02*
X003395Y015597D01*
X003423Y015625D01*
X003480Y015625D01*
X003508Y015597D01*
X008895Y012825D02*
X008895Y012655D01*
X009008Y012655D01*
X009079Y012655D02*
X009193Y012655D01*
X009136Y012655D02*
X009136Y012825D01*
X009079Y012768D01*
X009171Y012525D02*
X009285Y012525D01*
X009285Y012497D01*
X009171Y012383D01*
X009171Y012355D01*
X009108Y012355D02*
X009079Y012355D01*
X009079Y012383D01*
X009108Y012383D01*
X009108Y012355D01*
X008980Y012355D02*
X008980Y012525D01*
X008895Y012440D01*
X009008Y012440D01*
X009355Y012468D02*
X009355Y012383D01*
X009384Y012355D01*
X009469Y012355D01*
X009469Y012468D01*
X009540Y012440D02*
X009653Y012440D01*
X009653Y012525D02*
X009653Y012355D01*
X009540Y012355D02*
X009540Y012525D01*
X011595Y012040D02*
X011708Y012040D01*
X011680Y011955D02*
X011680Y012125D01*
X011595Y012040D01*
X011779Y011983D02*
X011808Y011983D01*
X011808Y011955D01*
X011779Y011955D01*
X011779Y011983D01*
X011871Y011983D02*
X011871Y011955D01*
X011871Y011983D02*
X011985Y012097D01*
X011985Y012125D01*
X011871Y012125D01*
X012055Y012068D02*
X012055Y011983D01*
X012084Y011955D01*
X012169Y011955D01*
X012169Y012068D01*
X012240Y012040D02*
X012296Y012040D01*
X012240Y011955D02*
X012240Y012125D01*
X012353Y012125D01*
X012495Y012040D02*
X012608Y012040D01*
X012580Y011955D02*
X012580Y012125D01*
X012495Y012040D01*
X012679Y011983D02*
X012708Y011983D01*
X012708Y011955D01*
X012679Y011955D01*
X012679Y011983D01*
X012771Y011983D02*
X012771Y011955D01*
X012771Y011983D02*
X012885Y012097D01*
X012885Y012125D01*
X012771Y012125D01*
X012955Y012068D02*
X012955Y011983D01*
X012984Y011955D01*
X013069Y011955D01*
X013069Y012068D01*
X013140Y012040D02*
X013196Y012040D01*
X013140Y011955D02*
X013140Y012125D01*
X013253Y012125D01*
X013904Y013097D02*
X013961Y013125D01*
X008104Y010640D02*
X008104Y010612D01*
X007991Y010612D01*
X007991Y010640D02*
X008019Y010668D01*
X008076Y010668D01*
X008104Y010640D01*
X008076Y010555D02*
X008019Y010555D01*
X007991Y010583D01*
X007991Y010640D01*
X007925Y010555D02*
X007868Y010555D01*
X007897Y010555D02*
X007897Y010725D01*
X007868Y010725D01*
X007798Y010640D02*
X007769Y010668D01*
X007684Y010668D01*
X007684Y010725D02*
X007684Y010555D01*
X007769Y010555D01*
X007798Y010583D01*
X007798Y010640D01*
X007613Y010640D02*
X007585Y010668D01*
X007528Y010668D01*
X007528Y010612D02*
X007613Y010612D01*
X007613Y010640D02*
X007613Y010555D01*
X007528Y010555D01*
X007500Y010583D01*
X007528Y010612D01*
X007429Y010640D02*
X007429Y010555D01*
X007429Y010640D02*
X007401Y010668D01*
X007316Y010668D01*
X007316Y010555D01*
X007245Y010555D02*
X007132Y010555D01*
X007132Y010725D01*
X007245Y010725D01*
X007188Y010640D02*
X007132Y010640D01*
X006877Y010583D02*
X006877Y010697D01*
X006848Y010725D01*
X006763Y010725D01*
X006763Y010555D01*
X006848Y010555D01*
X006877Y010583D01*
X006693Y010555D02*
X006579Y010555D01*
X006579Y010725D01*
X006693Y010725D01*
X006636Y010640D02*
X006579Y010640D01*
X006508Y010555D02*
X006395Y010555D01*
X006395Y010725D01*
X006423Y010855D02*
X006395Y010883D01*
X006423Y010855D02*
X006480Y010855D01*
X006508Y010883D01*
X006508Y010912D01*
X006480Y010940D01*
X006423Y010940D01*
X006395Y010968D01*
X006395Y010997D01*
X006423Y011025D01*
X006480Y011025D01*
X006508Y010997D01*
X006636Y011025D02*
X006693Y011025D01*
X006664Y011025D02*
X006664Y010883D01*
X006636Y010855D01*
X006608Y010855D01*
X006579Y010883D01*
X006763Y010855D02*
X006877Y010968D01*
X006877Y010997D01*
X006848Y011025D01*
X006792Y011025D01*
X006763Y010997D01*
X006763Y010855D02*
X006877Y010855D01*
X005461Y009997D02*
X005461Y009940D01*
X005433Y009912D01*
X005347Y009912D01*
X005347Y009855D02*
X005347Y010025D01*
X005433Y010025D01*
X005461Y009997D01*
X005404Y009912D02*
X005461Y009855D01*
X005277Y009883D02*
X005248Y009855D01*
X005192Y009855D01*
X005163Y009883D01*
X005277Y009997D01*
X005277Y009883D01*
X005163Y009883D02*
X005163Y009997D01*
X005192Y010025D01*
X005248Y010025D01*
X005277Y009997D01*
X005093Y009997D02*
X005093Y009968D01*
X005064Y009940D01*
X005008Y009940D01*
X004979Y009968D01*
X004979Y009997D01*
X005008Y010025D01*
X005064Y010025D01*
X005093Y009997D01*
X005064Y009940D02*
X005093Y009912D01*
X005093Y009883D01*
X005064Y009855D01*
X005008Y009855D01*
X004979Y009883D01*
X004979Y009912D01*
X005008Y009940D01*
X004908Y009855D02*
X004795Y009855D01*
X004852Y009855D02*
X004852Y010025D01*
X004795Y009968D01*
X004795Y010855D02*
X004795Y011025D01*
X004880Y011025D01*
X004908Y010997D01*
X004908Y010940D01*
X004880Y010912D01*
X004795Y010912D01*
X004852Y010912D02*
X004908Y010855D01*
X004979Y010883D02*
X005008Y010855D01*
X005064Y010855D01*
X005093Y010883D01*
X005093Y010940D01*
X005064Y010968D01*
X005036Y010968D01*
X004979Y010940D01*
X004979Y011025D01*
X005093Y011025D01*
X002593Y010797D02*
X002564Y010825D01*
X002508Y010825D01*
X002479Y010797D01*
X002408Y010797D02*
X002380Y010825D01*
X002295Y010825D01*
X002295Y010655D01*
X002380Y010655D01*
X002408Y010683D01*
X002408Y010797D01*
X002479Y010655D02*
X002593Y010768D01*
X002593Y010797D01*
X002593Y010655D02*
X002479Y010655D01*
D13*
X011980Y012840D03*
X012780Y012840D03*
X018280Y012340D03*
X020680Y013640D03*
D14*
X020143Y015275D02*
X020240Y015372D01*
X020240Y015565D01*
X020046Y015565D02*
X020046Y015372D01*
X020143Y015275D01*
X019908Y015323D02*
X019860Y015275D01*
X019763Y015275D01*
X019715Y015323D01*
X019715Y015420D02*
X019812Y015468D01*
X019860Y015468D01*
X019908Y015420D01*
X019908Y015323D01*
X019715Y015420D02*
X019715Y015565D01*
X019908Y015565D01*
X013837Y015465D02*
X013837Y015272D01*
X013740Y015175D01*
X013644Y015272D01*
X013644Y015465D01*
X013506Y015417D02*
X013457Y015465D01*
X013361Y015465D01*
X013312Y015417D01*
X013409Y015320D02*
X013457Y015320D01*
X013506Y015272D01*
X013506Y015223D01*
X013457Y015175D01*
X013361Y015175D01*
X013312Y015223D01*
X013195Y015223D02*
X013195Y015175D01*
X013146Y015175D01*
X013146Y015223D01*
X013195Y015223D01*
X013008Y015223D02*
X012960Y015175D01*
X012863Y015175D01*
X012815Y015223D01*
X012912Y015320D02*
X012960Y015320D01*
X013008Y015272D01*
X013008Y015223D01*
X012960Y015320D02*
X013008Y015368D01*
X013008Y015417D01*
X012960Y015465D01*
X012863Y015465D01*
X012815Y015417D01*
X013457Y015320D02*
X013506Y015368D01*
X013506Y015417D01*
D15*
X004835Y014920D02*
X004535Y014920D01*
X004685Y015070D02*
X004685Y014770D01*
X004035Y014920D02*
X003735Y014920D01*
X004685Y011470D02*
X004685Y011170D01*
X004535Y011320D02*
X004835Y011320D01*
X004035Y011320D02*
X003735Y011320D01*
D16*
X005130Y008016D02*
X005130Y007429D01*
X002420Y007740D02*
X001833Y007740D01*
X002126Y007447D02*
X002126Y008034D01*
X019333Y007740D02*
X019920Y007740D01*
X019626Y008034D02*
X019626Y007447D01*
X022630Y007429D02*
X022630Y008016D01*
M02*
