G75*
%MOIN*%
%OFA0B0*%
%FSLAX24Y24*%
%IPPOS*%
%LPD*%
%AMOC8*
5,1,8,0,0,1.08239X$1,22.5*
%
%ADD10C,0.0000*%
%ADD11C,0.0660*%
%ADD12C,0.0740*%
%ADD13C,0.0570*%
%ADD14C,0.0160*%
%ADD15C,0.0260*%
%ADD16C,0.0500*%
%ADD17C,0.0240*%
%ADD18C,0.0600*%
%ADD19C,0.0900*%
D10*
X001180Y009140D02*
X001180Y015486D01*
X001182Y015516D01*
X001188Y015546D01*
X001197Y015575D01*
X001209Y015602D01*
X001225Y015628D01*
X001243Y015652D01*
X001264Y015673D01*
X001288Y015691D01*
X001314Y015707D01*
X001341Y015719D01*
X001370Y015728D01*
X001400Y015734D01*
X001430Y015736D01*
X023330Y015740D01*
X023360Y015738D01*
X023390Y015733D01*
X023419Y015724D01*
X023446Y015711D01*
X023472Y015696D01*
X023496Y015677D01*
X023517Y015656D01*
X023536Y015632D01*
X023551Y015606D01*
X023564Y015579D01*
X023573Y015550D01*
X023578Y015520D01*
X023580Y015490D01*
X023580Y009090D01*
X023585Y008991D01*
X023586Y008892D01*
X023583Y008794D01*
X023576Y008695D01*
X023565Y008597D01*
X023550Y008500D01*
X023531Y008403D01*
X023509Y008307D01*
X023483Y008212D01*
X023453Y008118D01*
X023419Y008025D01*
X023381Y007934D01*
X023340Y007844D01*
X023296Y007756D01*
X023248Y007670D01*
X023196Y007586D01*
X023142Y007504D01*
X023084Y007424D01*
X023023Y007346D01*
X022959Y007271D01*
X022892Y007199D01*
X022822Y007129D01*
X022749Y007062D01*
X022674Y006998D01*
X022597Y006938D01*
X022517Y006880D01*
X022435Y006825D01*
X022350Y006774D01*
X022264Y006726D01*
X022176Y006682D01*
X022086Y006641D01*
X021995Y006604D01*
X021902Y006570D01*
X021808Y006540D01*
X021713Y006514D01*
X021617Y006492D01*
X021520Y006473D01*
X021422Y006459D01*
X021324Y006448D01*
X021226Y006441D01*
X021127Y006438D01*
X021029Y006439D01*
X020930Y006444D01*
X020832Y006453D01*
X020734Y006466D01*
X020637Y006482D01*
X020540Y006503D01*
X020445Y006527D01*
X020350Y006555D01*
X020257Y006587D01*
X020165Y006622D01*
X020074Y006661D01*
X019985Y006704D01*
X019898Y006750D01*
X019813Y006800D01*
X019729Y006853D01*
X019648Y006909D01*
X019570Y006968D01*
X019493Y007031D01*
X019419Y007096D01*
X019348Y007164D01*
X019280Y007235D01*
X019214Y007309D01*
X019152Y007385D01*
X019092Y007464D01*
X019036Y007545D01*
X018983Y007628D01*
X018933Y007714D01*
X018887Y007801D01*
X018844Y007890D01*
X018805Y007980D01*
X018770Y008072D01*
X018738Y008165D01*
X018710Y008260D01*
X018685Y008356D01*
X018665Y008452D01*
X018648Y008549D01*
X018635Y008647D01*
X018626Y008745D01*
X018621Y008844D01*
X018620Y008943D01*
X018623Y009041D01*
X018630Y009140D01*
X006130Y009140D01*
X006133Y009041D01*
X006132Y008942D01*
X006127Y008843D01*
X006118Y008744D01*
X006105Y008646D01*
X006088Y008548D01*
X006067Y008451D01*
X006043Y008355D01*
X006014Y008260D01*
X005982Y008167D01*
X005946Y008074D01*
X005907Y007983D01*
X005863Y007894D01*
X005817Y007807D01*
X005767Y007721D01*
X005713Y007638D01*
X005656Y007557D01*
X005596Y007478D01*
X005533Y007401D01*
X005467Y007328D01*
X005398Y007256D01*
X005326Y007188D01*
X005251Y007123D01*
X005174Y007060D01*
X005095Y007001D01*
X005013Y006945D01*
X004929Y006893D01*
X004843Y006843D01*
X004755Y006798D01*
X004665Y006755D01*
X004574Y006717D01*
X004481Y006682D01*
X004387Y006651D01*
X004292Y006623D01*
X004196Y006600D01*
X004099Y006580D01*
X004001Y006564D01*
X003902Y006552D01*
X003804Y006544D01*
X003705Y006540D01*
X003605Y006540D01*
X003506Y006544D01*
X003408Y006552D01*
X003309Y006564D01*
X003211Y006580D01*
X003114Y006600D01*
X003018Y006623D01*
X002923Y006651D01*
X002829Y006682D01*
X002736Y006717D01*
X002645Y006755D01*
X002555Y006798D01*
X002467Y006843D01*
X002381Y006893D01*
X002297Y006945D01*
X002215Y007001D01*
X002136Y007060D01*
X002059Y007123D01*
X001984Y007188D01*
X001912Y007256D01*
X001843Y007328D01*
X001777Y007401D01*
X001714Y007478D01*
X001654Y007557D01*
X001597Y007638D01*
X001543Y007721D01*
X001493Y007807D01*
X001447Y007894D01*
X001403Y007983D01*
X001364Y008074D01*
X001328Y008167D01*
X001296Y008260D01*
X001267Y008355D01*
X001243Y008451D01*
X001222Y008548D01*
X001205Y008646D01*
X001192Y008744D01*
X001183Y008843D01*
X001178Y008942D01*
X001177Y009041D01*
X001180Y009140D01*
X002798Y010080D02*
X002800Y010121D01*
X002806Y010162D01*
X002816Y010202D01*
X002829Y010241D01*
X002846Y010278D01*
X002867Y010314D01*
X002891Y010348D01*
X002918Y010379D01*
X002947Y010407D01*
X002980Y010433D01*
X003014Y010455D01*
X003051Y010474D01*
X003089Y010489D01*
X003129Y010501D01*
X003169Y010509D01*
X003210Y010513D01*
X003252Y010513D01*
X003293Y010509D01*
X003333Y010501D01*
X003373Y010489D01*
X003411Y010474D01*
X003447Y010455D01*
X003482Y010433D01*
X003515Y010407D01*
X003544Y010379D01*
X003571Y010348D01*
X003595Y010314D01*
X003616Y010278D01*
X003633Y010241D01*
X003646Y010202D01*
X003656Y010162D01*
X003662Y010121D01*
X003664Y010080D01*
X003662Y010039D01*
X003656Y009998D01*
X003646Y009958D01*
X003633Y009919D01*
X003616Y009882D01*
X003595Y009846D01*
X003571Y009812D01*
X003544Y009781D01*
X003515Y009753D01*
X003482Y009727D01*
X003448Y009705D01*
X003411Y009686D01*
X003373Y009671D01*
X003333Y009659D01*
X003293Y009651D01*
X003252Y009647D01*
X003210Y009647D01*
X003169Y009651D01*
X003129Y009659D01*
X003089Y009671D01*
X003051Y009686D01*
X003015Y009705D01*
X002980Y009727D01*
X002947Y009753D01*
X002918Y009781D01*
X002891Y009812D01*
X002867Y009846D01*
X002846Y009882D01*
X002829Y009919D01*
X002816Y009958D01*
X002806Y009998D01*
X002800Y010039D01*
X002798Y010080D01*
X021097Y014801D02*
X021099Y014842D01*
X021105Y014883D01*
X021115Y014923D01*
X021128Y014962D01*
X021145Y014999D01*
X021166Y015035D01*
X021190Y015069D01*
X021217Y015100D01*
X021246Y015128D01*
X021279Y015154D01*
X021313Y015176D01*
X021350Y015195D01*
X021388Y015210D01*
X021428Y015222D01*
X021468Y015230D01*
X021509Y015234D01*
X021551Y015234D01*
X021592Y015230D01*
X021632Y015222D01*
X021672Y015210D01*
X021710Y015195D01*
X021746Y015176D01*
X021781Y015154D01*
X021814Y015128D01*
X021843Y015100D01*
X021870Y015069D01*
X021894Y015035D01*
X021915Y014999D01*
X021932Y014962D01*
X021945Y014923D01*
X021955Y014883D01*
X021961Y014842D01*
X021963Y014801D01*
X021961Y014760D01*
X021955Y014719D01*
X021945Y014679D01*
X021932Y014640D01*
X021915Y014603D01*
X021894Y014567D01*
X021870Y014533D01*
X021843Y014502D01*
X021814Y014474D01*
X021781Y014448D01*
X021747Y014426D01*
X021710Y014407D01*
X021672Y014392D01*
X021632Y014380D01*
X021592Y014372D01*
X021551Y014368D01*
X021509Y014368D01*
X021468Y014372D01*
X021428Y014380D01*
X021388Y014392D01*
X021350Y014407D01*
X021314Y014426D01*
X021279Y014448D01*
X021246Y014474D01*
X021217Y014502D01*
X021190Y014533D01*
X021166Y014567D01*
X021145Y014603D01*
X021128Y014640D01*
X021115Y014679D01*
X021105Y014719D01*
X021099Y014760D01*
X021097Y014801D01*
D11*
X022616Y012440D03*
X002144Y012440D03*
X001965Y014993D03*
X001954Y009099D03*
D12*
X003130Y008240D03*
X004130Y008240D03*
X004130Y007240D03*
X003130Y007240D03*
X020634Y007240D03*
X021634Y007240D03*
X021634Y008240D03*
X020634Y008240D03*
D13*
X004674Y014240D03*
X003886Y014240D03*
D14*
X002398Y007094D02*
X002674Y006956D01*
X002600Y007135D01*
X002600Y007345D01*
X002681Y007540D01*
X002720Y007580D01*
X002720Y007900D01*
X002681Y007940D01*
X002600Y008135D01*
X002600Y008345D01*
X002681Y008540D01*
X002830Y008689D01*
X003025Y008770D01*
X003235Y008770D01*
X003430Y008689D01*
X003579Y008540D01*
X003619Y008446D01*
X003620Y008451D01*
X003660Y008528D01*
X003710Y008598D01*
X003772Y008660D01*
X003842Y008710D01*
X003919Y008750D01*
X004001Y008776D01*
X004087Y008790D01*
X004110Y008790D01*
X004110Y008260D01*
X004150Y008260D01*
X004150Y008790D01*
X004173Y008790D01*
X004259Y008776D01*
X004341Y008750D01*
X004418Y008710D01*
X004488Y008660D01*
X004550Y008598D01*
X004600Y008528D01*
X004640Y008451D01*
X004666Y008369D01*
X004680Y008283D01*
X004680Y008260D01*
X004150Y008260D01*
X004150Y008220D01*
X004680Y008220D01*
X004680Y008197D01*
X004666Y008111D01*
X004640Y008029D01*
X004600Y007952D01*
X004550Y007882D01*
X004488Y007820D01*
X004418Y007770D01*
X004360Y007740D01*
X004418Y007710D01*
X004488Y007660D01*
X004550Y007598D01*
X004600Y007528D01*
X004640Y007451D01*
X004666Y007369D01*
X004680Y007283D01*
X004680Y007260D01*
X004150Y007260D01*
X004150Y007220D01*
X004680Y007220D01*
X004680Y007197D01*
X004666Y007111D01*
X004640Y007029D01*
X004600Y006952D01*
X004585Y006931D01*
X004912Y007094D01*
X005319Y007433D01*
X005639Y007858D01*
X005852Y008343D01*
X005948Y008865D01*
X005950Y009106D01*
X005950Y009136D01*
X005947Y009206D01*
X005950Y009209D01*
X005950Y009215D01*
X006000Y009264D01*
X006047Y009316D01*
X006052Y009316D01*
X006055Y009320D01*
X006126Y009320D01*
X006196Y009323D01*
X006199Y009320D01*
X018565Y009320D01*
X018572Y009326D01*
X018638Y009320D01*
X018705Y009320D01*
X018711Y009314D01*
X018720Y009313D01*
X018763Y009262D01*
X018810Y009215D01*
X018810Y009205D01*
X018816Y009198D01*
X018810Y009132D01*
X018810Y009065D01*
X018808Y009063D01*
X018801Y008853D01*
X018881Y008318D01*
X019083Y007816D01*
X019397Y007375D01*
X019805Y007020D01*
X020285Y006769D01*
X020809Y006638D01*
X021351Y006632D01*
X021603Y006690D01*
X021591Y006690D01*
X021505Y006704D01*
X021423Y006730D01*
X021346Y006770D01*
X021276Y006820D01*
X021214Y006882D01*
X021164Y006952D01*
X021124Y007029D01*
X021122Y007034D01*
X021083Y006940D01*
X020934Y006791D01*
X020739Y006710D01*
X020529Y006710D01*
X020334Y006791D01*
X020185Y006940D01*
X020104Y007135D01*
X020104Y007345D01*
X020185Y007540D01*
X020224Y007580D01*
X020224Y007900D01*
X020185Y007940D01*
X020104Y008135D01*
X020104Y008345D01*
X020185Y008540D01*
X020334Y008689D01*
X020529Y008770D01*
X020739Y008770D01*
X020934Y008689D01*
X021083Y008540D01*
X021122Y008446D01*
X021124Y008451D01*
X021164Y008528D01*
X021214Y008598D01*
X021276Y008660D01*
X021346Y008710D01*
X021423Y008750D01*
X021505Y008776D01*
X021591Y008790D01*
X021614Y008790D01*
X021614Y008260D01*
X021654Y008260D01*
X022184Y008260D01*
X022184Y008283D01*
X022170Y008369D01*
X022144Y008451D01*
X022104Y008528D01*
X022053Y008598D01*
X021992Y008660D01*
X021922Y008710D01*
X021845Y008750D01*
X021763Y008776D01*
X021677Y008790D01*
X021654Y008790D01*
X021654Y008260D01*
X021654Y008220D01*
X022184Y008220D01*
X022184Y008197D01*
X022170Y008111D01*
X022144Y008029D01*
X022104Y007952D01*
X022053Y007882D01*
X021992Y007820D01*
X021922Y007770D01*
X021864Y007740D01*
X021922Y007710D01*
X021992Y007660D01*
X022053Y007598D01*
X022104Y007528D01*
X022144Y007451D01*
X022170Y007369D01*
X022184Y007283D01*
X022184Y007260D01*
X021654Y007260D01*
X021654Y007220D01*
X022184Y007220D01*
X022184Y007197D01*
X022170Y007111D01*
X022144Y007029D01*
X022104Y006952D01*
X022053Y006882D01*
X021992Y006820D01*
X021946Y006787D01*
X022363Y006994D01*
X022778Y007341D01*
X023100Y007775D01*
X023313Y008273D01*
X023403Y008807D01*
X023401Y009014D01*
X023400Y009015D01*
X023400Y009084D01*
X023395Y009152D01*
X023400Y009157D01*
X023400Y015490D01*
X023398Y015508D01*
X023379Y015539D01*
X023348Y015558D01*
X023330Y015560D01*
X023255Y015560D01*
X023255Y015560D01*
X016557Y015559D01*
X016617Y015499D01*
X016617Y015499D01*
X016939Y015177D01*
X016939Y015177D01*
X017017Y015099D01*
X017050Y015021D01*
X017170Y014901D01*
X017240Y014731D01*
X017240Y014548D01*
X017170Y014379D01*
X017041Y014250D01*
X016871Y014180D01*
X016688Y014180D01*
X016519Y014250D01*
X016390Y014379D01*
X016320Y014548D01*
X016320Y014731D01*
X016390Y014901D01*
X016407Y014917D01*
X016264Y015060D01*
X016043Y015060D01*
X016117Y014986D01*
X016210Y014761D01*
X016210Y014519D01*
X016117Y014294D01*
X015946Y014123D01*
X015721Y014030D01*
X015479Y014030D01*
X015254Y014123D01*
X015083Y014294D01*
X014990Y014519D01*
X014990Y014761D01*
X015083Y014986D01*
X015157Y015060D01*
X010896Y015060D01*
X010801Y014965D01*
X010791Y014941D01*
X010710Y014860D01*
X010603Y014815D01*
X010488Y014815D01*
X010381Y014860D01*
X010300Y014941D01*
X010255Y015048D01*
X010255Y015163D01*
X010300Y015270D01*
X010381Y015351D01*
X010405Y015361D01*
X010543Y015499D01*
X010602Y015558D01*
X001431Y015556D01*
X001413Y015554D01*
X001381Y015535D01*
X001362Y015504D01*
X001360Y015485D01*
X001360Y009209D01*
X001363Y009206D01*
X001360Y009136D01*
X001360Y009106D01*
X001362Y008865D01*
X001458Y008343D01*
X001671Y007858D01*
X001991Y007433D01*
X002398Y007094D01*
X002352Y007133D02*
X002601Y007133D01*
X002600Y007291D02*
X002162Y007291D01*
X001978Y007450D02*
X002643Y007450D01*
X002720Y007608D02*
X001859Y007608D01*
X001740Y007767D02*
X002720Y007767D01*
X002695Y007925D02*
X001642Y007925D01*
X001572Y008084D02*
X002621Y008084D01*
X002600Y008242D02*
X001503Y008242D01*
X001448Y008401D02*
X002623Y008401D01*
X002699Y008559D02*
X001418Y008559D01*
X001389Y008718D02*
X001643Y008718D01*
X001676Y008684D02*
X001857Y008609D01*
X002051Y008609D01*
X002232Y008684D01*
X002369Y008821D01*
X002444Y009002D01*
X002444Y009197D01*
X002369Y009377D01*
X002364Y009382D01*
X002364Y012001D01*
X002421Y012025D01*
X002427Y012030D01*
X003762Y012030D01*
X003912Y012092D01*
X004912Y013092D01*
X005028Y013208D01*
X005090Y013358D01*
X005090Y014082D01*
X005119Y014151D01*
X005119Y014329D01*
X005051Y014492D01*
X004926Y014617D01*
X004762Y014685D01*
X004585Y014685D01*
X004422Y014617D01*
X004296Y014492D01*
X004289Y014474D01*
X004284Y014484D01*
X004241Y014543D01*
X004189Y014595D01*
X004130Y014638D01*
X004065Y014671D01*
X003995Y014694D01*
X003923Y014705D01*
X003886Y014705D01*
X003850Y014705D01*
X003777Y014694D01*
X003708Y014671D01*
X003643Y014638D01*
X003583Y014595D01*
X003532Y014543D01*
X003489Y014484D01*
X003455Y014418D01*
X003433Y014349D01*
X003421Y014277D01*
X003421Y014240D01*
X003421Y014203D01*
X003433Y014131D01*
X003455Y014062D01*
X003489Y013996D01*
X003532Y013937D01*
X003583Y013885D01*
X003643Y013842D01*
X003708Y013809D01*
X003777Y013786D01*
X003850Y013775D01*
X003886Y013775D01*
X003886Y014240D01*
X003421Y014240D01*
X003886Y014240D01*
X003886Y014240D01*
X003886Y014240D01*
X003886Y014705D01*
X003886Y014240D01*
X003886Y014240D01*
X003886Y013775D01*
X003923Y013775D01*
X003995Y013786D01*
X004065Y013809D01*
X004130Y013842D01*
X004189Y013885D01*
X004241Y013937D01*
X004270Y013977D01*
X004270Y013610D01*
X003510Y012850D01*
X002427Y012850D01*
X002421Y012855D01*
X002241Y012930D01*
X002046Y012930D01*
X001866Y012855D01*
X001728Y012718D01*
X001654Y012537D01*
X001654Y012530D01*
X001606Y012482D01*
X001544Y012332D01*
X001544Y009382D01*
X001539Y009377D01*
X001464Y009197D01*
X001464Y009002D01*
X001539Y008821D01*
X001676Y008684D01*
X001516Y008876D02*
X001362Y008876D01*
X001361Y009035D02*
X001464Y009035D01*
X001464Y009193D02*
X001363Y009193D01*
X001360Y009352D02*
X001528Y009352D01*
X001544Y009510D02*
X001360Y009510D01*
X001360Y009669D02*
X001544Y009669D01*
X001544Y009827D02*
X001360Y009827D01*
X001360Y009986D02*
X001544Y009986D01*
X001544Y010144D02*
X001360Y010144D01*
X001360Y010303D02*
X001544Y010303D01*
X001544Y010461D02*
X001360Y010461D01*
X001360Y010620D02*
X001544Y010620D01*
X001544Y010778D02*
X001360Y010778D01*
X001360Y010937D02*
X001544Y010937D01*
X001544Y011095D02*
X001360Y011095D01*
X001360Y011254D02*
X001544Y011254D01*
X001544Y011412D02*
X001360Y011412D01*
X001360Y011571D02*
X001544Y011571D01*
X001544Y011729D02*
X001360Y011729D01*
X001360Y011888D02*
X001544Y011888D01*
X001544Y012046D02*
X001360Y012046D01*
X001360Y012205D02*
X001544Y012205D01*
X001557Y012363D02*
X001360Y012363D01*
X001360Y012522D02*
X001645Y012522D01*
X001713Y012680D02*
X001360Y012680D01*
X001360Y012839D02*
X001849Y012839D01*
X001360Y012997D02*
X003657Y012997D01*
X003816Y013156D02*
X001360Y013156D01*
X001360Y013314D02*
X003974Y013314D01*
X004133Y013473D02*
X001360Y013473D01*
X001360Y013631D02*
X004270Y013631D01*
X004270Y013790D02*
X004005Y013790D01*
X003886Y013790D02*
X003886Y013790D01*
X003768Y013790D02*
X001360Y013790D01*
X001360Y013948D02*
X003524Y013948D01*
X003441Y014107D02*
X001360Y014107D01*
X001360Y014265D02*
X003421Y014265D01*
X003458Y014424D02*
X001360Y014424D01*
X001360Y014582D02*
X001663Y014582D01*
X001633Y014604D02*
X001698Y014557D01*
X001769Y014520D01*
X001846Y014495D01*
X001925Y014483D01*
X001945Y014483D01*
X001945Y014972D01*
X001985Y014972D01*
X001985Y014483D01*
X002005Y014483D01*
X002084Y014495D01*
X002161Y014520D01*
X002232Y014557D01*
X002297Y014604D01*
X002354Y014661D01*
X002401Y014725D01*
X002438Y014797D01*
X002462Y014873D01*
X002475Y014953D01*
X002475Y014972D01*
X001985Y014972D01*
X001985Y015013D01*
X001945Y015013D01*
X001945Y015503D01*
X001925Y015503D01*
X001846Y015490D01*
X001769Y015465D01*
X001698Y015429D01*
X001633Y015382D01*
X001576Y015325D01*
X001529Y015260D01*
X001492Y015189D01*
X001468Y015112D01*
X001455Y015033D01*
X001455Y015013D01*
X001945Y015013D01*
X001945Y014972D01*
X001455Y014972D01*
X001455Y014953D01*
X001468Y014873D01*
X001492Y014797D01*
X001529Y014725D01*
X001576Y014661D01*
X001633Y014604D01*
X001521Y014741D02*
X001360Y014741D01*
X001360Y014899D02*
X001464Y014899D01*
X001459Y015058D02*
X001360Y015058D01*
X001360Y015216D02*
X001506Y015216D01*
X001626Y015375D02*
X001360Y015375D01*
X001380Y015533D02*
X010577Y015533D01*
X010419Y015375D02*
X002305Y015375D01*
X002297Y015382D02*
X002232Y015429D01*
X002161Y015465D01*
X002084Y015490D01*
X002005Y015503D01*
X001985Y015503D01*
X001985Y015013D01*
X002475Y015013D01*
X002475Y015033D01*
X002462Y015112D01*
X002438Y015189D01*
X002401Y015260D01*
X002354Y015325D01*
X002297Y015382D01*
X002424Y015216D02*
X010277Y015216D01*
X010255Y015058D02*
X002471Y015058D01*
X002467Y014899D02*
X009248Y014899D01*
X009216Y014886D02*
X009134Y014804D01*
X009090Y014698D01*
X009090Y014582D01*
X004961Y014582D01*
X005079Y014424D02*
X009186Y014424D01*
X009216Y014394D02*
X009134Y014476D01*
X009090Y014582D01*
X009108Y014741D02*
X002409Y014741D01*
X002267Y014582D02*
X003571Y014582D01*
X003886Y014582D02*
X003886Y014582D01*
X003886Y014424D02*
X003886Y014424D01*
X003886Y014265D02*
X003886Y014265D01*
X003886Y014107D02*
X003886Y014107D01*
X003886Y013948D02*
X003886Y013948D01*
X004249Y013948D02*
X004270Y013948D01*
X005090Y013948D02*
X010376Y013948D01*
X010535Y013790D02*
X005090Y013790D01*
X005090Y013631D02*
X010693Y013631D01*
X010852Y013473D02*
X005090Y013473D01*
X005072Y013314D02*
X010900Y013314D01*
X010900Y013424D02*
X010900Y011884D01*
X010943Y011781D01*
X011021Y011703D01*
X011324Y011400D01*
X011334Y011376D01*
X011416Y011294D01*
X011522Y011250D01*
X011638Y011250D01*
X011744Y011294D01*
X011826Y011376D01*
X011870Y011482D01*
X011870Y011598D01*
X011826Y011704D01*
X011744Y011786D01*
X011720Y011796D01*
X011460Y012056D01*
X011460Y013596D01*
X011417Y013699D01*
X010317Y014799D01*
X010239Y014877D01*
X010136Y014920D01*
X009462Y014920D01*
X009438Y014930D01*
X009322Y014930D01*
X009216Y014886D01*
X009216Y014394D02*
X009322Y014350D01*
X009438Y014350D01*
X009462Y014360D01*
X009964Y014360D01*
X010900Y013424D01*
X010900Y013156D02*
X004975Y013156D01*
X004817Y012997D02*
X010900Y012997D01*
X010900Y012839D02*
X004658Y012839D01*
X004500Y012680D02*
X010900Y012680D01*
X010900Y012522D02*
X004341Y012522D01*
X004183Y012363D02*
X010900Y012363D01*
X010900Y012205D02*
X004024Y012205D01*
X003800Y012046D02*
X010900Y012046D01*
X010900Y011888D02*
X002364Y011888D01*
X002364Y011729D02*
X010995Y011729D01*
X011154Y011571D02*
X002364Y011571D01*
X002364Y011412D02*
X011312Y011412D01*
X011514Y011254D02*
X002364Y011254D01*
X002364Y011095D02*
X023400Y011095D01*
X023400Y010937D02*
X002364Y010937D01*
X002364Y010778D02*
X023400Y010778D01*
X023400Y010620D02*
X003531Y010620D01*
X003578Y010600D02*
X003353Y010693D01*
X003109Y010693D01*
X002884Y010600D01*
X002711Y010427D01*
X002618Y010202D01*
X002618Y009958D01*
X002711Y009733D01*
X002884Y009560D01*
X003109Y009467D01*
X003353Y009467D01*
X003578Y009560D01*
X003751Y009733D01*
X003844Y009958D01*
X003844Y010202D01*
X003751Y010427D01*
X003578Y010600D01*
X003717Y010461D02*
X023400Y010461D01*
X023400Y010303D02*
X003803Y010303D01*
X003844Y010144D02*
X023400Y010144D01*
X023400Y009986D02*
X003844Y009986D01*
X003790Y009827D02*
X023400Y009827D01*
X023400Y009669D02*
X003687Y009669D01*
X003457Y009510D02*
X023400Y009510D01*
X023400Y009352D02*
X002380Y009352D01*
X002364Y009510D02*
X003006Y009510D01*
X002776Y009669D02*
X002364Y009669D01*
X002364Y009827D02*
X002672Y009827D01*
X002618Y009986D02*
X002364Y009986D01*
X002364Y010144D02*
X002618Y010144D01*
X002660Y010303D02*
X002364Y010303D01*
X002364Y010461D02*
X002745Y010461D01*
X002931Y010620D02*
X002364Y010620D01*
X002444Y009193D02*
X005947Y009193D01*
X005949Y009035D02*
X002444Y009035D01*
X002392Y008876D02*
X005948Y008876D01*
X005921Y008718D02*
X004404Y008718D01*
X004578Y008559D02*
X005892Y008559D01*
X005862Y008401D02*
X004656Y008401D01*
X004657Y008084D02*
X005738Y008084D01*
X005807Y008242D02*
X004150Y008242D01*
X004150Y008220D02*
X004110Y008220D01*
X004110Y007260D01*
X004150Y007260D01*
X004150Y007690D01*
X004150Y008220D01*
X004150Y008084D02*
X004110Y008084D01*
X004110Y007925D02*
X004150Y007925D01*
X004150Y007767D02*
X004110Y007767D01*
X004110Y007608D02*
X004150Y007608D01*
X004150Y007450D02*
X004110Y007450D01*
X004110Y007291D02*
X004150Y007291D01*
X004540Y007608D02*
X005451Y007608D01*
X005570Y007767D02*
X004412Y007767D01*
X004581Y007925D02*
X005668Y007925D01*
X005332Y007450D02*
X004640Y007450D01*
X004679Y007291D02*
X005148Y007291D01*
X004958Y007133D02*
X004670Y007133D01*
X004671Y006974D02*
X004612Y006974D01*
X002667Y006974D02*
X002639Y006974D01*
X003561Y008559D02*
X003682Y008559D01*
X003856Y008718D02*
X003362Y008718D01*
X002898Y008718D02*
X002265Y008718D01*
X004110Y008718D02*
X004150Y008718D01*
X004150Y008559D02*
X004110Y008559D01*
X004110Y008401D02*
X004150Y008401D01*
X011646Y011254D02*
X023400Y011254D01*
X023400Y011412D02*
X011841Y011412D01*
X011870Y011571D02*
X023400Y011571D01*
X023400Y011729D02*
X011801Y011729D01*
X011628Y011888D02*
X023400Y011888D01*
X023400Y012046D02*
X022942Y012046D01*
X022948Y012051D02*
X023005Y012108D01*
X023052Y012173D01*
X023089Y012244D01*
X023114Y012321D01*
X023126Y012400D01*
X023126Y012420D01*
X022637Y012420D01*
X022637Y012460D01*
X023126Y012460D01*
X023126Y012480D01*
X023114Y012559D01*
X023089Y012636D01*
X023052Y012707D01*
X023005Y012772D01*
X022948Y012829D01*
X022884Y012876D01*
X022812Y012913D01*
X022736Y012937D01*
X022656Y012950D01*
X022637Y012950D01*
X022637Y012460D01*
X022596Y012460D01*
X022596Y012420D01*
X022106Y012420D01*
X022106Y012400D01*
X022119Y012321D01*
X022144Y012244D01*
X022180Y012173D01*
X022227Y012108D01*
X022284Y012051D01*
X022349Y012004D01*
X022420Y011967D01*
X022497Y011943D01*
X022576Y011930D01*
X022596Y011930D01*
X022596Y012420D01*
X022637Y012420D01*
X022637Y011930D01*
X022656Y011930D01*
X022736Y011943D01*
X022812Y011967D01*
X022884Y012004D01*
X022948Y012051D01*
X023069Y012205D02*
X023400Y012205D01*
X023400Y012363D02*
X023120Y012363D01*
X023120Y012522D02*
X023400Y012522D01*
X023400Y012680D02*
X023066Y012680D01*
X022935Y012839D02*
X023400Y012839D01*
X023400Y012997D02*
X011460Y012997D01*
X011460Y012839D02*
X022297Y012839D01*
X022284Y012829D02*
X022227Y012772D01*
X022180Y012707D01*
X022144Y012636D01*
X022119Y012559D01*
X022106Y012480D01*
X022106Y012460D01*
X022596Y012460D01*
X022596Y012950D01*
X022576Y012950D01*
X022497Y012937D01*
X022420Y012913D01*
X022349Y012876D01*
X022284Y012829D01*
X022166Y012680D02*
X011460Y012680D01*
X011460Y012522D02*
X022113Y012522D01*
X022112Y012363D02*
X011460Y012363D01*
X011460Y012205D02*
X022164Y012205D01*
X022291Y012046D02*
X011470Y012046D01*
X011460Y013156D02*
X023400Y013156D01*
X023400Y013314D02*
X011460Y013314D01*
X011460Y013473D02*
X023400Y013473D01*
X023400Y013631D02*
X011445Y013631D01*
X011326Y013790D02*
X023400Y013790D01*
X023400Y013948D02*
X011168Y013948D01*
X011009Y014107D02*
X015294Y014107D01*
X015112Y014265D02*
X010851Y014265D01*
X010692Y014424D02*
X015029Y014424D01*
X014990Y014582D02*
X010534Y014582D01*
X010375Y014741D02*
X014990Y014741D01*
X015047Y014899D02*
X010749Y014899D01*
X010893Y015058D02*
X015155Y015058D01*
X016045Y015058D02*
X016267Y015058D01*
X016153Y014899D02*
X016389Y014899D01*
X016324Y014741D02*
X016210Y014741D01*
X016210Y014582D02*
X016320Y014582D01*
X016372Y014424D02*
X016171Y014424D01*
X016088Y014265D02*
X016504Y014265D01*
X017056Y014265D02*
X017472Y014265D01*
X017443Y014294D02*
X017614Y014123D01*
X017839Y014030D01*
X018081Y014030D01*
X018306Y014123D01*
X018477Y014294D01*
X018570Y014519D01*
X018570Y014761D01*
X018477Y014986D01*
X018306Y015157D01*
X018081Y015250D01*
X017839Y015250D01*
X017614Y015157D01*
X017443Y014986D01*
X017350Y014761D01*
X017350Y014519D01*
X017443Y014294D01*
X017389Y014424D02*
X017188Y014424D01*
X017240Y014582D02*
X017350Y014582D01*
X017350Y014741D02*
X017236Y014741D01*
X017171Y014899D02*
X017407Y014899D01*
X017515Y015058D02*
X017034Y015058D01*
X016900Y015216D02*
X017757Y015216D01*
X018163Y015216D02*
X021079Y015216D01*
X021011Y015148D02*
X020917Y014923D01*
X020917Y014679D01*
X021011Y014453D01*
X021183Y014281D01*
X021408Y014188D01*
X021652Y014188D01*
X021878Y014281D01*
X022050Y014453D01*
X022143Y014679D01*
X022143Y014923D01*
X022050Y015148D01*
X021878Y015320D01*
X021652Y015414D01*
X021408Y015414D01*
X021183Y015320D01*
X021011Y015148D01*
X020973Y015058D02*
X018405Y015058D01*
X018513Y014899D02*
X020917Y014899D01*
X020917Y014741D02*
X018570Y014741D01*
X018570Y014582D02*
X020957Y014582D01*
X021040Y014424D02*
X018531Y014424D01*
X018448Y014265D02*
X021221Y014265D01*
X021839Y014265D02*
X023400Y014265D01*
X023400Y014107D02*
X018266Y014107D01*
X017654Y014107D02*
X015906Y014107D01*
X016741Y015375D02*
X021314Y015375D01*
X021747Y015375D02*
X023400Y015375D01*
X023383Y015533D02*
X016583Y015533D01*
X021982Y015216D02*
X023400Y015216D01*
X023400Y015058D02*
X022088Y015058D01*
X022143Y014899D02*
X023400Y014899D01*
X023400Y014741D02*
X022143Y014741D01*
X022103Y014582D02*
X023400Y014582D01*
X023400Y014424D02*
X022020Y014424D01*
X022596Y012839D02*
X022637Y012839D01*
X022637Y012680D02*
X022596Y012680D01*
X022596Y012522D02*
X022637Y012522D01*
X022637Y012363D02*
X022596Y012363D01*
X022596Y012205D02*
X022637Y012205D01*
X022637Y012046D02*
X022596Y012046D01*
X023400Y009193D02*
X018815Y009193D01*
X018807Y009035D02*
X023400Y009035D01*
X023402Y008876D02*
X018802Y008876D01*
X018822Y008718D02*
X020402Y008718D01*
X020203Y008559D02*
X018845Y008559D01*
X018869Y008401D02*
X020127Y008401D01*
X020104Y008242D02*
X018911Y008242D01*
X018975Y008084D02*
X020125Y008084D01*
X020199Y007925D02*
X019039Y007925D01*
X019118Y007767D02*
X020224Y007767D01*
X020224Y007608D02*
X019231Y007608D01*
X019344Y007450D02*
X020147Y007450D01*
X020104Y007291D02*
X019493Y007291D01*
X019675Y007133D02*
X020105Y007133D01*
X020170Y006974D02*
X019892Y006974D01*
X020196Y006816D02*
X020309Y006816D01*
X020732Y006657D02*
X021459Y006657D01*
X021282Y006816D02*
X020959Y006816D01*
X021097Y006974D02*
X021152Y006974D01*
X021614Y007260D02*
X021614Y008220D01*
X021654Y008220D01*
X021654Y007790D01*
X021654Y007260D01*
X021614Y007260D01*
X021614Y007291D02*
X021654Y007291D01*
X021654Y007450D02*
X021614Y007450D01*
X021614Y007608D02*
X021654Y007608D01*
X021654Y007767D02*
X021614Y007767D01*
X021614Y007925D02*
X021654Y007925D01*
X021654Y008084D02*
X021614Y008084D01*
X021654Y008242D02*
X023299Y008242D01*
X023334Y008401D02*
X022160Y008401D01*
X022082Y008559D02*
X023361Y008559D01*
X023388Y008718D02*
X021908Y008718D01*
X021654Y008718D02*
X021614Y008718D01*
X021614Y008559D02*
X021654Y008559D01*
X021654Y008401D02*
X021614Y008401D01*
X021360Y008718D02*
X020866Y008718D01*
X021064Y008559D02*
X021186Y008559D01*
X021916Y007767D02*
X023094Y007767D01*
X023164Y007925D02*
X022085Y007925D01*
X022161Y008084D02*
X023232Y008084D01*
X022976Y007608D02*
X022044Y007608D01*
X022144Y007450D02*
X022858Y007450D01*
X022718Y007291D02*
X022183Y007291D01*
X022174Y007133D02*
X022528Y007133D01*
X022323Y006974D02*
X022116Y006974D01*
X022004Y006816D02*
X021985Y006816D01*
X010218Y014107D02*
X005100Y014107D01*
X005119Y014265D02*
X010059Y014265D01*
X010186Y014899D02*
X010342Y014899D01*
X004386Y014582D02*
X004202Y014582D01*
X001985Y014582D02*
X001945Y014582D01*
X001945Y014741D02*
X001985Y014741D01*
X001985Y014899D02*
X001945Y014899D01*
X001945Y015058D02*
X001985Y015058D01*
X001985Y015216D02*
X001945Y015216D01*
X001945Y015375D02*
X001985Y015375D01*
D15*
X006580Y015340D03*
X009380Y014640D03*
X009880Y015340D03*
X010545Y015105D03*
X013480Y014590D03*
X016780Y012790D03*
X019780Y014640D03*
X022580Y013640D03*
X022580Y010840D03*
X011580Y011540D03*
X010980Y010740D03*
X003080Y011240D03*
X001680Y008340D03*
D16*
X001954Y009099D02*
X001954Y012250D01*
X002144Y012440D01*
X003680Y012440D01*
X004680Y013440D01*
X004680Y014234D01*
X004674Y014240D01*
X003130Y008240D02*
X003130Y007240D01*
X020634Y007240D02*
X020634Y008240D01*
D17*
X011580Y011540D02*
X011180Y011940D01*
X011180Y013540D01*
X010080Y014640D01*
X009380Y014640D01*
X010545Y015105D02*
X010780Y015340D01*
X016380Y015340D01*
X016780Y014940D01*
X016780Y014640D01*
D18*
X016780Y014640D03*
D19*
X015600Y014640D03*
X017960Y014640D03*
M02*
