G75*
%MOIN*%
%OFA0B0*%
%FSLAX24Y24*%
%IPPOS*%
%LPD*%
%AMOC8*
5,1,8,0,0,1.08239X$1,22.5*
%
%ADD10C,0.0000*%
%ADD11C,0.0740*%
%ADD12R,0.0474X0.0513*%
%ADD13R,0.0316X0.0631*%
%ADD14R,0.0513X0.0474*%
%ADD15R,0.0580X0.0330*%
%ADD16C,0.0820*%
%ADD17C,0.0650*%
%ADD18R,0.0474X0.1891*%
%ADD19R,0.0710X0.1419*%
%ADD20R,0.0631X0.0513*%
%ADD21R,0.0474X0.0710*%
%ADD22R,0.0789X0.0572*%
%ADD23C,0.0946*%
%ADD24R,0.0671X0.0789*%
%ADD25C,0.0680*%
%ADD26C,0.0980*%
D10*
X001180Y009140D02*
X001180Y015486D01*
X001182Y015516D01*
X001188Y015546D01*
X001197Y015575D01*
X001209Y015602D01*
X001225Y015628D01*
X001243Y015652D01*
X001264Y015673D01*
X001288Y015691D01*
X001314Y015707D01*
X001341Y015719D01*
X001370Y015728D01*
X001400Y015734D01*
X001430Y015736D01*
X023330Y015740D01*
X023360Y015738D01*
X023390Y015733D01*
X023419Y015724D01*
X023446Y015711D01*
X023472Y015696D01*
X023496Y015677D01*
X023517Y015656D01*
X023536Y015632D01*
X023551Y015606D01*
X023564Y015579D01*
X023573Y015550D01*
X023578Y015520D01*
X023580Y015490D01*
X023580Y009090D01*
X023585Y008991D01*
X023586Y008892D01*
X023583Y008794D01*
X023576Y008695D01*
X023565Y008597D01*
X023550Y008500D01*
X023531Y008403D01*
X023509Y008307D01*
X023483Y008212D01*
X023453Y008118D01*
X023419Y008025D01*
X023381Y007934D01*
X023340Y007844D01*
X023296Y007756D01*
X023248Y007670D01*
X023196Y007586D01*
X023142Y007504D01*
X023084Y007424D01*
X023023Y007346D01*
X022959Y007271D01*
X022892Y007199D01*
X022822Y007129D01*
X022749Y007062D01*
X022674Y006998D01*
X022597Y006938D01*
X022517Y006880D01*
X022435Y006825D01*
X022350Y006774D01*
X022264Y006726D01*
X022176Y006682D01*
X022086Y006641D01*
X021995Y006604D01*
X021902Y006570D01*
X021808Y006540D01*
X021713Y006514D01*
X021617Y006492D01*
X021520Y006473D01*
X021422Y006459D01*
X021324Y006448D01*
X021226Y006441D01*
X021127Y006438D01*
X021029Y006439D01*
X020930Y006444D01*
X020832Y006453D01*
X020734Y006466D01*
X020637Y006482D01*
X020540Y006503D01*
X020445Y006527D01*
X020350Y006555D01*
X020257Y006587D01*
X020165Y006622D01*
X020074Y006661D01*
X019985Y006704D01*
X019898Y006750D01*
X019813Y006800D01*
X019729Y006853D01*
X019648Y006909D01*
X019570Y006968D01*
X019493Y007031D01*
X019419Y007096D01*
X019348Y007164D01*
X019280Y007235D01*
X019214Y007309D01*
X019152Y007385D01*
X019092Y007464D01*
X019036Y007545D01*
X018983Y007628D01*
X018933Y007714D01*
X018887Y007801D01*
X018844Y007890D01*
X018805Y007980D01*
X018770Y008072D01*
X018738Y008165D01*
X018710Y008260D01*
X018685Y008356D01*
X018665Y008452D01*
X018648Y008549D01*
X018635Y008647D01*
X018626Y008745D01*
X018621Y008844D01*
X018620Y008943D01*
X018623Y009041D01*
X018630Y009140D01*
X006130Y009140D01*
X006133Y009041D01*
X006132Y008942D01*
X006127Y008843D01*
X006118Y008744D01*
X006105Y008646D01*
X006088Y008548D01*
X006067Y008451D01*
X006043Y008355D01*
X006014Y008260D01*
X005982Y008167D01*
X005946Y008074D01*
X005907Y007983D01*
X005863Y007894D01*
X005817Y007807D01*
X005767Y007721D01*
X005713Y007638D01*
X005656Y007557D01*
X005596Y007478D01*
X005533Y007401D01*
X005467Y007328D01*
X005398Y007256D01*
X005326Y007188D01*
X005251Y007123D01*
X005174Y007060D01*
X005095Y007001D01*
X005013Y006945D01*
X004929Y006893D01*
X004843Y006843D01*
X004755Y006798D01*
X004665Y006755D01*
X004574Y006717D01*
X004481Y006682D01*
X004387Y006651D01*
X004292Y006623D01*
X004196Y006600D01*
X004099Y006580D01*
X004001Y006564D01*
X003902Y006552D01*
X003804Y006544D01*
X003705Y006540D01*
X003605Y006540D01*
X003506Y006544D01*
X003408Y006552D01*
X003309Y006564D01*
X003211Y006580D01*
X003114Y006600D01*
X003018Y006623D01*
X002923Y006651D01*
X002829Y006682D01*
X002736Y006717D01*
X002645Y006755D01*
X002555Y006798D01*
X002467Y006843D01*
X002381Y006893D01*
X002297Y006945D01*
X002215Y007001D01*
X002136Y007060D01*
X002059Y007123D01*
X001984Y007188D01*
X001912Y007256D01*
X001843Y007328D01*
X001777Y007401D01*
X001714Y007478D01*
X001654Y007557D01*
X001597Y007638D01*
X001543Y007721D01*
X001493Y007807D01*
X001447Y007894D01*
X001403Y007983D01*
X001364Y008074D01*
X001328Y008167D01*
X001296Y008260D01*
X001267Y008355D01*
X001243Y008451D01*
X001222Y008548D01*
X001205Y008646D01*
X001192Y008744D01*
X001183Y008843D01*
X001178Y008942D01*
X001177Y009041D01*
X001180Y009140D01*
X002798Y010080D02*
X002800Y010121D01*
X002806Y010162D01*
X002816Y010202D01*
X002829Y010241D01*
X002846Y010278D01*
X002867Y010314D01*
X002891Y010348D01*
X002918Y010379D01*
X002947Y010407D01*
X002980Y010433D01*
X003014Y010455D01*
X003051Y010474D01*
X003089Y010489D01*
X003129Y010501D01*
X003169Y010509D01*
X003210Y010513D01*
X003252Y010513D01*
X003293Y010509D01*
X003333Y010501D01*
X003373Y010489D01*
X003411Y010474D01*
X003447Y010455D01*
X003482Y010433D01*
X003515Y010407D01*
X003544Y010379D01*
X003571Y010348D01*
X003595Y010314D01*
X003616Y010278D01*
X003633Y010241D01*
X003646Y010202D01*
X003656Y010162D01*
X003662Y010121D01*
X003664Y010080D01*
X003662Y010039D01*
X003656Y009998D01*
X003646Y009958D01*
X003633Y009919D01*
X003616Y009882D01*
X003595Y009846D01*
X003571Y009812D01*
X003544Y009781D01*
X003515Y009753D01*
X003482Y009727D01*
X003448Y009705D01*
X003411Y009686D01*
X003373Y009671D01*
X003333Y009659D01*
X003293Y009651D01*
X003252Y009647D01*
X003210Y009647D01*
X003169Y009651D01*
X003129Y009659D01*
X003089Y009671D01*
X003051Y009686D01*
X003015Y009705D01*
X002980Y009727D01*
X002947Y009753D01*
X002918Y009781D01*
X002891Y009812D01*
X002867Y009846D01*
X002846Y009882D01*
X002829Y009919D01*
X002816Y009958D01*
X002806Y009998D01*
X002800Y010039D01*
X002798Y010080D01*
X021097Y014801D02*
X021099Y014842D01*
X021105Y014883D01*
X021115Y014923D01*
X021128Y014962D01*
X021145Y014999D01*
X021166Y015035D01*
X021190Y015069D01*
X021217Y015100D01*
X021246Y015128D01*
X021279Y015154D01*
X021313Y015176D01*
X021350Y015195D01*
X021388Y015210D01*
X021428Y015222D01*
X021468Y015230D01*
X021509Y015234D01*
X021551Y015234D01*
X021592Y015230D01*
X021632Y015222D01*
X021672Y015210D01*
X021710Y015195D01*
X021746Y015176D01*
X021781Y015154D01*
X021814Y015128D01*
X021843Y015100D01*
X021870Y015069D01*
X021894Y015035D01*
X021915Y014999D01*
X021932Y014962D01*
X021945Y014923D01*
X021955Y014883D01*
X021961Y014842D01*
X021963Y014801D01*
X021961Y014760D01*
X021955Y014719D01*
X021945Y014679D01*
X021932Y014640D01*
X021915Y014603D01*
X021894Y014567D01*
X021870Y014533D01*
X021843Y014502D01*
X021814Y014474D01*
X021781Y014448D01*
X021747Y014426D01*
X021710Y014407D01*
X021672Y014392D01*
X021632Y014380D01*
X021592Y014372D01*
X021551Y014368D01*
X021509Y014368D01*
X021468Y014372D01*
X021428Y014380D01*
X021388Y014392D01*
X021350Y014407D01*
X021314Y014426D01*
X021279Y014448D01*
X021246Y014474D01*
X021217Y014502D01*
X021190Y014533D01*
X021166Y014567D01*
X021145Y014603D01*
X021128Y014640D01*
X021115Y014679D01*
X021105Y014719D01*
X021099Y014760D01*
X021097Y014801D01*
D11*
X022616Y012440D03*
X002144Y012440D03*
X001965Y014993D03*
X001954Y009099D03*
D12*
X008880Y013305D03*
X009680Y013305D03*
X009680Y013975D03*
X008880Y013975D03*
X011980Y013175D03*
X012780Y013175D03*
X012780Y012505D03*
X011980Y012505D03*
X015280Y012775D03*
X015280Y012105D03*
X018280Y012105D03*
X018280Y012775D03*
X020680Y013305D03*
X020680Y013975D03*
D13*
X011204Y013591D03*
X010830Y013591D03*
X010456Y013591D03*
X010456Y012489D03*
X010830Y012489D03*
X011204Y012489D03*
D14*
X011215Y014440D03*
X011845Y014440D03*
X012515Y014440D03*
X010545Y014440D03*
X005715Y010440D03*
X005045Y010440D03*
D15*
X006680Y010148D03*
X006680Y009828D03*
X020680Y012228D03*
X020680Y012548D03*
D16*
X003130Y007240D03*
X004130Y007240D03*
X004130Y008240D03*
X003130Y008240D03*
X020634Y008240D03*
X021634Y008240D03*
X021634Y007240D03*
X020634Y007240D03*
D17*
X004674Y014240D03*
X003886Y014240D03*
D18*
X003886Y012583D03*
X004674Y012583D03*
D19*
X005619Y014631D03*
X002941Y014631D03*
D20*
X014418Y014049D03*
X014418Y015231D03*
X019142Y015231D03*
X019142Y014049D03*
D21*
X018256Y013577D03*
X017075Y013577D03*
X016485Y013577D03*
X015304Y013577D03*
D22*
X020723Y014761D03*
X022337Y014761D03*
X004038Y010120D03*
X002424Y010120D03*
D23*
X003231Y010080D03*
X021530Y014801D03*
D24*
G36*
X008786Y012358D02*
X008312Y011884D01*
X007756Y012440D01*
X008230Y012914D01*
X008786Y012358D01*
G37*
G36*
X007604Y013540D02*
X007130Y013066D01*
X006574Y013622D01*
X007048Y014096D01*
X007604Y013540D01*
G37*
D25*
X016780Y014640D03*
D26*
X015600Y014640D03*
X017960Y014640D03*
M02*
