%
M48
M72
T01C0.0100
T02C0.0276
T03C0.0350
T04C0.0400
T05C0.0402
T06C0.0600
T07C0.0866
%
T01
X3080Y11240
X1680Y8340
X10980Y10740
X11580Y11540
X13480Y14590
X10545Y15105
X9880Y15340
X9380Y14640
X6580Y15340
X16780Y12790
X19780Y14640
X22580Y13640
X22580Y10840
T02
X4674Y14240
X3886Y14240
T03
X16780Y14640
T04
X3130Y7240
X4130Y7240
X4130Y8240
X3130Y8240
X20634Y8240
X20634Y7240
X21634Y7240
X21634Y8240
T05
X22616Y12440
X1954Y9099
X2144Y12440
X1965Y14993
T06
X15600Y14640
X17960Y14640
T07
X21530Y14801
X3231Y10080
M30
