G75*
%MOIN*%
%OFA0B0*%
%FSLAX24Y24*%
%IPPOS*%
%LPD*%
%AMOC8*
5,1,8,0,0,1.08239X$1,22.5*
%
%ADD10C,0.0000*%
%ADD11C,0.0120*%
%ADD12C,0.0080*%
%ADD13C,0.0160*%
%ADD14R,0.0400X0.0800*%
%ADD15C,0.0110*%
%ADD16C,0.0060*%
%ADD17C,0.0240*%
%ADD18C,0.0200*%
%ADD19C,0.0100*%
%ADD20R,0.0100X0.0005*%
%ADD21R,0.0155X0.0005*%
%ADD22R,0.0190X0.0005*%
%ADD23R,0.0210X0.0005*%
%ADD24R,0.0230X0.0005*%
%ADD25R,0.0245X0.0005*%
%ADD26R,0.0260X0.0005*%
%ADD27R,0.0270X0.0005*%
%ADD28R,0.0280X0.0005*%
%ADD29R,0.0045X0.0005*%
%ADD30R,0.0050X0.0005*%
%ADD31R,0.0290X0.0005*%
%ADD32R,0.0085X0.0005*%
%ADD33R,0.0005X0.0005*%
%ADD34R,0.0295X0.0005*%
%ADD35R,0.0095X0.0005*%
%ADD36R,0.0070X0.0005*%
%ADD37R,0.0305X0.0005*%
%ADD38R,0.0090X0.0005*%
%ADD39R,0.0310X0.0005*%
%ADD40R,0.0110X0.0005*%
%ADD41R,0.0105X0.0005*%
%ADD42R,0.0175X0.0005*%
%ADD43R,0.0130X0.0005*%
%ADD44R,0.0150X0.0005*%
%ADD45R,0.0140X0.0005*%
%ADD46R,0.0145X0.0005*%
%ADD47R,0.0125X0.0005*%
%ADD48R,0.0120X0.0005*%
%ADD49R,0.0160X0.0005*%
%ADD50R,0.0115X0.0005*%
%ADD51R,0.0165X0.0005*%
%ADD52R,0.0170X0.0005*%
%ADD53R,0.0030X0.0005*%
%ADD54R,0.0080X0.0005*%
%ADD55R,0.0075X0.0005*%
%ADD56R,0.0065X0.0005*%
%ADD57R,0.0035X0.0005*%
%ADD58R,0.0020X0.0005*%
%ADD59R,0.0010X0.0005*%
%ADD60R,0.0015X0.0005*%
%ADD61R,0.0025X0.0005*%
%ADD62R,0.0040X0.0005*%
%ADD63R,0.0060X0.0005*%
%ADD64R,0.0135X0.0005*%
%ADD65R,0.0055X0.0005*%
%ADD66R,0.0250X0.0005*%
%ADD67R,0.0185X0.0005*%
%ADD68R,0.0255X0.0005*%
%ADD69R,0.0195X0.0005*%
%ADD70R,0.0205X0.0005*%
%ADD71R,0.0200X0.0005*%
%ADD72R,0.0180X0.0005*%
%ADD73R,0.0265X0.0005*%
%ADD74R,0.0240X0.0005*%
%ADD75R,0.0215X0.0005*%
%ADD76R,0.0275X0.0005*%
%ADD77R,0.0225X0.0005*%
%ADD78R,0.0220X0.0005*%
%ADD79R,0.0235X0.0005*%
%ADD80R,0.0300X0.0005*%
%ADD81R,0.0285X0.0005*%
%ADD82R,0.0320X0.0005*%
%ADD83R,0.0330X0.0005*%
%ADD84R,0.0315X0.0005*%
%ADD85R,0.0335X0.0005*%
%ADD86R,0.0325X0.0005*%
%ADD87R,0.0340X0.0005*%
%ADD88R,0.0345X0.0005*%
%ADD89R,0.0350X0.0005*%
%ADD90R,0.0355X0.0005*%
%ADD91R,0.6670X0.0005*%
%ADD92R,0.6735X0.0005*%
%ADD93R,0.6775X0.0005*%
%ADD94R,0.6805X0.0005*%
%ADD95R,0.6830X0.0005*%
%ADD96R,0.6855X0.0005*%
%ADD97R,0.6880X0.0005*%
%ADD98R,0.6895X0.0005*%
%ADD99R,0.6910X0.0005*%
%ADD100R,0.6930X0.0005*%
%ADD101R,0.6945X0.0005*%
%ADD102R,0.6960X0.0005*%
%ADD103R,0.6970X0.0005*%
%ADD104R,0.6985X0.0005*%
%ADD105R,0.6995X0.0005*%
%ADD106R,0.7010X0.0005*%
%ADD107R,0.7020X0.0005*%
%ADD108R,0.7030X0.0005*%
%ADD109R,0.7040X0.0005*%
%ADD110R,0.7050X0.0005*%
%ADD111R,0.7055X0.0005*%
%ADD112R,0.7065X0.0005*%
%ADD113R,0.7070X0.0005*%
%ADD114R,0.7080X0.0005*%
%ADD115R,0.7090X0.0005*%
%ADD116R,0.7095X0.0005*%
%ADD117R,0.7100X0.0005*%
%ADD118R,0.7110X0.0005*%
%ADD119R,0.7115X0.0005*%
%ADD120R,0.7120X0.0005*%
%ADD121R,0.7130X0.0005*%
%ADD122R,0.7135X0.0005*%
%ADD123R,0.7140X0.0005*%
%ADD124R,0.7150X0.0005*%
%ADD125R,0.7160X0.0005*%
%ADD126R,0.7165X0.0005*%
%ADD127R,0.7170X0.0005*%
%ADD128R,0.7175X0.0005*%
%ADD129R,0.7180X0.0005*%
%ADD130R,0.7185X0.0005*%
%ADD131R,0.7190X0.0005*%
%ADD132R,0.7195X0.0005*%
%ADD133R,0.7200X0.0005*%
%ADD134R,0.7205X0.0005*%
%ADD135R,0.7210X0.0005*%
%ADD136R,0.1535X0.0005*%
%ADD137R,0.5585X0.0005*%
%ADD138R,0.1515X0.0005*%
%ADD139R,0.5565X0.0005*%
%ADD140R,0.5550X0.0005*%
%ADD141R,0.5545X0.0005*%
%ADD142R,0.5540X0.0005*%
%ADD143R,0.1510X0.0005*%
%ADD144R,0.0460X0.0005*%
%ADD145R,0.0395X0.0005*%
%ADD146R,0.1040X0.0005*%
%ADD147R,0.1365X0.0005*%
%ADD148R,0.0370X0.0005*%
%ADD149R,0.0530X0.0005*%
%ADD150R,0.0495X0.0005*%
%ADD151R,0.0420X0.0005*%
%ADD152R,0.0990X0.0005*%
%ADD153R,0.1295X0.0005*%
%ADD154R,0.0470X0.0005*%
%ADD155R,0.0465X0.0005*%
%ADD156R,0.0945X0.0005*%
%ADD157R,0.1255X0.0005*%
%ADD158R,0.0425X0.0005*%
%ADD159R,0.0445X0.0005*%
%ADD160R,0.0390X0.0005*%
%ADD161R,0.0510X0.0005*%
%ADD162R,0.0715X0.0005*%
%ADD163R,0.0430X0.0005*%
%ADD164R,0.0600X0.0005*%
%ADD165R,0.0365X0.0005*%
%ADD166R,0.0415X0.0005*%
%ADD167R,0.0560X0.0005*%
%ADD168R,0.0405X0.0005*%
%ADD169R,0.0550X0.0005*%
%ADD170R,0.0545X0.0005*%
%ADD171R,0.0385X0.0005*%
%ADD172R,0.0535X0.0005*%
%ADD173R,0.0375X0.0005*%
%ADD174R,0.0525X0.0005*%
%ADD175R,0.0360X0.0005*%
%ADD176R,0.0505X0.0005*%
%ADD177R,0.0500X0.0005*%
%ADD178R,0.0490X0.0005*%
%ADD179R,0.0485X0.0005*%
%ADD180R,0.0435X0.0005*%
%ADD181R,0.0440X0.0005*%
%ADD182R,0.0790X0.0005*%
%ADD183R,0.0795X0.0005*%
%ADD184R,0.0450X0.0005*%
%ADD185R,0.0800X0.0005*%
%ADD186R,0.0455X0.0005*%
%ADD187R,0.0805X0.0005*%
%ADD188R,0.0810X0.0005*%
%ADD189R,0.0815X0.0005*%
%ADD190R,0.0475X0.0005*%
%ADD191R,0.0820X0.0005*%
%ADD192R,0.0480X0.0005*%
%ADD193R,0.0400X0.0005*%
%ADD194R,0.0825X0.0005*%
%ADD195R,0.0380X0.0005*%
%ADD196R,0.0830X0.0005*%
%ADD197R,0.0515X0.0005*%
%ADD198R,0.0520X0.0005*%
%ADD199R,0.0835X0.0005*%
%ADD200R,0.0540X0.0005*%
%ADD201R,0.0670X0.0005*%
%ADD202R,0.0570X0.0005*%
%ADD203R,0.0410X0.0005*%
%ADD204R,0.0555X0.0005*%
%ADD205R,0.0565X0.0005*%
%ADD206R,0.0575X0.0005*%
%ADD207R,0.0580X0.0005*%
%ADD208R,0.0590X0.0005*%
%ADD209R,0.0615X0.0005*%
%ADD210R,0.0710X0.0005*%
%ADD211R,0.0705X0.0005*%
%ADD212R,0.0585X0.0005*%
%ADD213R,0.0595X0.0005*%
%ADD214R,0.0770X0.0005*%
%ADD215R,0.0610X0.0005*%
%ADD216R,0.1320X0.0005*%
%ADD217R,0.0630X0.0005*%
%ADD218R,0.1345X0.0005*%
%ADD219R,0.1080X0.0005*%
%ADD220R,0.0660X0.0005*%
%ADD221R,0.1775X0.0005*%
%ADD222R,0.2265X0.0005*%
%ADD223R,0.1030X0.0005*%
%ADD224R,0.1235X0.0005*%
%ADD225R,0.1505X0.0005*%
%ADD226R,0.1500X0.0005*%
%ADD227R,0.1495X0.0005*%
%ADD228R,0.1490X0.0005*%
%ADD229R,0.1485X0.0005*%
%ADD230R,0.1480X0.0005*%
%ADD231R,0.2260X0.0005*%
%ADD232R,0.1470X0.0005*%
%ADD233R,0.1025X0.0005*%
%ADD234R,0.2270X0.0005*%
%ADD235R,0.2275X0.0005*%
%ADD236R,0.2280X0.0005*%
%ADD237R,0.1035X0.0005*%
%ADD238R,0.2290X0.0005*%
%ADD239R,0.2305X0.0005*%
%ADD240R,0.2205X0.0005*%
%ADD241R,0.2345X0.0005*%
%ADD242R,0.1045X0.0005*%
%ADD243R,0.3450X0.0005*%
%ADD244R,0.1240X0.0005*%
%ADD245R,0.2210X0.0005*%
%ADD246R,0.3455X0.0005*%
%ADD247R,0.3465X0.0005*%
%ADD248R,0.2215X0.0005*%
%ADD249R,0.2220X0.0005*%
%ADD250R,0.3470X0.0005*%
%ADD251R,0.2225X0.0005*%
%ADD252R,0.3480X0.0005*%
%ADD253R,0.1245X0.0005*%
%ADD254R,0.2230X0.0005*%
%ADD255R,0.3485X0.0005*%
%ADD256R,0.2240X0.0005*%
%ADD257R,0.3495X0.0005*%
%ADD258R,0.3520X0.0005*%
%ADD259R,0.3545X0.0005*%
%ADD260R,0.1250X0.0005*%
%ADD261R,0.7145X0.0005*%
%ADD262R,0.7075X0.0005*%
%ADD263R,0.7060X0.0005*%
%ADD264R,0.7000X0.0005*%
%ADD265R,0.6915X0.0005*%
%ADD266R,0.6900X0.0005*%
%ADD267R,0.6860X0.0005*%
%ADD268R,0.6840X0.0005*%
%ADD269R,0.6810X0.0005*%
%ADD270R,0.6780X0.0005*%
%ADD271R,0.6745X0.0005*%
%ADD272R,0.6695X0.0005*%
D10*
X001180Y009140D02*
X001180Y015486D01*
X001182Y015516D01*
X001188Y015546D01*
X001197Y015575D01*
X001209Y015602D01*
X001225Y015628D01*
X001243Y015652D01*
X001264Y015673D01*
X001288Y015691D01*
X001314Y015707D01*
X001341Y015719D01*
X001370Y015728D01*
X001400Y015734D01*
X001430Y015736D01*
X023330Y015740D01*
X023360Y015738D01*
X023390Y015733D01*
X023419Y015724D01*
X023446Y015711D01*
X023472Y015696D01*
X023496Y015677D01*
X023517Y015656D01*
X023536Y015632D01*
X023551Y015606D01*
X023564Y015579D01*
X023573Y015550D01*
X023578Y015520D01*
X023580Y015490D01*
X023580Y009090D01*
X023585Y008991D01*
X023586Y008892D01*
X023583Y008794D01*
X023576Y008695D01*
X023565Y008597D01*
X023550Y008500D01*
X023531Y008403D01*
X023509Y008307D01*
X023483Y008212D01*
X023453Y008118D01*
X023419Y008025D01*
X023381Y007934D01*
X023340Y007844D01*
X023296Y007756D01*
X023248Y007670D01*
X023196Y007586D01*
X023142Y007504D01*
X023084Y007424D01*
X023023Y007346D01*
X022959Y007271D01*
X022892Y007199D01*
X022822Y007129D01*
X022749Y007062D01*
X022674Y006998D01*
X022597Y006938D01*
X022517Y006880D01*
X022435Y006825D01*
X022350Y006774D01*
X022264Y006726D01*
X022176Y006682D01*
X022086Y006641D01*
X021995Y006604D01*
X021902Y006570D01*
X021808Y006540D01*
X021713Y006514D01*
X021617Y006492D01*
X021520Y006473D01*
X021422Y006459D01*
X021324Y006448D01*
X021226Y006441D01*
X021127Y006438D01*
X021029Y006439D01*
X020930Y006444D01*
X020832Y006453D01*
X020734Y006466D01*
X020637Y006482D01*
X020540Y006503D01*
X020445Y006527D01*
X020350Y006555D01*
X020257Y006587D01*
X020165Y006622D01*
X020074Y006661D01*
X019985Y006704D01*
X019898Y006750D01*
X019813Y006800D01*
X019729Y006853D01*
X019648Y006909D01*
X019570Y006968D01*
X019493Y007031D01*
X019419Y007096D01*
X019348Y007164D01*
X019280Y007235D01*
X019214Y007309D01*
X019152Y007385D01*
X019092Y007464D01*
X019036Y007545D01*
X018983Y007628D01*
X018933Y007714D01*
X018887Y007801D01*
X018844Y007890D01*
X018805Y007980D01*
X018770Y008072D01*
X018738Y008165D01*
X018710Y008260D01*
X018685Y008356D01*
X018665Y008452D01*
X018648Y008549D01*
X018635Y008647D01*
X018626Y008745D01*
X018621Y008844D01*
X018620Y008943D01*
X018623Y009041D01*
X018630Y009140D01*
X006130Y009140D01*
X006133Y009041D01*
X006132Y008942D01*
X006127Y008843D01*
X006118Y008744D01*
X006105Y008646D01*
X006088Y008548D01*
X006067Y008451D01*
X006043Y008355D01*
X006014Y008260D01*
X005982Y008167D01*
X005946Y008074D01*
X005907Y007983D01*
X005863Y007894D01*
X005817Y007807D01*
X005767Y007721D01*
X005713Y007638D01*
X005656Y007557D01*
X005596Y007478D01*
X005533Y007401D01*
X005467Y007328D01*
X005398Y007256D01*
X005326Y007188D01*
X005251Y007123D01*
X005174Y007060D01*
X005095Y007001D01*
X005013Y006945D01*
X004929Y006893D01*
X004843Y006843D01*
X004755Y006798D01*
X004665Y006755D01*
X004574Y006717D01*
X004481Y006682D01*
X004387Y006651D01*
X004292Y006623D01*
X004196Y006600D01*
X004099Y006580D01*
X004001Y006564D01*
X003902Y006552D01*
X003804Y006544D01*
X003705Y006540D01*
X003605Y006540D01*
X003506Y006544D01*
X003408Y006552D01*
X003309Y006564D01*
X003211Y006580D01*
X003114Y006600D01*
X003018Y006623D01*
X002923Y006651D01*
X002829Y006682D01*
X002736Y006717D01*
X002645Y006755D01*
X002555Y006798D01*
X002467Y006843D01*
X002381Y006893D01*
X002297Y006945D01*
X002215Y007001D01*
X002136Y007060D01*
X002059Y007123D01*
X001984Y007188D01*
X001912Y007256D01*
X001843Y007328D01*
X001777Y007401D01*
X001714Y007478D01*
X001654Y007557D01*
X001597Y007638D01*
X001543Y007721D01*
X001493Y007807D01*
X001447Y007894D01*
X001403Y007983D01*
X001364Y008074D01*
X001328Y008167D01*
X001296Y008260D01*
X001267Y008355D01*
X001243Y008451D01*
X001222Y008548D01*
X001205Y008646D01*
X001192Y008744D01*
X001183Y008843D01*
X001178Y008942D01*
X001177Y009041D01*
X001180Y009140D01*
X002798Y010080D02*
X002800Y010121D01*
X002806Y010162D01*
X002816Y010202D01*
X002829Y010241D01*
X002846Y010278D01*
X002867Y010314D01*
X002891Y010348D01*
X002918Y010379D01*
X002947Y010407D01*
X002980Y010433D01*
X003014Y010455D01*
X003051Y010474D01*
X003089Y010489D01*
X003129Y010501D01*
X003169Y010509D01*
X003210Y010513D01*
X003252Y010513D01*
X003293Y010509D01*
X003333Y010501D01*
X003373Y010489D01*
X003411Y010474D01*
X003447Y010455D01*
X003482Y010433D01*
X003515Y010407D01*
X003544Y010379D01*
X003571Y010348D01*
X003595Y010314D01*
X003616Y010278D01*
X003633Y010241D01*
X003646Y010202D01*
X003656Y010162D01*
X003662Y010121D01*
X003664Y010080D01*
X003662Y010039D01*
X003656Y009998D01*
X003646Y009958D01*
X003633Y009919D01*
X003616Y009882D01*
X003595Y009846D01*
X003571Y009812D01*
X003544Y009781D01*
X003515Y009753D01*
X003482Y009727D01*
X003448Y009705D01*
X003411Y009686D01*
X003373Y009671D01*
X003333Y009659D01*
X003293Y009651D01*
X003252Y009647D01*
X003210Y009647D01*
X003169Y009651D01*
X003129Y009659D01*
X003089Y009671D01*
X003051Y009686D01*
X003015Y009705D01*
X002980Y009727D01*
X002947Y009753D01*
X002918Y009781D01*
X002891Y009812D01*
X002867Y009846D01*
X002846Y009882D01*
X002829Y009919D01*
X002816Y009958D01*
X002806Y009998D01*
X002800Y010039D01*
X002798Y010080D01*
X021097Y014801D02*
X021099Y014842D01*
X021105Y014883D01*
X021115Y014923D01*
X021128Y014962D01*
X021145Y014999D01*
X021166Y015035D01*
X021190Y015069D01*
X021217Y015100D01*
X021246Y015128D01*
X021279Y015154D01*
X021313Y015176D01*
X021350Y015195D01*
X021388Y015210D01*
X021428Y015222D01*
X021468Y015230D01*
X021509Y015234D01*
X021551Y015234D01*
X021592Y015230D01*
X021632Y015222D01*
X021672Y015210D01*
X021710Y015195D01*
X021746Y015176D01*
X021781Y015154D01*
X021814Y015128D01*
X021843Y015100D01*
X021870Y015069D01*
X021894Y015035D01*
X021915Y014999D01*
X021932Y014962D01*
X021945Y014923D01*
X021955Y014883D01*
X021961Y014842D01*
X021963Y014801D01*
X021961Y014760D01*
X021955Y014719D01*
X021945Y014679D01*
X021932Y014640D01*
X021915Y014603D01*
X021894Y014567D01*
X021870Y014533D01*
X021843Y014502D01*
X021814Y014474D01*
X021781Y014448D01*
X021747Y014426D01*
X021710Y014407D01*
X021672Y014392D01*
X021632Y014380D01*
X021592Y014372D01*
X021551Y014368D01*
X021509Y014368D01*
X021468Y014372D01*
X021428Y014380D01*
X021388Y014392D01*
X021350Y014407D01*
X021314Y014426D01*
X021279Y014448D01*
X021246Y014474D01*
X021217Y014502D01*
X021190Y014533D01*
X021166Y014567D01*
X021145Y014603D01*
X021128Y014640D01*
X021115Y014679D01*
X021105Y014719D01*
X021099Y014760D01*
X021097Y014801D01*
D11*
X022393Y011540D02*
X022980Y011540D01*
X022630Y008016D02*
X022630Y007429D01*
X019920Y007740D02*
X019333Y007740D01*
X019626Y007447D02*
X019626Y008034D01*
X005130Y008016D02*
X005130Y007429D01*
X002420Y007740D02*
X001833Y007740D01*
X002126Y007447D02*
X002126Y008034D01*
X002187Y011247D02*
X002187Y011834D01*
X002480Y011540D02*
X001893Y011540D01*
X001693Y014193D02*
X002280Y014193D01*
D12*
X002630Y006990D02*
X002880Y006740D01*
X003380Y006740D01*
X003630Y006990D01*
X003880Y006740D01*
X004380Y006740D01*
X004630Y006990D01*
X004630Y007490D01*
X004380Y007740D01*
X003880Y007740D01*
X003630Y007490D01*
X003380Y007740D01*
X002880Y007740D01*
X002630Y007490D01*
X002630Y006990D01*
X002880Y007740D02*
X002630Y007990D01*
X002630Y008490D01*
X002880Y008740D01*
X003380Y008740D01*
X003630Y008490D01*
X003880Y008740D01*
X004380Y008740D01*
X004630Y008490D01*
X004630Y007990D01*
X004380Y007740D01*
X003880Y007740D02*
X003630Y007990D01*
X003380Y007740D01*
X007795Y009494D02*
X007848Y009494D01*
X007955Y009387D01*
X007955Y009280D02*
X007955Y009494D01*
X008110Y009440D02*
X008110Y009387D01*
X008323Y009387D01*
X008323Y009440D02*
X008270Y009494D01*
X008163Y009494D01*
X008110Y009440D01*
X008163Y009280D02*
X008270Y009280D01*
X008323Y009333D01*
X008323Y009440D01*
X008462Y009494D02*
X008569Y009494D01*
X008515Y009547D02*
X008515Y009333D01*
X008462Y009280D01*
X008716Y009494D02*
X008769Y009494D01*
X008876Y009387D01*
X008876Y009280D02*
X008876Y009494D01*
X009030Y009440D02*
X009030Y009387D01*
X009244Y009387D01*
X009244Y009440D02*
X009191Y009494D01*
X009084Y009494D01*
X009030Y009440D01*
X009084Y009280D02*
X009191Y009280D01*
X009244Y009333D01*
X009244Y009440D01*
X009399Y009494D02*
X009506Y009280D01*
X009612Y009494D01*
X009767Y009440D02*
X009767Y009280D01*
X009767Y009440D02*
X009821Y009494D01*
X009981Y009494D01*
X009981Y009280D01*
X010135Y009333D02*
X010135Y009440D01*
X010189Y009494D01*
X010296Y009494D01*
X010349Y009440D01*
X010349Y009333D01*
X010296Y009280D01*
X010189Y009280D01*
X010135Y009333D01*
X010504Y009333D02*
X010557Y009280D01*
X010664Y009280D01*
X010717Y009333D01*
X010717Y009547D01*
X010664Y009600D01*
X010557Y009600D01*
X010504Y009547D01*
X011224Y009494D02*
X011331Y009494D01*
X011278Y009547D02*
X011278Y009333D01*
X011224Y009280D01*
X011486Y009333D02*
X011539Y009387D01*
X011646Y009387D01*
X011699Y009440D01*
X011646Y009494D01*
X011486Y009494D01*
X011486Y009333D02*
X011539Y009280D01*
X011699Y009280D01*
X011854Y009333D02*
X011854Y009440D01*
X011908Y009494D01*
X012014Y009494D01*
X012068Y009440D01*
X012068Y009333D01*
X012014Y009280D01*
X011908Y009280D01*
X011854Y009333D01*
X012223Y009333D02*
X012223Y009440D01*
X012276Y009494D01*
X012383Y009494D01*
X012436Y009440D01*
X012436Y009333D01*
X012383Y009280D01*
X012276Y009280D01*
X012223Y009333D01*
X012591Y009333D02*
X012644Y009280D01*
X012804Y009280D01*
X012804Y009600D01*
X012644Y009600D01*
X012591Y009547D01*
X012591Y009494D01*
X012644Y009440D01*
X012804Y009440D01*
X012644Y009440D02*
X012591Y009387D01*
X012591Y009333D01*
X013311Y009280D02*
X013365Y009333D01*
X013365Y009547D01*
X013418Y009494D02*
X013311Y009494D01*
X013573Y009440D02*
X013573Y009387D01*
X013787Y009387D01*
X013787Y009440D02*
X013733Y009494D01*
X013626Y009494D01*
X013573Y009440D01*
X013626Y009280D02*
X013733Y009280D01*
X013787Y009333D01*
X013787Y009440D01*
X013933Y009494D02*
X014093Y009387D01*
X013933Y009280D01*
X014093Y009280D02*
X014093Y009600D01*
X014248Y009494D02*
X014408Y009494D01*
X014462Y009440D01*
X014462Y009333D01*
X014408Y009280D01*
X014248Y009280D01*
X014617Y009333D02*
X014617Y009440D01*
X014670Y009494D01*
X014777Y009494D01*
X014830Y009440D01*
X014830Y009333D01*
X014777Y009280D01*
X014670Y009280D01*
X014617Y009333D01*
X014985Y009440D02*
X015038Y009387D01*
X015198Y009387D01*
X015198Y009280D02*
X015198Y009600D01*
X015038Y009600D01*
X014985Y009547D01*
X014985Y009440D01*
X015722Y009387D02*
X015722Y009333D01*
X015775Y009280D01*
X015882Y009280D01*
X015935Y009333D01*
X015882Y009440D02*
X015775Y009440D01*
X015722Y009387D01*
X015722Y009547D02*
X015775Y009600D01*
X015882Y009600D01*
X015935Y009547D01*
X015935Y009494D01*
X015882Y009440D01*
X016090Y009440D02*
X016143Y009387D01*
X016303Y009387D01*
X016303Y009280D02*
X016303Y009600D01*
X016143Y009600D01*
X016090Y009547D01*
X016090Y009440D01*
X016458Y009387D02*
X016458Y009333D01*
X016512Y009280D01*
X016672Y009280D01*
X016672Y009600D01*
X016512Y009600D01*
X016458Y009547D01*
X016458Y009494D01*
X016512Y009440D01*
X016672Y009440D01*
X016512Y009440D02*
X016458Y009387D01*
X016826Y009387D02*
X016826Y009333D01*
X016880Y009280D01*
X017040Y009280D01*
X017040Y009600D01*
X016880Y009600D01*
X016826Y009547D01*
X016826Y009494D01*
X016880Y009440D01*
X017040Y009440D01*
X016880Y009440D02*
X016826Y009387D01*
X020134Y008490D02*
X020134Y007990D01*
X020384Y007740D01*
X020884Y007740D01*
X021134Y007490D01*
X021384Y007740D01*
X021884Y007740D01*
X022134Y007490D01*
X022134Y006990D01*
X021884Y006740D01*
X021384Y006740D01*
X021134Y006990D01*
X020884Y006740D01*
X020384Y006740D01*
X020134Y006990D01*
X020134Y007490D01*
X020384Y007740D01*
X020884Y007740D02*
X021134Y007990D01*
X021384Y007740D01*
X021884Y007740D02*
X022134Y007990D01*
X022134Y008490D01*
X021884Y008740D01*
X021384Y008740D01*
X021134Y008490D01*
X020884Y008740D01*
X020384Y008740D01*
X020134Y008490D01*
X017895Y015180D02*
X018002Y015287D01*
X018002Y015500D01*
X017788Y015500D02*
X017788Y015287D01*
X017895Y015180D01*
X017634Y015233D02*
X017580Y015180D01*
X017473Y015180D01*
X017420Y015233D01*
X017420Y015340D02*
X017527Y015394D01*
X017580Y015394D01*
X017634Y015340D01*
X017634Y015233D01*
X017420Y015340D02*
X017420Y015500D01*
X017634Y015500D01*
X016154Y015500D02*
X016154Y015287D01*
X016048Y015180D01*
X015941Y015287D01*
X015941Y015500D01*
X015786Y015447D02*
X015786Y015394D01*
X015733Y015340D01*
X015786Y015287D01*
X015786Y015233D01*
X015733Y015180D01*
X015626Y015180D01*
X015572Y015233D01*
X015442Y015233D02*
X015442Y015180D01*
X015388Y015180D01*
X015388Y015233D01*
X015442Y015233D01*
X015234Y015233D02*
X015180Y015180D01*
X015073Y015180D01*
X015020Y015233D01*
X015127Y015340D02*
X015180Y015340D01*
X015234Y015287D01*
X015234Y015233D01*
X015180Y015340D02*
X015234Y015394D01*
X015234Y015447D01*
X015180Y015500D01*
X015073Y015500D01*
X015020Y015447D01*
X015572Y015447D02*
X015626Y015500D01*
X015733Y015500D01*
X015786Y015447D01*
X015733Y015340D02*
X015679Y015340D01*
X006880Y013120D02*
X006690Y013300D01*
X006450Y013140D01*
X006180Y013240D02*
X006130Y013540D01*
X005870Y013540D01*
X005810Y013240D01*
X005560Y013130D02*
X005300Y013310D01*
X005120Y013120D01*
X005300Y012860D01*
X005200Y012610D02*
X004880Y012560D01*
X004880Y012290D01*
X005200Y012240D01*
X005300Y011990D02*
X005120Y011730D01*
X005300Y011540D01*
X005560Y011720D01*
X005810Y011610D02*
X005870Y011310D01*
X006130Y011310D01*
X006180Y011610D01*
X006450Y011710D02*
X006690Y011540D01*
X006880Y011730D01*
X006710Y011970D01*
X006770Y012070D01*
X006320Y012260D01*
X006450Y011710D02*
X006409Y011687D01*
X006366Y011666D01*
X006321Y011648D01*
X006276Y011633D01*
X006230Y011620D01*
X006183Y011610D01*
X005810Y011611D02*
X005758Y011626D01*
X005707Y011645D01*
X005657Y011667D01*
X005609Y011692D01*
X005562Y011721D01*
X006310Y012260D02*
X006292Y012227D01*
X006271Y012197D01*
X006247Y012168D01*
X006220Y012142D01*
X006191Y012120D01*
X006159Y012100D01*
X006126Y012083D01*
X006091Y012070D01*
X006055Y012061D01*
X006018Y012055D01*
X005981Y012053D01*
X005944Y012055D01*
X005907Y012060D01*
X005871Y012070D01*
X005836Y012082D01*
X005802Y012099D01*
X005771Y012118D01*
X005741Y012141D01*
X005714Y012167D01*
X005690Y012195D01*
X005669Y012226D01*
X005651Y012258D01*
X005636Y012292D01*
X005625Y012328D01*
X005617Y012364D01*
X005613Y012401D01*
X005613Y012439D01*
X005617Y012476D01*
X005625Y012512D01*
X005636Y012548D01*
X005651Y012582D01*
X005669Y012614D01*
X005690Y012645D01*
X005714Y012673D01*
X005741Y012699D01*
X005771Y012722D01*
X005802Y012741D01*
X005836Y012758D01*
X005871Y012770D01*
X005907Y012780D01*
X005944Y012785D01*
X005981Y012787D01*
X006018Y012785D01*
X006055Y012779D01*
X006091Y012770D01*
X006126Y012757D01*
X006159Y012740D01*
X006191Y012720D01*
X006220Y012698D01*
X006247Y012672D01*
X006271Y012643D01*
X006292Y012613D01*
X006310Y012580D01*
X006320Y012580D02*
X006770Y012780D01*
X006710Y012880D01*
X006880Y013120D01*
X006447Y013136D02*
X006397Y013164D01*
X006345Y013188D01*
X006292Y013209D01*
X006237Y013226D01*
X006181Y013239D01*
X005297Y012857D02*
X005272Y012812D01*
X005249Y012765D01*
X005230Y012717D01*
X005213Y012668D01*
X005200Y012618D01*
X005565Y013129D02*
X005612Y013156D01*
X005659Y013180D01*
X005708Y013201D01*
X005759Y013219D01*
X005810Y013233D01*
X005198Y012235D02*
X005212Y012183D01*
X005229Y012132D01*
X005249Y012082D01*
X005272Y012033D01*
X005299Y011986D01*
D13*
X019180Y011840D02*
X019180Y012940D01*
X019980Y013340D02*
X019180Y011840D01*
X019980Y011440D02*
X019980Y013340D01*
X020980Y013540D02*
X019980Y011440D01*
X020980Y011040D02*
X020980Y013540D01*
X021980Y013840D02*
X020980Y011040D01*
X021980Y010840D02*
X021980Y013840D01*
D14*
X008280Y012440D03*
D15*
X004835Y014920D02*
X004535Y014920D01*
X004685Y015070D02*
X004685Y014770D01*
X004035Y014920D02*
X003735Y014920D01*
D16*
X003828Y015270D02*
X003784Y015313D01*
X003784Y015400D01*
X003828Y015443D01*
X003915Y015443D01*
X003958Y015400D01*
X003958Y015313D01*
X003915Y015270D01*
X003828Y015270D01*
X004068Y015270D02*
X004111Y015313D01*
X004111Y015487D01*
X004154Y015443D02*
X004068Y015443D01*
X004570Y015357D02*
X004570Y015530D01*
X004570Y015357D02*
X004657Y015270D01*
X004744Y015357D01*
X004744Y015530D01*
X004865Y015487D02*
X004908Y015530D01*
X004995Y015530D01*
X005038Y015487D01*
X005038Y015443D01*
X004995Y015400D01*
X004865Y015400D01*
X004865Y015313D02*
X004865Y015487D01*
X004865Y015313D02*
X004908Y015270D01*
X004995Y015270D01*
X005038Y015313D01*
X005142Y015313D02*
X005142Y015270D01*
X005186Y015270D01*
X005186Y015313D01*
X005142Y015313D01*
X005307Y015313D02*
X005307Y015487D01*
X005480Y015313D01*
X005437Y015270D01*
X005350Y015270D01*
X005307Y015313D01*
X005480Y015313D02*
X005480Y015487D01*
X005437Y015530D01*
X005350Y015530D01*
X005307Y015487D01*
X005896Y015400D02*
X006070Y015400D01*
X006485Y015400D02*
X006485Y015270D01*
X006485Y015400D02*
X006529Y015443D01*
X006659Y015443D01*
X006659Y015270D01*
X006769Y015270D02*
X006855Y015270D01*
X006812Y015270D02*
X006812Y015443D01*
X006855Y015443D01*
X006812Y015530D02*
X006812Y015574D01*
X006977Y015530D02*
X006977Y015357D01*
X007063Y015270D01*
X007150Y015357D01*
X007150Y015530D01*
X003369Y015400D02*
X003195Y015400D01*
X003239Y015270D02*
X003239Y015530D01*
X003369Y015400D01*
X003074Y015313D02*
X003031Y015313D01*
X003031Y015270D01*
X003074Y015270D01*
X003074Y015313D01*
X002927Y015313D02*
X002883Y015270D01*
X002797Y015270D01*
X002753Y015313D01*
X002753Y015400D01*
X002797Y015443D01*
X002840Y015443D01*
X002927Y015400D01*
X002927Y015530D01*
X002753Y015530D01*
X002632Y015530D02*
X002632Y015357D01*
X002545Y015270D01*
X002459Y015357D01*
X002459Y015530D01*
D17*
X005980Y011940D02*
X005980Y011740D01*
X005980Y011440D01*
X005980Y011940D02*
X006580Y011940D01*
D18*
X006580Y011840D02*
X006680Y011740D01*
X006680Y011840D01*
X006380Y012140D01*
X005980Y011740D01*
X005680Y011740D01*
X005580Y011840D01*
X005380Y011840D01*
X005380Y011740D01*
X005280Y011740D01*
X005580Y012140D01*
X005380Y012340D01*
X004980Y012440D01*
X005480Y012440D01*
X005280Y012640D01*
X005480Y012640D01*
X005680Y012840D01*
X005980Y012940D01*
X006280Y012840D01*
X006380Y012740D01*
X006580Y012840D01*
X006680Y013140D01*
X006480Y012940D01*
X005980Y013040D01*
X005580Y012940D01*
X005380Y012740D01*
X005380Y012940D01*
X005280Y013140D01*
X005480Y013040D01*
X005980Y013140D01*
X006380Y013040D01*
X005980Y013240D01*
X005980Y013440D01*
X005580Y012140D02*
X005780Y011940D01*
X005980Y011640D02*
X006180Y011840D01*
X006580Y011840D01*
X005980Y011640D02*
X005980Y011440D01*
D19*
X006080Y011390D02*
X006130Y011640D01*
X006280Y011790D01*
X006230Y011640D01*
X006430Y011790D01*
X006580Y011690D01*
X006680Y011640D01*
X006780Y011740D01*
X006780Y011790D01*
X006730Y011840D01*
X006680Y012040D02*
X006530Y012140D01*
X006330Y012640D02*
X006180Y012740D01*
X006330Y012640D02*
X006680Y012790D01*
X006730Y012990D01*
X006780Y013090D01*
X006780Y013140D01*
X006680Y013140D02*
X006680Y013240D01*
X006630Y013190D02*
X006430Y013040D01*
X006080Y013240D01*
X006080Y013490D01*
X006130Y013240D01*
X005880Y013240D01*
X005880Y013390D01*
X005980Y012840D01*
X005630Y012690D01*
X005530Y012490D01*
X005580Y012290D01*
X005230Y012540D01*
X004930Y012540D01*
X004930Y012340D01*
X005330Y012290D01*
X005480Y013140D01*
X005330Y013240D01*
X005180Y013090D01*
X005530Y012790D01*
X005230Y012290D02*
X005430Y012140D01*
X005330Y011990D01*
X005280Y012240D01*
X005380Y012090D01*
X005730Y011840D01*
X005930Y011840D01*
X005830Y012040D01*
X005830Y011590D01*
X005680Y011840D02*
X005180Y011740D01*
X005280Y011640D01*
X005330Y011590D01*
X005280Y011640D02*
X005480Y011690D01*
X005480Y011790D01*
X016430Y015290D02*
X016580Y015140D01*
X016430Y015290D02*
X017130Y015290D01*
X017130Y015440D02*
X016980Y015590D01*
X017130Y015440D02*
X016430Y015440D01*
D20*
X014143Y012815D03*
X014668Y012685D03*
X014688Y012245D03*
X014978Y012200D03*
X014323Y012105D03*
X014323Y012100D03*
X014323Y012090D03*
X014013Y010980D03*
X014158Y010860D03*
X014158Y010850D03*
X013728Y010805D03*
X013728Y010800D03*
X013723Y010830D03*
X013718Y010845D03*
X013733Y010705D03*
X013493Y010790D03*
X013493Y010795D03*
X013493Y010800D03*
X013493Y010805D03*
X013493Y010810D03*
X013493Y010815D03*
X013493Y010820D03*
X013493Y010825D03*
X013493Y010830D03*
X013493Y010835D03*
X013493Y010840D03*
X013493Y010845D03*
X013493Y010850D03*
X013493Y010855D03*
X013498Y010870D03*
X013498Y010875D03*
X013593Y010980D03*
X013313Y010870D03*
X013313Y010865D03*
X013313Y010860D03*
X013313Y010855D03*
X013313Y010850D03*
X013313Y010845D03*
X013313Y010840D03*
X013313Y010835D03*
X013313Y010830D03*
X013313Y010825D03*
X013313Y010820D03*
X013313Y010815D03*
X013313Y010810D03*
X013313Y010805D03*
X013313Y010800D03*
X013313Y010795D03*
X013313Y010790D03*
X013313Y010785D03*
X013313Y010780D03*
X013313Y010775D03*
X013313Y010770D03*
X013313Y010765D03*
X013313Y010760D03*
X013313Y010755D03*
X013313Y010750D03*
X013313Y010745D03*
X013313Y010740D03*
X013313Y010735D03*
X013313Y010730D03*
X013313Y010725D03*
X013313Y010720D03*
X013313Y010715D03*
X013313Y010710D03*
X013313Y010705D03*
X013313Y010700D03*
X013313Y010695D03*
X013313Y010690D03*
X013313Y010685D03*
X013313Y010680D03*
X013313Y010675D03*
X013313Y010670D03*
X013313Y010665D03*
X013313Y010660D03*
X013313Y010655D03*
X013313Y010650D03*
X013313Y010645D03*
X013313Y010640D03*
X013313Y010635D03*
X013313Y010630D03*
X013313Y010625D03*
X013313Y010620D03*
X013313Y010615D03*
X013313Y010610D03*
X013313Y010605D03*
X013313Y010600D03*
X013313Y010595D03*
X013313Y010590D03*
X013313Y010585D03*
X013313Y010580D03*
X013313Y010570D03*
X013318Y010535D03*
X013318Y010530D03*
X013508Y010585D03*
X013073Y010600D03*
X013073Y010815D03*
X013073Y010830D03*
X014158Y010365D03*
X014158Y010355D03*
X014158Y010350D03*
X014158Y010345D03*
X014158Y010340D03*
X014158Y010335D03*
X015023Y010525D03*
X015023Y010530D03*
X015023Y010535D03*
X015268Y010535D03*
X015268Y010540D03*
X015268Y010545D03*
X015268Y010550D03*
X015473Y010620D03*
X015473Y010625D03*
X015473Y010630D03*
X015473Y010635D03*
X015473Y010640D03*
X015473Y010645D03*
X015473Y010650D03*
X015473Y010655D03*
X015473Y010660D03*
X015473Y010665D03*
X015473Y010670D03*
X015473Y010675D03*
X015473Y010680D03*
X015473Y010685D03*
X015473Y010690D03*
X015473Y010695D03*
X015473Y010700D03*
X015473Y010705D03*
X015473Y010710D03*
X015473Y010715D03*
X015473Y010720D03*
X015473Y010725D03*
X015473Y010800D03*
X015473Y010805D03*
X015473Y010810D03*
X015473Y010815D03*
X015473Y010820D03*
X015473Y010825D03*
X015473Y010830D03*
X015473Y010835D03*
X015473Y010840D03*
X015473Y010845D03*
X015473Y010850D03*
X015473Y010855D03*
X015473Y010860D03*
X015473Y010865D03*
X015473Y010870D03*
X015473Y010875D03*
X015688Y010665D03*
X015688Y010655D03*
X011863Y010700D03*
X011863Y010705D03*
X011863Y010715D03*
X011863Y010720D03*
X011773Y010510D03*
X011418Y010530D03*
X011418Y010535D03*
X011413Y010550D03*
X011413Y010560D03*
X011413Y010615D03*
X011413Y010630D03*
X011413Y010645D03*
X011413Y010650D03*
X011413Y010655D03*
X011413Y010660D03*
X011413Y010665D03*
X011413Y010670D03*
X011413Y010675D03*
X011413Y010680D03*
X011413Y010685D03*
X011413Y010690D03*
X011413Y010695D03*
X011413Y010700D03*
X011413Y010705D03*
X011413Y010710D03*
X011413Y010715D03*
X011413Y010720D03*
X011413Y010725D03*
X011413Y010730D03*
X011413Y010735D03*
X011413Y010740D03*
X011413Y010745D03*
X011413Y010750D03*
X011413Y010755D03*
X011413Y010760D03*
X011413Y010765D03*
X011413Y010770D03*
X011413Y010775D03*
X011413Y010780D03*
X011413Y010785D03*
X011413Y010790D03*
X011413Y010795D03*
X011413Y010800D03*
X011413Y010805D03*
X011413Y010810D03*
X011413Y010815D03*
X011413Y010820D03*
X011413Y010825D03*
X011413Y010830D03*
X011413Y010835D03*
X011413Y010840D03*
X011413Y010845D03*
X011413Y010850D03*
X011413Y010855D03*
X011413Y010860D03*
X011413Y010865D03*
X011413Y010870D03*
X011623Y010945D03*
X011623Y010950D03*
X011868Y010960D03*
X010768Y010800D03*
X010768Y010795D03*
X010763Y010830D03*
X010758Y010845D03*
X010633Y010980D03*
X010538Y010875D03*
X010538Y010870D03*
X010533Y010855D03*
X010533Y010850D03*
X010533Y010845D03*
X010533Y010840D03*
X010533Y010835D03*
X010533Y010830D03*
X010533Y010825D03*
X010533Y010820D03*
X010533Y010815D03*
X010533Y010810D03*
X010533Y010805D03*
X010533Y010800D03*
X010533Y010795D03*
X010533Y010790D03*
X010548Y010585D03*
X010133Y010500D03*
X010133Y010360D03*
X010133Y010350D03*
X010133Y010340D03*
X010133Y010335D03*
X010133Y010330D03*
X009683Y010590D03*
X009683Y010595D03*
X009683Y010600D03*
X009683Y010605D03*
X009683Y010610D03*
X009683Y010615D03*
X009683Y010620D03*
X009683Y010625D03*
X009683Y010630D03*
X009683Y010635D03*
X009683Y010640D03*
X009683Y010645D03*
X009683Y010650D03*
X009683Y010655D03*
X009683Y010660D03*
X009683Y010665D03*
X009683Y010670D03*
X009683Y010675D03*
X009683Y010680D03*
X009683Y010685D03*
X009683Y010690D03*
X009683Y010695D03*
X009683Y010700D03*
X009683Y010705D03*
X009683Y010710D03*
X009683Y010715D03*
X009683Y010720D03*
X009683Y010725D03*
X009683Y010730D03*
X009683Y010735D03*
X009683Y010740D03*
X009683Y010745D03*
X009683Y010750D03*
X009683Y010755D03*
X009683Y010760D03*
X009683Y010765D03*
X009683Y010770D03*
X009683Y010775D03*
X009683Y010780D03*
X009683Y010785D03*
X009683Y010790D03*
X009683Y010795D03*
X009683Y010800D03*
X009683Y010805D03*
X009683Y010810D03*
X009683Y010815D03*
X009683Y010820D03*
X009683Y010825D03*
X009683Y010830D03*
X009683Y010835D03*
X009683Y010840D03*
X009683Y010845D03*
X009683Y010850D03*
X009683Y010855D03*
X009683Y010860D03*
X009683Y010865D03*
X009683Y010870D03*
X009683Y010875D03*
X009683Y010880D03*
X009683Y010885D03*
X009683Y010890D03*
X009683Y010895D03*
X009683Y010900D03*
X009683Y010905D03*
X009683Y010910D03*
X009683Y010915D03*
X009683Y010920D03*
X009683Y010925D03*
X009683Y010930D03*
X009683Y010935D03*
X009683Y010940D03*
X009683Y010945D03*
X009683Y010950D03*
X009683Y010955D03*
X009683Y010960D03*
X009683Y010965D03*
X009683Y010970D03*
X009683Y010975D03*
X009683Y010980D03*
X009683Y010985D03*
X009683Y010990D03*
X009683Y010995D03*
X009683Y011000D03*
X009683Y011005D03*
X009683Y011010D03*
X009683Y011015D03*
X009683Y011020D03*
X009683Y011025D03*
X009683Y011030D03*
X009683Y011035D03*
X009683Y011040D03*
X009683Y011045D03*
X009683Y011050D03*
X009683Y011055D03*
X009683Y011060D03*
X009683Y011065D03*
X009683Y011070D03*
X009683Y011075D03*
X009683Y011080D03*
X009683Y011085D03*
X009683Y011090D03*
X009683Y011095D03*
X009683Y011100D03*
X009683Y011105D03*
X009683Y011110D03*
X009683Y011115D03*
X009683Y011135D03*
X009683Y011140D03*
X009683Y011150D03*
X009683Y011175D03*
X009683Y011180D03*
X009473Y010895D03*
X009293Y010875D03*
X009118Y010960D03*
X009088Y010860D03*
X009083Y010845D03*
X009078Y010830D03*
X009073Y010815D03*
X009073Y010810D03*
X009068Y010795D03*
X009063Y010780D03*
X009063Y010775D03*
X009058Y010765D03*
X009058Y010760D03*
X009053Y010750D03*
X009053Y010745D03*
X009053Y010740D03*
X009048Y010735D03*
X009048Y010730D03*
X009048Y010725D03*
X009048Y010720D03*
X009043Y010715D03*
X009043Y010710D03*
X009043Y010705D03*
X009038Y010690D03*
X008983Y010545D03*
X008983Y010540D03*
X008988Y010535D03*
X008988Y010530D03*
X008988Y010525D03*
X008993Y010515D03*
X008993Y010510D03*
X008998Y010500D03*
X009043Y010405D03*
X008738Y010345D03*
X008683Y010275D03*
X008478Y010390D03*
X008473Y010395D03*
X008468Y010400D03*
X008468Y010405D03*
X008463Y010410D03*
X008443Y010455D03*
X008443Y010460D03*
X008443Y010470D03*
X008443Y010485D03*
X008283Y010530D03*
X008283Y010535D03*
X008283Y010540D03*
X008278Y010600D03*
X008278Y010815D03*
X008278Y010820D03*
X008278Y010825D03*
X008278Y010830D03*
X008278Y010835D03*
X008278Y010840D03*
X008278Y010845D03*
X008278Y010850D03*
X008278Y010855D03*
X008278Y010860D03*
X008278Y010865D03*
X008278Y010870D03*
X008483Y010845D03*
X008483Y010840D03*
X008483Y010835D03*
X008483Y010830D03*
X008483Y010825D03*
X008483Y010820D03*
X008483Y010815D03*
X008483Y010810D03*
X008483Y010805D03*
X008483Y010800D03*
X008483Y010795D03*
X008483Y010790D03*
X008483Y010785D03*
X008483Y010780D03*
X008483Y010775D03*
X008488Y010765D03*
X008488Y010760D03*
X008488Y010755D03*
X008493Y010750D03*
X008493Y010745D03*
X008498Y010740D03*
X008488Y010855D03*
X008488Y010860D03*
X008488Y010865D03*
X008493Y010870D03*
X008493Y010875D03*
X008498Y010885D03*
X008693Y010905D03*
X008698Y010900D03*
X008698Y010895D03*
X008703Y010890D03*
X008703Y010885D03*
X008708Y010875D03*
X008708Y010870D03*
X008713Y010860D03*
X008713Y010855D03*
X008713Y010850D03*
X008713Y010845D03*
X008713Y010840D03*
X008713Y010835D03*
X008713Y010830D03*
X008713Y010825D03*
X008713Y010815D03*
X008888Y010850D03*
X008888Y010855D03*
X008888Y010860D03*
X008888Y010865D03*
X008883Y010870D03*
X008883Y010875D03*
X008883Y010880D03*
X008883Y010885D03*
X008878Y010890D03*
X008878Y010895D03*
X008878Y010900D03*
X008878Y010905D03*
X008873Y010910D03*
X008873Y010915D03*
X008873Y010920D03*
X008873Y010925D03*
X008868Y010930D03*
X008868Y010935D03*
X008868Y010940D03*
X008868Y010945D03*
X008868Y010950D03*
X008893Y010845D03*
X008893Y010840D03*
X008893Y010835D03*
X008898Y010825D03*
X008898Y010820D03*
X008898Y010815D03*
X008903Y010800D03*
X008908Y010780D03*
X008713Y010625D03*
X009293Y010625D03*
X009293Y010630D03*
X009293Y010635D03*
X009293Y010640D03*
X009293Y010645D03*
X009293Y010650D03*
X009293Y010655D03*
X009293Y010660D03*
X009293Y010670D03*
X009293Y010620D03*
X009293Y010615D03*
X009293Y010610D03*
X009508Y010645D03*
X009508Y010650D03*
X009508Y010655D03*
X009983Y010980D03*
X010133Y010855D03*
X010628Y012130D03*
X009703Y012710D03*
X009353Y012630D03*
X009353Y012625D03*
X009353Y012620D03*
X009353Y012615D03*
X009348Y012600D03*
X009348Y012595D03*
X011858Y012710D03*
X007543Y010960D03*
X007533Y010890D03*
X007533Y010885D03*
X007543Y010680D03*
X007453Y010510D03*
X007303Y010615D03*
X007303Y010620D03*
X007303Y010625D03*
X007303Y010630D03*
X007303Y010635D03*
X007303Y010640D03*
X007303Y010645D03*
X007303Y010650D03*
X007303Y010655D03*
X007303Y010660D03*
X007303Y010665D03*
X007303Y010670D03*
X007303Y010675D03*
X007303Y010680D03*
X007303Y010685D03*
X007303Y010690D03*
X007303Y010695D03*
X007303Y010700D03*
X007303Y010705D03*
X007303Y010710D03*
X007303Y010715D03*
X007303Y010720D03*
X007303Y010725D03*
X007303Y010730D03*
X007303Y010735D03*
X007303Y010740D03*
X007303Y010745D03*
X007303Y010750D03*
X007303Y010755D03*
X007303Y010760D03*
X007303Y010765D03*
X007303Y010770D03*
X007303Y010775D03*
X007303Y010780D03*
X007303Y010785D03*
X007303Y010790D03*
X007303Y010795D03*
X007303Y010800D03*
X007303Y010805D03*
X007303Y010810D03*
X007303Y010815D03*
X007303Y010820D03*
X007303Y010825D03*
X007303Y010830D03*
X007303Y010835D03*
X007303Y010840D03*
X007303Y010845D03*
X007303Y010850D03*
X007303Y010855D03*
X007303Y010860D03*
X007303Y010865D03*
X007303Y010875D03*
X007303Y010885D03*
X007298Y010955D03*
X007093Y010550D03*
X007093Y010545D03*
X007093Y010540D03*
X007093Y010535D03*
X006848Y010535D03*
X006848Y010530D03*
X006848Y010525D03*
X006408Y010610D03*
X006408Y010615D03*
X006408Y010635D03*
X006408Y011160D03*
X006408Y011170D03*
D21*
X006940Y010970D03*
X007450Y010520D03*
X007870Y010515D03*
X008480Y010900D03*
X008985Y010620D03*
X008985Y010615D03*
X009105Y010360D03*
X008675Y010280D03*
X009985Y010970D03*
X011085Y010585D03*
X011830Y010585D03*
X012265Y010575D03*
X012525Y010710D03*
X012530Y010715D03*
X012535Y010720D03*
X012610Y010785D03*
X013160Y010970D03*
X013945Y010905D03*
X014010Y010970D03*
X014490Y010515D03*
X014565Y010575D03*
X015115Y010970D03*
X014350Y012200D03*
X014350Y012205D03*
X014020Y012205D03*
X013650Y012275D03*
X013650Y012280D03*
X013340Y012225D03*
X013340Y012220D03*
X013295Y012145D03*
X012995Y012210D03*
X012650Y012250D03*
X012650Y012255D03*
X012650Y012260D03*
X012650Y012665D03*
X012650Y012670D03*
X012995Y012690D03*
X013340Y012665D03*
X013340Y012660D03*
X013340Y012655D03*
X013650Y012685D03*
X013650Y012690D03*
X014000Y012690D03*
X014355Y012725D03*
X014355Y012730D03*
X012125Y012765D03*
X011815Y012200D03*
X010620Y012095D03*
X010375Y012220D03*
X010360Y012375D03*
X010040Y012180D03*
X009730Y012205D03*
X009315Y012495D03*
X009365Y012730D03*
D22*
X009708Y012685D03*
X010058Y012760D03*
X010058Y012765D03*
X010383Y012675D03*
X010618Y012085D03*
X009713Y012240D03*
X009713Y012245D03*
X009408Y012155D03*
X008623Y010665D03*
X007863Y010965D03*
X008673Y010285D03*
X010633Y010520D03*
X010998Y010520D03*
X010988Y010965D03*
X012183Y010965D03*
X012563Y010965D03*
X013593Y010520D03*
X013283Y012115D03*
X012998Y012235D03*
X012668Y012185D03*
X012993Y012665D03*
X012683Y012755D03*
X012683Y012760D03*
X012678Y012750D03*
X013323Y012730D03*
X013323Y012725D03*
X013668Y012750D03*
X014003Y012675D03*
X014368Y012680D03*
X014668Y012770D03*
X014978Y012665D03*
X014978Y012660D03*
X014688Y012165D03*
X014688Y012160D03*
X014368Y012260D03*
X014368Y012265D03*
X014018Y012230D03*
X013668Y012205D03*
X013668Y012200D03*
X011868Y012620D03*
X011868Y012625D03*
X011868Y012630D03*
D23*
X011873Y012575D03*
X011873Y012570D03*
X011873Y012565D03*
X011873Y012560D03*
X011873Y012555D03*
X011873Y012550D03*
X011878Y012540D03*
X011878Y012535D03*
X011878Y012530D03*
X011878Y012525D03*
X012688Y012775D03*
X012993Y012645D03*
X013313Y012755D03*
X013678Y012775D03*
X014378Y012650D03*
X014378Y012645D03*
X014668Y012785D03*
X014973Y012640D03*
X014973Y012635D03*
X014688Y012145D03*
X014378Y012295D03*
X014008Y012270D03*
X014008Y012265D03*
X013678Y012170D03*
X012998Y012255D03*
X012678Y012155D03*
X012563Y010960D03*
X012183Y010960D03*
X012193Y010530D03*
X011768Y010535D03*
X010633Y010525D03*
X009988Y010955D03*
X008603Y010680D03*
X008668Y010290D03*
X007448Y010535D03*
X006943Y010955D03*
X009293Y012455D03*
X009703Y012285D03*
X009703Y012280D03*
X009703Y012665D03*
X010068Y012795D03*
X010618Y012080D03*
X013168Y010955D03*
X013593Y010525D03*
X014013Y010955D03*
X015118Y010955D03*
X015528Y010780D03*
D24*
X014688Y012130D03*
X014388Y012325D03*
X014388Y012330D03*
X014388Y012615D03*
X014668Y012800D03*
X014968Y012615D03*
X013998Y012625D03*
X013998Y012630D03*
X013998Y012635D03*
X013998Y012335D03*
X013998Y012330D03*
X013998Y012325D03*
X013998Y012320D03*
X013688Y012145D03*
X012998Y012285D03*
X012993Y012615D03*
X012993Y012620D03*
X013303Y012775D03*
X013688Y012795D03*
X012688Y012785D03*
X012688Y012135D03*
X013598Y010945D03*
X013593Y010530D03*
X012193Y010535D03*
X011353Y010895D03*
X011353Y010900D03*
X010988Y010950D03*
X010638Y010945D03*
X010633Y010530D03*
X011003Y010535D03*
X009353Y010775D03*
X009383Y010955D03*
X008598Y010690D03*
X008218Y010895D03*
X008218Y010900D03*
X008668Y010295D03*
X006468Y010975D03*
X009283Y012435D03*
X009423Y012120D03*
X009693Y012335D03*
X009693Y012340D03*
X009693Y012345D03*
X009693Y012350D03*
X009693Y012610D03*
X009693Y012615D03*
X009693Y012620D03*
X009693Y012625D03*
X010078Y012815D03*
D25*
X010085Y012825D03*
X009685Y012540D03*
X009685Y012535D03*
X009685Y012530D03*
X009685Y012525D03*
X009685Y012520D03*
X009685Y012515D03*
X009685Y012510D03*
X009685Y012505D03*
X009685Y012500D03*
X009685Y012495D03*
X009685Y012490D03*
X009685Y012485D03*
X009685Y012480D03*
X009685Y012475D03*
X009685Y012470D03*
X009685Y012465D03*
X009685Y012460D03*
X009685Y012455D03*
X009685Y012450D03*
X009685Y012445D03*
X009685Y012440D03*
X009685Y012435D03*
X009275Y012425D03*
X009425Y012115D03*
X009365Y012790D03*
X011805Y012220D03*
X012095Y012820D03*
X012695Y012120D03*
X012995Y012310D03*
X012995Y012315D03*
X012995Y012320D03*
X012995Y012575D03*
X012995Y012580D03*
X012995Y012585D03*
X012995Y012590D03*
X012995Y012595D03*
X013295Y012790D03*
X013695Y012805D03*
X013990Y012570D03*
X013990Y012565D03*
X013990Y012560D03*
X013990Y012555D03*
X013990Y012550D03*
X013990Y012545D03*
X013990Y012540D03*
X013990Y012535D03*
X013990Y012530D03*
X013990Y012525D03*
X013990Y012520D03*
X013990Y012515D03*
X013990Y012510D03*
X013990Y012505D03*
X013990Y012500D03*
X013990Y012495D03*
X013990Y012490D03*
X013990Y012485D03*
X013990Y012480D03*
X013990Y012475D03*
X013990Y012470D03*
X013990Y012465D03*
X013990Y012460D03*
X013990Y012455D03*
X013990Y012450D03*
X013990Y012445D03*
X013990Y012440D03*
X013990Y012435D03*
X013990Y012430D03*
X013990Y012425D03*
X013990Y012420D03*
X013990Y012415D03*
X013990Y012410D03*
X013990Y012405D03*
X013990Y012400D03*
X013690Y012135D03*
X014395Y012355D03*
X014395Y012590D03*
X014665Y012810D03*
X014480Y010945D03*
X015545Y010765D03*
X015570Y010950D03*
X012565Y010945D03*
X011350Y010930D03*
X011350Y010925D03*
X011350Y010920D03*
X011345Y010945D03*
X010990Y010945D03*
X009385Y010950D03*
X008600Y010695D03*
X008660Y010300D03*
X008215Y010915D03*
X008215Y010920D03*
X008215Y010925D03*
X008215Y010930D03*
X006475Y010970D03*
D26*
X006483Y010960D03*
X007863Y010940D03*
X008658Y010305D03*
X010638Y010930D03*
X010998Y010930D03*
X011003Y010920D03*
X011008Y010555D03*
X011008Y010550D03*
X012193Y010550D03*
X012183Y010940D03*
X012573Y010930D03*
X012573Y010925D03*
X012578Y010920D03*
X012578Y010915D03*
X012598Y010545D03*
X013598Y010930D03*
X014083Y010520D03*
X014483Y010940D03*
X015553Y010755D03*
X014688Y012105D03*
X014403Y012380D03*
X014403Y012385D03*
X014403Y012565D03*
X014968Y012585D03*
X013703Y012815D03*
X013288Y012800D03*
X012998Y012540D03*
X012998Y012535D03*
X012998Y012530D03*
X012998Y012375D03*
X012998Y012370D03*
X012998Y012365D03*
X012998Y012360D03*
X012688Y012795D03*
X012093Y012825D03*
X011803Y012225D03*
X010848Y012205D03*
X009268Y012410D03*
D27*
X009268Y012405D03*
X009428Y012105D03*
X010003Y012070D03*
X010098Y012835D03*
X012233Y012690D03*
X012283Y012470D03*
X012283Y012465D03*
X012283Y012460D03*
X012283Y012455D03*
X012283Y012450D03*
X012283Y012445D03*
X012283Y012440D03*
X012283Y012435D03*
X012283Y012430D03*
X012283Y012425D03*
X012283Y012420D03*
X012283Y012415D03*
X012283Y012410D03*
X012283Y012405D03*
X012283Y012400D03*
X012283Y012395D03*
X012283Y012390D03*
X012283Y012385D03*
X012708Y012100D03*
X013283Y012805D03*
X013708Y012820D03*
X014408Y012550D03*
X014408Y012545D03*
X014408Y012400D03*
X014408Y012395D03*
X014688Y012095D03*
X014968Y012580D03*
X015648Y013085D03*
X015648Y013090D03*
X015648Y013095D03*
X015648Y013100D03*
X013698Y012115D03*
X013598Y010920D03*
X014078Y010525D03*
X014483Y010935D03*
X015573Y010935D03*
X015573Y010940D03*
X015558Y010745D03*
X012593Y010555D03*
X012193Y010555D03*
X012183Y010935D03*
X011008Y010910D03*
X011008Y010560D03*
X010638Y010920D03*
X009393Y010935D03*
X009373Y010750D03*
X008633Y010595D03*
X008598Y010710D03*
X008658Y010310D03*
X007863Y010935D03*
X006488Y010955D03*
D28*
X007863Y010930D03*
X008598Y010715D03*
X008653Y010315D03*
X009378Y010740D03*
X009388Y010905D03*
X009388Y010910D03*
X009388Y010915D03*
X009393Y010925D03*
X010043Y010535D03*
X010638Y010555D03*
X010638Y010560D03*
X010683Y010720D03*
X011013Y010570D03*
X012193Y010560D03*
X012183Y010930D03*
X012583Y010575D03*
X013598Y010560D03*
X013598Y010555D03*
X013643Y010720D03*
X014073Y010535D03*
X014488Y010560D03*
X014483Y010930D03*
X015568Y010910D03*
X015568Y010905D03*
X015573Y010920D03*
X015573Y010925D03*
X015573Y010930D03*
X015563Y010735D03*
X015643Y012105D03*
X015643Y012110D03*
X015643Y012115D03*
X015643Y012120D03*
X015643Y012125D03*
X015643Y012130D03*
X014973Y012575D03*
X014413Y012535D03*
X014413Y012530D03*
X014413Y012415D03*
X013698Y012110D03*
X013713Y012825D03*
X012718Y012090D03*
X012278Y012295D03*
X012278Y012300D03*
X012278Y012305D03*
X012278Y012310D03*
X012278Y012315D03*
X012278Y012320D03*
X012278Y012325D03*
X012278Y012535D03*
X012278Y012540D03*
X012278Y012545D03*
X012278Y012550D03*
X012278Y012555D03*
X012278Y012560D03*
X012278Y012565D03*
X012238Y012685D03*
X009428Y012100D03*
X009263Y012400D03*
X008713Y012315D03*
X008713Y012310D03*
X008713Y012305D03*
X008713Y012300D03*
X008713Y012295D03*
X008713Y012290D03*
X008713Y012285D03*
X008713Y012280D03*
X008713Y012275D03*
X008713Y012270D03*
X008713Y012265D03*
X008713Y012260D03*
X008713Y012255D03*
X008713Y012250D03*
X008713Y012245D03*
X015643Y013105D03*
D29*
X014670Y012635D03*
X013320Y010960D03*
X013485Y010595D03*
X014170Y010320D03*
X012690Y010595D03*
X011770Y010505D03*
X011420Y010960D03*
X011285Y010980D03*
X010900Y010895D03*
X010525Y010595D03*
X008645Y010470D03*
X008285Y010960D03*
X007445Y010505D03*
X007295Y010530D03*
X007270Y010975D03*
X007100Y010960D03*
X009785Y012825D03*
X011860Y012725D03*
X011825Y012190D03*
D30*
X010278Y012085D03*
X010143Y010960D03*
X010138Y010320D03*
X009493Y010880D03*
X008648Y010465D03*
X008148Y010980D03*
X011618Y010530D03*
X011858Y010980D03*
X014168Y010960D03*
X015673Y010880D03*
X014688Y012290D03*
X014688Y012295D03*
X014668Y012640D03*
X013998Y012715D03*
D31*
X013718Y012830D03*
X014418Y012515D03*
X014418Y012435D03*
X014418Y012430D03*
X014663Y012830D03*
X013698Y012105D03*
X013263Y012075D03*
X012723Y012085D03*
X012273Y012255D03*
X012273Y012260D03*
X012273Y012265D03*
X012273Y012270D03*
X012273Y012595D03*
X012273Y012600D03*
X012273Y012605D03*
X012273Y012610D03*
X010108Y012840D03*
X009258Y012390D03*
X008718Y012355D03*
X008718Y012350D03*
X008718Y012345D03*
X008718Y012215D03*
X008718Y012210D03*
X008718Y012205D03*
X008538Y010965D03*
X008623Y010590D03*
X008648Y010320D03*
X007868Y010565D03*
X007863Y010925D03*
X006498Y010940D03*
X009383Y010730D03*
X010038Y010545D03*
X010643Y010570D03*
X012193Y010565D03*
X013603Y010570D03*
X013603Y010575D03*
X014068Y010540D03*
X014488Y010565D03*
X014483Y010925D03*
D32*
X014165Y010325D03*
X013320Y010520D03*
X012190Y010505D03*
X011615Y010970D03*
X011285Y010975D03*
X010915Y010905D03*
X010920Y010580D03*
X010135Y010325D03*
X009480Y010890D03*
X009115Y010970D03*
X008660Y010440D03*
X008150Y010975D03*
X007290Y010970D03*
X007100Y010520D03*
X006850Y010520D03*
X010280Y012075D03*
X010630Y012140D03*
X010630Y012145D03*
X014020Y012185D03*
X014690Y012260D03*
X014985Y012175D03*
X014990Y012165D03*
X015025Y012085D03*
X013995Y012710D03*
X015660Y010890D03*
X015275Y010520D03*
X015025Y010520D03*
D33*
X015270Y010965D03*
X015280Y010965D03*
X015110Y010985D03*
X015525Y010985D03*
X015570Y010985D03*
X015685Y010870D03*
X015605Y010505D03*
X015520Y011375D03*
X014465Y010985D03*
X013605Y010985D03*
X013630Y010710D03*
X013590Y010585D03*
X013315Y010965D03*
X013155Y010985D03*
X012585Y010985D03*
X012545Y010985D03*
X012180Y010910D03*
X012170Y010985D03*
X012160Y010985D03*
X011745Y010585D03*
X011260Y010890D03*
X011250Y010890D03*
X010960Y010985D03*
X010645Y010985D03*
X010670Y010710D03*
X010630Y010585D03*
X010970Y010580D03*
X009670Y011200D03*
X009390Y010985D03*
X009345Y010985D03*
X009270Y010505D03*
X009100Y010325D03*
X008435Y010895D03*
X008425Y010895D03*
X008415Y010895D03*
X008580Y010985D03*
X008615Y010985D03*
X007840Y010985D03*
X007300Y010975D03*
X007100Y010965D03*
X007090Y010965D03*
X006825Y010515D03*
X006540Y010985D03*
X006385Y011200D03*
X006375Y011200D03*
X006365Y011200D03*
X007860Y010575D03*
X009805Y012805D03*
X012450Y012785D03*
X012640Y010505D03*
D34*
X012185Y010920D03*
X013605Y010580D03*
X014065Y010545D03*
X014490Y010570D03*
X014480Y010920D03*
X012270Y012240D03*
X012270Y012245D03*
X012270Y012250D03*
X012270Y012615D03*
X012270Y012620D03*
X012270Y012625D03*
X012270Y012630D03*
X012255Y012670D03*
X012250Y012675D03*
X012685Y012805D03*
X013270Y012820D03*
X014420Y012510D03*
X014420Y012505D03*
X014420Y012445D03*
X014420Y012440D03*
X015635Y013110D03*
X010645Y010580D03*
X010645Y010575D03*
X010035Y010550D03*
X008645Y010325D03*
X007870Y010570D03*
X007860Y010920D03*
X006500Y010935D03*
X008720Y012195D03*
X008720Y012200D03*
X008720Y012360D03*
X008720Y012365D03*
D35*
X009045Y012715D03*
X009760Y012840D03*
X010630Y012135D03*
X011620Y010960D03*
X011620Y010955D03*
X011420Y010525D03*
X013070Y010525D03*
X013320Y010525D03*
X013160Y010980D03*
X014160Y010330D03*
X015270Y010530D03*
X015455Y010520D03*
X015605Y010510D03*
X014980Y012190D03*
X014980Y012195D03*
X014690Y012250D03*
X014320Y012095D03*
X012995Y012185D03*
X009425Y010510D03*
X009275Y010520D03*
X009040Y010410D03*
X009035Y010415D03*
X009030Y010425D03*
X009025Y010430D03*
X009025Y010435D03*
X009020Y010440D03*
X009020Y010445D03*
X009015Y010450D03*
X009015Y010455D03*
X009010Y010465D03*
X009005Y010475D03*
X009005Y010480D03*
X009000Y010485D03*
X009000Y010490D03*
X009000Y010495D03*
X008995Y010505D03*
X008990Y010520D03*
X009035Y010675D03*
X009035Y010680D03*
X009035Y010685D03*
X009040Y010695D03*
X009040Y010700D03*
X008935Y010680D03*
X008930Y010695D03*
X008925Y010715D03*
X008920Y010730D03*
X008920Y010735D03*
X008915Y010745D03*
X008915Y010750D03*
X008915Y010755D03*
X008910Y010765D03*
X008910Y010770D03*
X008910Y010775D03*
X008905Y010785D03*
X008905Y010790D03*
X008905Y010795D03*
X008900Y010805D03*
X008900Y010810D03*
X008895Y010830D03*
X008865Y010955D03*
X008865Y010960D03*
X008705Y010880D03*
X008710Y010865D03*
X008685Y010655D03*
X008690Y010650D03*
X008695Y010645D03*
X008700Y010640D03*
X008705Y010635D03*
X008710Y010630D03*
X008670Y010430D03*
X008675Y010425D03*
X008680Y010420D03*
X008685Y010415D03*
X008690Y010410D03*
X008715Y010385D03*
X008730Y010365D03*
X008735Y010355D03*
X008460Y010415D03*
X008455Y010420D03*
X008455Y010425D03*
X008450Y010430D03*
X008450Y010435D03*
X008445Y010440D03*
X008445Y010445D03*
X008445Y010450D03*
X008440Y010465D03*
X008440Y010475D03*
X008285Y010525D03*
X008485Y010770D03*
X007300Y010950D03*
X007295Y010960D03*
X007095Y010530D03*
X006390Y010520D03*
X006520Y010980D03*
X006405Y011175D03*
X006405Y011180D03*
D36*
X007103Y010950D03*
X007108Y010515D03*
X006538Y010505D03*
X008298Y010515D03*
X008653Y010455D03*
X009108Y010330D03*
X009488Y010885D03*
X010143Y010955D03*
X010278Y012080D03*
X010388Y012190D03*
X010638Y012170D03*
X010638Y012165D03*
X009738Y012180D03*
X009123Y012185D03*
X009703Y012715D03*
X011858Y012720D03*
X012488Y010905D03*
X014688Y012270D03*
X014688Y012275D03*
X015003Y012135D03*
X015003Y012130D03*
X015003Y012125D03*
X015008Y012120D03*
X015008Y012115D03*
X015013Y012105D03*
X014668Y012660D03*
X015668Y010885D03*
X015283Y010515D03*
D37*
X015550Y010535D03*
X014060Y010555D03*
X012185Y010915D03*
X012265Y012210D03*
X012265Y012215D03*
X012265Y012220D03*
X012265Y012650D03*
X012265Y012655D03*
X013725Y012835D03*
X014235Y012820D03*
X014425Y012490D03*
X014425Y012460D03*
X014425Y012455D03*
X013700Y012100D03*
X010000Y012065D03*
X009250Y012380D03*
X008725Y012380D03*
X008725Y012385D03*
X008725Y012175D03*
X008725Y012740D03*
X008725Y012745D03*
X008725Y012750D03*
X008725Y012755D03*
X008725Y012780D03*
X006505Y010925D03*
X006505Y010920D03*
X008555Y010540D03*
X008640Y010330D03*
X009370Y010540D03*
X010030Y010560D03*
D38*
X009663Y010520D03*
X009108Y010335D03*
X009033Y010420D03*
X009013Y010460D03*
X009008Y010470D03*
X008938Y010675D03*
X008933Y010685D03*
X008933Y010690D03*
X008928Y010700D03*
X008928Y010705D03*
X008928Y010710D03*
X008923Y010720D03*
X008923Y010725D03*
X008918Y010740D03*
X008913Y010760D03*
X008863Y010965D03*
X009118Y010965D03*
X008598Y010980D03*
X008668Y010435D03*
X008698Y010405D03*
X008703Y010400D03*
X008708Y010395D03*
X008713Y010390D03*
X008718Y010380D03*
X008723Y010375D03*
X008728Y010370D03*
X008733Y010360D03*
X008738Y010350D03*
X008288Y010520D03*
X007543Y010965D03*
X007293Y010965D03*
X006938Y010980D03*
X007098Y010525D03*
X006403Y011185D03*
X009683Y011185D03*
X010383Y012195D03*
X010328Y012415D03*
X011858Y012715D03*
X012993Y012715D03*
X014668Y012680D03*
X014668Y012675D03*
X014688Y012255D03*
X014983Y012185D03*
X014983Y012180D03*
X015033Y012080D03*
X015113Y010980D03*
X015273Y010525D03*
X013073Y010520D03*
X011863Y010965D03*
X011618Y010965D03*
X011423Y010520D03*
X010993Y010505D03*
D39*
X010028Y010565D03*
X009373Y010545D03*
X008638Y010335D03*
X008563Y010545D03*
X008608Y010580D03*
X008543Y010955D03*
X008728Y012165D03*
X008728Y012170D03*
X008728Y012390D03*
X008728Y012725D03*
X008728Y012730D03*
X008728Y012735D03*
X008728Y012785D03*
X008728Y012790D03*
X009248Y012375D03*
X006508Y010915D03*
X006488Y010530D03*
X012263Y012200D03*
X012263Y012205D03*
X013263Y012825D03*
X013703Y012095D03*
X014428Y012465D03*
X014428Y012470D03*
X014428Y012480D03*
X014428Y012485D03*
X014683Y012080D03*
X014983Y012570D03*
X015628Y012080D03*
X015628Y013115D03*
X015553Y010540D03*
X014058Y010560D03*
D40*
X014158Y010600D03*
X014353Y010660D03*
X014353Y010665D03*
X014348Y010690D03*
X014348Y010695D03*
X014348Y010700D03*
X014348Y010705D03*
X014343Y010740D03*
X014343Y010745D03*
X014343Y010755D03*
X014348Y010795D03*
X014348Y010800D03*
X014348Y010805D03*
X014348Y010810D03*
X014348Y010815D03*
X014353Y010830D03*
X014353Y010835D03*
X014353Y010840D03*
X014358Y010850D03*
X014358Y010855D03*
X014358Y010860D03*
X014363Y010865D03*
X014363Y010870D03*
X014603Y010870D03*
X014603Y010865D03*
X014608Y010860D03*
X014608Y010855D03*
X014608Y010850D03*
X014613Y010845D03*
X014613Y010840D03*
X014613Y010835D03*
X014618Y010830D03*
X014618Y010825D03*
X014618Y010820D03*
X014618Y010815D03*
X014618Y010810D03*
X014623Y010800D03*
X014623Y010795D03*
X014623Y010790D03*
X014623Y010785D03*
X014623Y010780D03*
X014623Y010775D03*
X014623Y010770D03*
X014623Y010765D03*
X014623Y010760D03*
X014623Y010755D03*
X014623Y010750D03*
X014623Y010745D03*
X014623Y010740D03*
X014623Y010735D03*
X014623Y010730D03*
X014623Y010725D03*
X014623Y010715D03*
X014623Y010710D03*
X014623Y010705D03*
X014623Y010700D03*
X014623Y010695D03*
X014623Y010690D03*
X014623Y010685D03*
X014623Y010680D03*
X014618Y010670D03*
X014618Y010665D03*
X014618Y010660D03*
X014618Y010655D03*
X014613Y010645D03*
X014613Y010640D03*
X014613Y010635D03*
X014608Y010625D03*
X014378Y010600D03*
X014373Y010605D03*
X014368Y010615D03*
X014363Y010630D03*
X013923Y010620D03*
X013918Y010630D03*
X013918Y010635D03*
X013913Y010640D03*
X013913Y010645D03*
X013913Y010650D03*
X013908Y010655D03*
X013908Y010660D03*
X013908Y010665D03*
X013903Y010675D03*
X013903Y010680D03*
X013903Y010685D03*
X013903Y010690D03*
X013898Y010695D03*
X013898Y010700D03*
X013898Y010705D03*
X013898Y010710D03*
X013898Y010715D03*
X013898Y010720D03*
X013898Y010725D03*
X013898Y010735D03*
X013898Y010740D03*
X013893Y010750D03*
X013893Y010755D03*
X013893Y010760D03*
X013893Y010775D03*
X013893Y010780D03*
X013893Y010795D03*
X013898Y010800D03*
X013898Y010805D03*
X013898Y010810D03*
X013898Y010815D03*
X013898Y010820D03*
X013898Y010825D03*
X013898Y010830D03*
X013903Y010845D03*
X013903Y010850D03*
X013703Y010880D03*
X013703Y010885D03*
X013698Y010890D03*
X013508Y010900D03*
X013728Y010665D03*
X013723Y010645D03*
X013718Y010630D03*
X013718Y010625D03*
X013713Y010620D03*
X013073Y010835D03*
X013078Y010865D03*
X013078Y010870D03*
X013078Y010875D03*
X012663Y010875D03*
X012663Y010880D03*
X012663Y010885D03*
X012663Y010870D03*
X012663Y010860D03*
X012663Y010855D03*
X012663Y010850D03*
X012663Y010845D03*
X012563Y010980D03*
X012503Y010910D03*
X012318Y010840D03*
X012318Y010835D03*
X012318Y010830D03*
X012323Y010820D03*
X012323Y010815D03*
X012323Y010810D03*
X012323Y010805D03*
X012323Y010800D03*
X012323Y010795D03*
X012328Y010785D03*
X012328Y010780D03*
X012328Y010775D03*
X012328Y010770D03*
X012328Y010765D03*
X012328Y010760D03*
X012328Y010755D03*
X012328Y010750D03*
X012328Y010745D03*
X012328Y010740D03*
X012328Y010735D03*
X012328Y010730D03*
X012328Y010725D03*
X012328Y010720D03*
X012328Y010715D03*
X012328Y010710D03*
X012328Y010700D03*
X012323Y010690D03*
X012323Y010685D03*
X012323Y010680D03*
X012323Y010675D03*
X012323Y010670D03*
X012323Y010665D03*
X012323Y010660D03*
X012318Y010655D03*
X012318Y010650D03*
X012318Y010645D03*
X012313Y010635D03*
X012313Y010630D03*
X012483Y010630D03*
X012483Y010635D03*
X012483Y010640D03*
X012483Y010645D03*
X012483Y010650D03*
X012483Y010625D03*
X012483Y010620D03*
X012488Y010610D03*
X012488Y010605D03*
X012668Y010580D03*
X012313Y010845D03*
X012313Y010850D03*
X012313Y010855D03*
X012308Y010860D03*
X012308Y010865D03*
X012303Y010875D03*
X012183Y010980D03*
X012068Y010870D03*
X012063Y010860D03*
X012063Y010855D03*
X012058Y010850D03*
X012058Y010845D03*
X012058Y010840D03*
X012053Y010825D03*
X012053Y010820D03*
X012053Y010815D03*
X012053Y010810D03*
X012048Y010795D03*
X012048Y010785D03*
X012048Y010780D03*
X012048Y010775D03*
X012048Y010770D03*
X012048Y010765D03*
X012048Y010760D03*
X012048Y010755D03*
X012048Y010750D03*
X012048Y010745D03*
X012048Y010740D03*
X012048Y010735D03*
X012048Y010730D03*
X012048Y010725D03*
X012048Y010720D03*
X012048Y010715D03*
X012048Y010710D03*
X012053Y010680D03*
X012053Y010675D03*
X012053Y010670D03*
X012058Y010655D03*
X012058Y010650D03*
X012063Y010635D03*
X012068Y010620D03*
X012073Y010610D03*
X012078Y010605D03*
X012078Y010600D03*
X012083Y010595D03*
X011858Y010615D03*
X011858Y010620D03*
X011858Y010810D03*
X011858Y010910D03*
X011628Y010610D03*
X011133Y010665D03*
X011133Y010670D03*
X011133Y010675D03*
X011133Y010680D03*
X011128Y010660D03*
X011128Y010655D03*
X011128Y010650D03*
X011138Y010710D03*
X011138Y010725D03*
X011138Y010730D03*
X011138Y010735D03*
X011138Y010740D03*
X011138Y010745D03*
X011138Y010750D03*
X011138Y010755D03*
X011138Y010760D03*
X011138Y010765D03*
X011133Y010795D03*
X011133Y010800D03*
X011133Y010805D03*
X011128Y010825D03*
X011123Y010840D03*
X011123Y010845D03*
X011118Y010850D03*
X011118Y010855D03*
X011113Y010860D03*
X011113Y010865D03*
X010743Y010880D03*
X010738Y010890D03*
X010768Y010710D03*
X010763Y010645D03*
X010763Y010640D03*
X010758Y010630D03*
X010758Y010625D03*
X010753Y010620D03*
X010538Y010785D03*
X010548Y010900D03*
X010128Y010880D03*
X009878Y010855D03*
X009873Y010840D03*
X009873Y010835D03*
X009873Y010830D03*
X009868Y010815D03*
X009868Y010810D03*
X009868Y010805D03*
X009868Y010800D03*
X009868Y010795D03*
X009868Y010790D03*
X009868Y010785D03*
X009868Y010780D03*
X009868Y010775D03*
X009868Y010770D03*
X009868Y010765D03*
X009868Y010760D03*
X009868Y010755D03*
X009868Y010750D03*
X009868Y010745D03*
X009868Y010740D03*
X009868Y010735D03*
X009868Y010730D03*
X009868Y010725D03*
X009873Y010710D03*
X009873Y010705D03*
X009873Y010700D03*
X009873Y010695D03*
X009873Y010690D03*
X009873Y010685D03*
X009878Y010680D03*
X009878Y010675D03*
X009878Y010670D03*
X009878Y010665D03*
X009883Y010660D03*
X009883Y010655D03*
X009883Y010650D03*
X009888Y010640D03*
X009888Y010635D03*
X009893Y010625D03*
X010128Y010595D03*
X009503Y010600D03*
X009503Y010605D03*
X009498Y010690D03*
X009493Y010695D03*
X009493Y010700D03*
X009488Y010705D03*
X009298Y010600D03*
X009298Y010895D03*
X009368Y010980D03*
X009118Y010950D03*
X009113Y010940D03*
X009113Y010935D03*
X009108Y010925D03*
X009108Y010920D03*
X008688Y010910D03*
X008683Y010915D03*
X008708Y010780D03*
X008708Y010775D03*
X008708Y010770D03*
X008703Y010765D03*
X008703Y010760D03*
X008713Y010615D03*
X008448Y010500D03*
X008443Y010490D03*
X008488Y010380D03*
X008493Y010375D03*
X008498Y010370D03*
X008498Y010895D03*
X008003Y010805D03*
X008003Y010800D03*
X008003Y010795D03*
X008003Y010790D03*
X008003Y010785D03*
X008003Y010780D03*
X008003Y010775D03*
X008003Y010770D03*
X008003Y010765D03*
X008003Y010760D03*
X008003Y010755D03*
X008003Y010750D03*
X008003Y010745D03*
X008003Y010740D03*
X008003Y010735D03*
X008003Y010730D03*
X008003Y010725D03*
X008003Y010715D03*
X008003Y010710D03*
X008003Y010705D03*
X008003Y010700D03*
X008003Y010695D03*
X008003Y010690D03*
X008003Y010685D03*
X008003Y010680D03*
X008003Y010675D03*
X007998Y010670D03*
X007998Y010665D03*
X007998Y010660D03*
X007998Y010655D03*
X007998Y010650D03*
X007993Y010645D03*
X007993Y010640D03*
X007993Y010635D03*
X007988Y010625D03*
X007998Y010815D03*
X007998Y010820D03*
X007998Y010825D03*
X007998Y010830D03*
X007993Y010835D03*
X007993Y010840D03*
X007993Y010845D03*
X007988Y010855D03*
X007988Y010860D03*
X007983Y010865D03*
X007983Y010870D03*
X007748Y010875D03*
X007743Y010865D03*
X007743Y010860D03*
X007738Y010855D03*
X007738Y010850D03*
X007733Y010840D03*
X007733Y010835D03*
X007733Y010830D03*
X007728Y010810D03*
X007728Y010805D03*
X007728Y010800D03*
X007728Y010795D03*
X007728Y010790D03*
X007728Y010785D03*
X007728Y010705D03*
X007728Y010695D03*
X007728Y010690D03*
X007733Y010665D03*
X007738Y010645D03*
X007743Y010630D03*
X007748Y010615D03*
X007753Y010610D03*
X007753Y010605D03*
X007758Y010600D03*
X007538Y010625D03*
X007538Y010630D03*
X007533Y010615D03*
X007533Y010610D03*
X007538Y010765D03*
X007533Y010855D03*
X007533Y010860D03*
X007088Y010875D03*
X006858Y010875D03*
X006858Y010880D03*
X006853Y010860D03*
X006853Y010855D03*
X006853Y010850D03*
X006658Y010815D03*
X006658Y010810D03*
X006658Y010805D03*
X006663Y010790D03*
X006663Y010785D03*
X006663Y010780D03*
X006663Y010775D03*
X006663Y010770D03*
X006663Y010765D03*
X006663Y010760D03*
X006663Y010750D03*
X006663Y010740D03*
X006668Y010730D03*
X006668Y010725D03*
X006668Y010715D03*
X006663Y010705D03*
X006663Y010700D03*
X006663Y010695D03*
X006663Y010690D03*
X006663Y010685D03*
X006663Y010680D03*
X006663Y010675D03*
X006658Y010655D03*
X006653Y010825D03*
X006653Y010830D03*
X006648Y010840D03*
X006648Y010845D03*
X006643Y010850D03*
X006643Y010855D03*
X006638Y010865D03*
X006408Y010900D03*
X006388Y010525D03*
X009108Y010340D03*
X009123Y012190D03*
X009343Y012570D03*
X009343Y012575D03*
X009358Y012655D03*
X009358Y012660D03*
X009358Y012665D03*
X010283Y012070D03*
X010383Y012200D03*
X010628Y012125D03*
X011818Y012195D03*
X011858Y012705D03*
X013998Y012705D03*
X014668Y012695D03*
X014688Y012240D03*
X014688Y012235D03*
X014328Y012125D03*
X014328Y012120D03*
X015033Y010880D03*
X015033Y010875D03*
X015028Y010855D03*
X015263Y010875D03*
X015478Y010890D03*
X015478Y010895D03*
X015673Y010700D03*
X015678Y010695D03*
X015688Y010615D03*
X015683Y010600D03*
X015478Y010600D03*
D41*
X015475Y010605D03*
X015475Y010610D03*
X015475Y010615D03*
X015455Y010525D03*
X015265Y010555D03*
X015265Y010560D03*
X015265Y010565D03*
X015265Y010570D03*
X015265Y010575D03*
X015265Y010580D03*
X015265Y010585D03*
X015265Y010590D03*
X015265Y010595D03*
X015265Y010600D03*
X015265Y010605D03*
X015265Y010610D03*
X015265Y010615D03*
X015265Y010620D03*
X015265Y010625D03*
X015265Y010630D03*
X015265Y010635D03*
X015265Y010640D03*
X015265Y010645D03*
X015265Y010650D03*
X015265Y010655D03*
X015265Y010660D03*
X015265Y010665D03*
X015265Y010670D03*
X015265Y010675D03*
X015265Y010680D03*
X015265Y010685D03*
X015265Y010690D03*
X015265Y010695D03*
X015265Y010700D03*
X015265Y010705D03*
X015265Y010710D03*
X015265Y010715D03*
X015265Y010720D03*
X015265Y010725D03*
X015265Y010730D03*
X015265Y010735D03*
X015265Y010740D03*
X015265Y010745D03*
X015265Y010750D03*
X015265Y010755D03*
X015265Y010760D03*
X015265Y010765D03*
X015265Y010770D03*
X015265Y010775D03*
X015265Y010780D03*
X015265Y010785D03*
X015265Y010790D03*
X015265Y010795D03*
X015265Y010800D03*
X015265Y010805D03*
X015265Y010810D03*
X015265Y010815D03*
X015265Y010820D03*
X015265Y010825D03*
X015265Y010830D03*
X015265Y010835D03*
X015265Y010840D03*
X015265Y010845D03*
X015265Y010850D03*
X015265Y010855D03*
X015265Y010860D03*
X015265Y010865D03*
X015265Y010870D03*
X015475Y010880D03*
X015475Y010885D03*
X015655Y010895D03*
X015680Y010690D03*
X015680Y010685D03*
X015685Y010680D03*
X015685Y010675D03*
X015685Y010670D03*
X015690Y010660D03*
X015690Y010650D03*
X015690Y010645D03*
X015690Y010640D03*
X015690Y010635D03*
X015690Y010630D03*
X015690Y010625D03*
X015690Y010620D03*
X015685Y010610D03*
X015685Y010605D03*
X015025Y010605D03*
X015025Y010610D03*
X015025Y010615D03*
X015025Y010620D03*
X015025Y010625D03*
X015025Y010630D03*
X015025Y010635D03*
X015025Y010640D03*
X015025Y010645D03*
X015025Y010650D03*
X015025Y010655D03*
X015025Y010660D03*
X015025Y010665D03*
X015025Y010670D03*
X015025Y010675D03*
X015025Y010680D03*
X015025Y010685D03*
X015025Y010690D03*
X015025Y010695D03*
X015025Y010700D03*
X015025Y010705D03*
X015025Y010710D03*
X015025Y010715D03*
X015025Y010720D03*
X015025Y010725D03*
X015025Y010730D03*
X015025Y010735D03*
X015025Y010740D03*
X015025Y010745D03*
X015025Y010750D03*
X015025Y010755D03*
X015025Y010760D03*
X015025Y010765D03*
X015025Y010770D03*
X015025Y010775D03*
X015025Y010780D03*
X015025Y010785D03*
X015025Y010790D03*
X015025Y010795D03*
X015025Y010800D03*
X015025Y010805D03*
X015025Y010810D03*
X015025Y010815D03*
X015025Y010820D03*
X015025Y010825D03*
X015025Y010830D03*
X015025Y010835D03*
X015025Y010840D03*
X015025Y010845D03*
X015025Y010850D03*
X015030Y010860D03*
X015030Y010865D03*
X015030Y010870D03*
X015025Y010600D03*
X015025Y010595D03*
X015025Y010590D03*
X015025Y010585D03*
X015025Y010580D03*
X015025Y010575D03*
X015025Y010570D03*
X015025Y010565D03*
X015025Y010560D03*
X015025Y010555D03*
X015025Y010550D03*
X015025Y010545D03*
X015025Y010540D03*
X014625Y010720D03*
X014620Y010805D03*
X014480Y010980D03*
X014355Y010845D03*
X014350Y010825D03*
X014350Y010820D03*
X014345Y010790D03*
X014345Y010785D03*
X014345Y010780D03*
X014345Y010775D03*
X014345Y010770D03*
X014345Y010765D03*
X014345Y010760D03*
X014345Y010750D03*
X014345Y010735D03*
X014345Y010730D03*
X014345Y010725D03*
X014345Y010720D03*
X014345Y010715D03*
X014345Y010710D03*
X014350Y010685D03*
X014350Y010680D03*
X014350Y010675D03*
X014350Y010670D03*
X014355Y010655D03*
X014355Y010650D03*
X014355Y010645D03*
X014360Y010640D03*
X014360Y010635D03*
X014365Y010625D03*
X014365Y010620D03*
X014370Y010610D03*
X014160Y010610D03*
X014160Y010615D03*
X014160Y010620D03*
X014160Y010625D03*
X014160Y010630D03*
X014160Y010635D03*
X014160Y010640D03*
X014160Y010645D03*
X014160Y010650D03*
X014160Y010655D03*
X014160Y010660D03*
X014160Y010665D03*
X014160Y010670D03*
X014160Y010675D03*
X014160Y010680D03*
X014160Y010685D03*
X014160Y010690D03*
X014160Y010695D03*
X014160Y010700D03*
X014160Y010705D03*
X014160Y010710D03*
X014160Y010715D03*
X014160Y010720D03*
X014160Y010725D03*
X014160Y010730D03*
X014160Y010735D03*
X014160Y010740D03*
X014160Y010745D03*
X014160Y010750D03*
X014160Y010755D03*
X014160Y010760D03*
X014160Y010765D03*
X014160Y010770D03*
X014160Y010775D03*
X014160Y010780D03*
X014160Y010785D03*
X014160Y010790D03*
X014160Y010795D03*
X014160Y010800D03*
X014160Y010805D03*
X014160Y010810D03*
X014160Y010815D03*
X014160Y010820D03*
X014160Y010825D03*
X014160Y010830D03*
X014160Y010835D03*
X014160Y010840D03*
X014160Y010845D03*
X014160Y010855D03*
X014160Y010865D03*
X014160Y010870D03*
X014160Y010875D03*
X014160Y010605D03*
X014160Y010515D03*
X014160Y010510D03*
X014160Y010505D03*
X014160Y010500D03*
X014160Y010495D03*
X014160Y010490D03*
X014160Y010485D03*
X014160Y010480D03*
X014160Y010475D03*
X014160Y010470D03*
X014160Y010465D03*
X014160Y010460D03*
X014160Y010455D03*
X014160Y010450D03*
X014160Y010445D03*
X014160Y010440D03*
X014160Y010435D03*
X014160Y010430D03*
X014160Y010425D03*
X014160Y010420D03*
X014160Y010415D03*
X014160Y010410D03*
X014160Y010405D03*
X014160Y010400D03*
X014160Y010395D03*
X014160Y010390D03*
X014160Y010385D03*
X014160Y010380D03*
X014160Y010375D03*
X014160Y010370D03*
X014160Y010360D03*
X013905Y010670D03*
X013895Y010730D03*
X013895Y010745D03*
X013895Y010765D03*
X013895Y010770D03*
X013895Y010790D03*
X013730Y010790D03*
X013730Y010795D03*
X013730Y010785D03*
X013725Y010810D03*
X013725Y010815D03*
X013725Y010820D03*
X013725Y010825D03*
X013720Y010835D03*
X013720Y010840D03*
X013715Y010850D03*
X013715Y010855D03*
X013715Y010860D03*
X013710Y010865D03*
X013710Y010870D03*
X013705Y010875D03*
X013730Y010710D03*
X013730Y010700D03*
X013730Y010695D03*
X013730Y010690D03*
X013730Y010685D03*
X013730Y010680D03*
X013730Y010675D03*
X013730Y010670D03*
X013725Y010660D03*
X013725Y010655D03*
X013725Y010650D03*
X013720Y010640D03*
X013720Y010635D03*
X013495Y010860D03*
X013495Y010865D03*
X013500Y010880D03*
X013500Y010885D03*
X013505Y010890D03*
X013505Y010895D03*
X013310Y010875D03*
X013075Y010860D03*
X013075Y010855D03*
X013075Y010850D03*
X013075Y010845D03*
X013075Y010840D03*
X013070Y010825D03*
X013070Y010820D03*
X013070Y010810D03*
X013070Y010805D03*
X013070Y010800D03*
X013070Y010795D03*
X013070Y010790D03*
X013070Y010785D03*
X013070Y010780D03*
X013070Y010775D03*
X013070Y010770D03*
X013070Y010765D03*
X013070Y010760D03*
X013070Y010755D03*
X013070Y010750D03*
X013070Y010745D03*
X013070Y010740D03*
X013070Y010735D03*
X013070Y010730D03*
X013070Y010725D03*
X013070Y010720D03*
X013070Y010715D03*
X013070Y010710D03*
X013070Y010705D03*
X013070Y010700D03*
X013070Y010695D03*
X013070Y010690D03*
X013070Y010685D03*
X013070Y010680D03*
X013070Y010675D03*
X013070Y010670D03*
X013070Y010665D03*
X013070Y010660D03*
X013070Y010655D03*
X013070Y010650D03*
X013070Y010645D03*
X013070Y010640D03*
X013070Y010635D03*
X013070Y010630D03*
X013070Y010625D03*
X013070Y010620D03*
X013070Y010615D03*
X013070Y010610D03*
X013070Y010605D03*
X013070Y010595D03*
X013070Y010590D03*
X013070Y010585D03*
X013070Y010580D03*
X013070Y010575D03*
X013070Y010570D03*
X013070Y010565D03*
X013070Y010560D03*
X013070Y010555D03*
X013070Y010550D03*
X013070Y010545D03*
X013070Y010540D03*
X013070Y010535D03*
X013070Y010530D03*
X013315Y010540D03*
X013315Y010545D03*
X013315Y010550D03*
X013315Y010555D03*
X013315Y010560D03*
X013315Y010565D03*
X013315Y010575D03*
X012665Y010865D03*
X012485Y010615D03*
X012325Y010695D03*
X012325Y010705D03*
X012325Y010790D03*
X012320Y010825D03*
X012055Y010830D03*
X012055Y010835D03*
X012050Y010805D03*
X012050Y010800D03*
X012050Y010790D03*
X012050Y010705D03*
X012050Y010700D03*
X012050Y010695D03*
X012050Y010690D03*
X012050Y010685D03*
X012055Y010665D03*
X012055Y010660D03*
X012060Y010645D03*
X012060Y010640D03*
X012065Y010630D03*
X012065Y010625D03*
X012070Y010615D03*
X011865Y010650D03*
X011865Y010655D03*
X011865Y010660D03*
X011865Y010665D03*
X011865Y010670D03*
X011865Y010675D03*
X011865Y010680D03*
X011865Y010685D03*
X011865Y010690D03*
X011865Y010695D03*
X011865Y010710D03*
X011860Y010725D03*
X011860Y010730D03*
X011860Y010735D03*
X011860Y010740D03*
X011860Y010745D03*
X011860Y010750D03*
X011860Y010755D03*
X011860Y010760D03*
X011860Y010765D03*
X011860Y010770D03*
X011860Y010775D03*
X011860Y010780D03*
X011860Y010785D03*
X011860Y010790D03*
X011860Y010795D03*
X011860Y010800D03*
X011860Y010805D03*
X011855Y010815D03*
X011855Y010820D03*
X011855Y010825D03*
X011855Y010830D03*
X011855Y010835D03*
X011855Y010840D03*
X011855Y010845D03*
X011855Y010850D03*
X011855Y010855D03*
X011855Y010860D03*
X011855Y010865D03*
X011855Y010870D03*
X011855Y010875D03*
X011855Y010880D03*
X011855Y010885D03*
X011855Y010890D03*
X011855Y010895D03*
X011855Y010900D03*
X011855Y010905D03*
X011860Y010915D03*
X011860Y010920D03*
X011860Y010925D03*
X011860Y010930D03*
X011860Y010935D03*
X011865Y010940D03*
X011865Y010945D03*
X011865Y010950D03*
X011865Y010955D03*
X011625Y010940D03*
X011625Y010935D03*
X011625Y010930D03*
X011625Y010925D03*
X011625Y010920D03*
X011625Y010915D03*
X011625Y010910D03*
X011625Y010905D03*
X011625Y010900D03*
X011625Y010895D03*
X011625Y010890D03*
X011625Y010885D03*
X011625Y010880D03*
X011625Y010875D03*
X011625Y010870D03*
X011625Y010865D03*
X011625Y010860D03*
X011625Y010855D03*
X011625Y010850D03*
X011625Y010845D03*
X011625Y010840D03*
X011625Y010835D03*
X011625Y010830D03*
X011625Y010825D03*
X011625Y010820D03*
X011625Y010815D03*
X011625Y010810D03*
X011625Y010805D03*
X011625Y010800D03*
X011625Y010795D03*
X011625Y010790D03*
X011625Y010785D03*
X011625Y010780D03*
X011625Y010775D03*
X011625Y010770D03*
X011625Y010765D03*
X011625Y010760D03*
X011625Y010755D03*
X011625Y010750D03*
X011625Y010745D03*
X011625Y010740D03*
X011625Y010735D03*
X011625Y010730D03*
X011625Y010725D03*
X011625Y010720D03*
X011625Y010715D03*
X011625Y010710D03*
X011625Y010705D03*
X011625Y010700D03*
X011625Y010695D03*
X011625Y010690D03*
X011625Y010685D03*
X011625Y010680D03*
X011625Y010675D03*
X011625Y010670D03*
X011625Y010665D03*
X011625Y010660D03*
X011625Y010655D03*
X011625Y010650D03*
X011625Y010645D03*
X011625Y010640D03*
X011625Y010635D03*
X011625Y010630D03*
X011625Y010625D03*
X011625Y010620D03*
X011625Y010615D03*
X011415Y010620D03*
X011415Y010625D03*
X011415Y010635D03*
X011415Y010640D03*
X011415Y010610D03*
X011415Y010605D03*
X011415Y010600D03*
X011415Y010595D03*
X011415Y010590D03*
X011415Y010585D03*
X011415Y010580D03*
X011415Y010575D03*
X011415Y010570D03*
X011415Y010565D03*
X011415Y010555D03*
X011415Y010545D03*
X011415Y010540D03*
X011135Y010685D03*
X011135Y010690D03*
X011135Y010695D03*
X011135Y010700D03*
X011135Y010705D03*
X011135Y010715D03*
X011135Y010720D03*
X011135Y010770D03*
X011135Y010775D03*
X011135Y010780D03*
X011135Y010785D03*
X011135Y010790D03*
X011130Y010810D03*
X011130Y010815D03*
X011130Y010820D03*
X011125Y010830D03*
X011125Y010835D03*
X010985Y010980D03*
X010755Y010860D03*
X010755Y010855D03*
X010755Y010850D03*
X010760Y010840D03*
X010760Y010835D03*
X010765Y010825D03*
X010765Y010820D03*
X010765Y010815D03*
X010765Y010810D03*
X010765Y010805D03*
X010770Y010790D03*
X010770Y010785D03*
X010770Y010705D03*
X010770Y010700D03*
X010770Y010695D03*
X010770Y010690D03*
X010770Y010685D03*
X010770Y010680D03*
X010770Y010675D03*
X010770Y010670D03*
X010765Y010665D03*
X010765Y010660D03*
X010765Y010655D03*
X010765Y010650D03*
X010760Y010635D03*
X010750Y010865D03*
X010750Y010870D03*
X010745Y010875D03*
X010740Y010885D03*
X010545Y010890D03*
X010545Y010895D03*
X010540Y010885D03*
X010540Y010880D03*
X010535Y010865D03*
X010535Y010860D03*
X010130Y010860D03*
X010130Y010865D03*
X010130Y010870D03*
X010130Y010875D03*
X010130Y010850D03*
X010130Y010845D03*
X010130Y010840D03*
X010130Y010835D03*
X010130Y010830D03*
X010130Y010825D03*
X010130Y010820D03*
X010130Y010815D03*
X010130Y010810D03*
X010130Y010805D03*
X010130Y010800D03*
X010130Y010795D03*
X010130Y010790D03*
X010130Y010785D03*
X010130Y010780D03*
X010130Y010775D03*
X010130Y010770D03*
X010130Y010765D03*
X010130Y010760D03*
X010130Y010755D03*
X010130Y010750D03*
X010130Y010745D03*
X010130Y010740D03*
X010130Y010735D03*
X010130Y010730D03*
X010130Y010725D03*
X010130Y010720D03*
X010130Y010715D03*
X010130Y010710D03*
X010130Y010705D03*
X010130Y010700D03*
X010130Y010695D03*
X010130Y010690D03*
X010130Y010685D03*
X010130Y010680D03*
X010130Y010675D03*
X010130Y010670D03*
X010130Y010665D03*
X010130Y010660D03*
X010130Y010655D03*
X010130Y010650D03*
X010130Y010645D03*
X010130Y010640D03*
X010130Y010635D03*
X010130Y010630D03*
X010130Y010625D03*
X010130Y010620D03*
X010130Y010615D03*
X010130Y010610D03*
X010130Y010605D03*
X010130Y010600D03*
X010130Y010510D03*
X010130Y010505D03*
X010130Y010495D03*
X010130Y010490D03*
X010130Y010485D03*
X010130Y010480D03*
X010130Y010475D03*
X010130Y010470D03*
X010130Y010465D03*
X010130Y010460D03*
X010130Y010455D03*
X010130Y010450D03*
X010130Y010445D03*
X010130Y010440D03*
X010130Y010435D03*
X010130Y010430D03*
X010130Y010425D03*
X010130Y010420D03*
X010130Y010415D03*
X010130Y010410D03*
X010130Y010405D03*
X010130Y010400D03*
X010130Y010395D03*
X010130Y010390D03*
X010130Y010385D03*
X010130Y010380D03*
X010130Y010375D03*
X010130Y010370D03*
X010130Y010365D03*
X010130Y010355D03*
X010130Y010345D03*
X009870Y010715D03*
X009870Y010720D03*
X009680Y010585D03*
X009680Y010580D03*
X009665Y010525D03*
X009505Y010610D03*
X009505Y010615D03*
X009505Y010620D03*
X009505Y010625D03*
X009510Y010630D03*
X009510Y010635D03*
X009510Y010640D03*
X009505Y010660D03*
X009505Y010665D03*
X009505Y010670D03*
X009505Y010675D03*
X009500Y010680D03*
X009500Y010685D03*
X009290Y010685D03*
X009290Y010690D03*
X009290Y010695D03*
X009290Y010700D03*
X009290Y010705D03*
X009290Y010710D03*
X009290Y010715D03*
X009290Y010720D03*
X009290Y010725D03*
X009290Y010680D03*
X009290Y010675D03*
X009290Y010665D03*
X009295Y010605D03*
X009275Y010525D03*
X009050Y010400D03*
X008985Y010550D03*
X009055Y010755D03*
X009060Y010770D03*
X009065Y010785D03*
X009065Y010790D03*
X009070Y010800D03*
X009070Y010805D03*
X009075Y010820D03*
X009075Y010825D03*
X009080Y010835D03*
X009080Y010840D03*
X009085Y010850D03*
X009085Y010855D03*
X009090Y010865D03*
X009090Y010870D03*
X009090Y010875D03*
X009095Y010880D03*
X009095Y010885D03*
X009095Y010890D03*
X009100Y010895D03*
X009100Y010900D03*
X009100Y010905D03*
X009105Y010910D03*
X009105Y010915D03*
X009110Y010930D03*
X009115Y010945D03*
X009115Y010955D03*
X009295Y010890D03*
X009295Y010885D03*
X009295Y010880D03*
X009290Y010870D03*
X009290Y010865D03*
X009290Y010860D03*
X009290Y010855D03*
X009290Y010850D03*
X009290Y010845D03*
X009290Y010840D03*
X009290Y010835D03*
X009290Y010830D03*
X009290Y010825D03*
X009290Y010820D03*
X009290Y010815D03*
X009290Y010810D03*
X009290Y010805D03*
X009290Y010800D03*
X009290Y010795D03*
X009685Y011120D03*
X009685Y011125D03*
X009685Y011130D03*
X009685Y011145D03*
X009685Y011155D03*
X009685Y011160D03*
X009685Y011165D03*
X009685Y011170D03*
X008715Y010820D03*
X008715Y010810D03*
X008710Y010805D03*
X008710Y010800D03*
X008710Y010795D03*
X008710Y010790D03*
X008710Y010785D03*
X008715Y010620D03*
X008505Y010730D03*
X008500Y010735D03*
X008485Y010850D03*
X008495Y010880D03*
X008500Y010890D03*
X008275Y010875D03*
X008280Y010810D03*
X008280Y010805D03*
X008280Y010800D03*
X008280Y010795D03*
X008280Y010790D03*
X008280Y010785D03*
X008280Y010780D03*
X008280Y010775D03*
X008280Y010770D03*
X008280Y010765D03*
X008280Y010760D03*
X008280Y010755D03*
X008280Y010750D03*
X008280Y010745D03*
X008280Y010740D03*
X008280Y010735D03*
X008280Y010730D03*
X008280Y010725D03*
X008280Y010720D03*
X008280Y010715D03*
X008280Y010710D03*
X008280Y010705D03*
X008280Y010700D03*
X008280Y010695D03*
X008280Y010690D03*
X008280Y010685D03*
X008280Y010680D03*
X008280Y010675D03*
X008280Y010670D03*
X008280Y010665D03*
X008280Y010660D03*
X008280Y010655D03*
X008280Y010650D03*
X008280Y010645D03*
X008280Y010640D03*
X008280Y010635D03*
X008280Y010630D03*
X008280Y010625D03*
X008280Y010620D03*
X008280Y010615D03*
X008280Y010610D03*
X008280Y010605D03*
X008280Y010595D03*
X008280Y010590D03*
X008280Y010585D03*
X008280Y010580D03*
X008280Y010575D03*
X008280Y010570D03*
X008280Y010565D03*
X008280Y010560D03*
X008280Y010555D03*
X008280Y010550D03*
X008280Y010545D03*
X008445Y010495D03*
X008440Y010480D03*
X008480Y010385D03*
X008735Y010340D03*
X008005Y010720D03*
X008000Y010810D03*
X007990Y010850D03*
X007860Y010980D03*
X007735Y010845D03*
X007730Y010825D03*
X007730Y010820D03*
X007730Y010815D03*
X007725Y010780D03*
X007725Y010775D03*
X007725Y010770D03*
X007725Y010765D03*
X007725Y010760D03*
X007725Y010755D03*
X007725Y010750D03*
X007725Y010745D03*
X007725Y010740D03*
X007725Y010735D03*
X007725Y010730D03*
X007725Y010725D03*
X007725Y010720D03*
X007725Y010715D03*
X007725Y010710D03*
X007725Y010700D03*
X007730Y010685D03*
X007730Y010680D03*
X007730Y010675D03*
X007730Y010670D03*
X007735Y010660D03*
X007735Y010655D03*
X007735Y010650D03*
X007740Y010640D03*
X007740Y010635D03*
X007745Y010625D03*
X007745Y010620D03*
X007540Y010635D03*
X007540Y010640D03*
X007540Y010645D03*
X007540Y010650D03*
X007540Y010655D03*
X007540Y010660D03*
X007540Y010665D03*
X007540Y010670D03*
X007540Y010675D03*
X007540Y010685D03*
X007540Y010690D03*
X007540Y010695D03*
X007540Y010700D03*
X007540Y010705D03*
X007540Y010710D03*
X007540Y010715D03*
X007540Y010720D03*
X007540Y010725D03*
X007540Y010730D03*
X007540Y010735D03*
X007540Y010740D03*
X007540Y010745D03*
X007540Y010750D03*
X007540Y010755D03*
X007540Y010760D03*
X007535Y010770D03*
X007535Y010775D03*
X007535Y010780D03*
X007535Y010785D03*
X007535Y010790D03*
X007535Y010795D03*
X007535Y010800D03*
X007535Y010805D03*
X007535Y010810D03*
X007535Y010815D03*
X007535Y010820D03*
X007535Y010825D03*
X007535Y010830D03*
X007535Y010835D03*
X007535Y010840D03*
X007535Y010845D03*
X007535Y010850D03*
X007530Y010865D03*
X007535Y010870D03*
X007530Y010875D03*
X007535Y010880D03*
X007535Y010895D03*
X007535Y010900D03*
X007535Y010905D03*
X007535Y010910D03*
X007535Y010915D03*
X007535Y010920D03*
X007535Y010925D03*
X007540Y010930D03*
X007540Y010935D03*
X007540Y010940D03*
X007540Y010945D03*
X007545Y010950D03*
X007545Y010955D03*
X007300Y010945D03*
X007300Y010940D03*
X007300Y010935D03*
X007300Y010930D03*
X007300Y010925D03*
X007300Y010920D03*
X007300Y010915D03*
X007300Y010910D03*
X007300Y010905D03*
X007300Y010900D03*
X007300Y010895D03*
X007300Y010890D03*
X007300Y010880D03*
X007300Y010870D03*
X007090Y010870D03*
X007090Y010865D03*
X007090Y010860D03*
X007090Y010855D03*
X007090Y010850D03*
X007090Y010845D03*
X007090Y010840D03*
X007090Y010835D03*
X007090Y010830D03*
X007090Y010825D03*
X007090Y010820D03*
X007090Y010815D03*
X007090Y010810D03*
X007090Y010805D03*
X007090Y010800D03*
X007090Y010795D03*
X007090Y010790D03*
X007090Y010785D03*
X007090Y010780D03*
X007090Y010775D03*
X007090Y010770D03*
X007090Y010765D03*
X007090Y010760D03*
X007090Y010755D03*
X007090Y010750D03*
X007090Y010745D03*
X007090Y010740D03*
X007090Y010735D03*
X007090Y010730D03*
X007090Y010725D03*
X007090Y010720D03*
X007090Y010715D03*
X007090Y010710D03*
X007090Y010705D03*
X007090Y010700D03*
X007090Y010695D03*
X007090Y010690D03*
X007090Y010685D03*
X007090Y010680D03*
X007090Y010675D03*
X007090Y010670D03*
X007090Y010665D03*
X007090Y010660D03*
X007090Y010655D03*
X007090Y010650D03*
X007090Y010645D03*
X007090Y010640D03*
X007090Y010635D03*
X007090Y010630D03*
X007090Y010625D03*
X007090Y010620D03*
X007090Y010615D03*
X007090Y010610D03*
X007090Y010605D03*
X007090Y010600D03*
X007090Y010595D03*
X007090Y010590D03*
X007090Y010585D03*
X007090Y010580D03*
X007090Y010575D03*
X007090Y010570D03*
X007090Y010565D03*
X007090Y010560D03*
X007090Y010555D03*
X007305Y010610D03*
X007535Y010620D03*
X006850Y010620D03*
X006850Y010625D03*
X006850Y010630D03*
X006850Y010635D03*
X006850Y010640D03*
X006850Y010645D03*
X006850Y010650D03*
X006850Y010655D03*
X006850Y010660D03*
X006850Y010665D03*
X006850Y010670D03*
X006850Y010675D03*
X006850Y010680D03*
X006850Y010685D03*
X006850Y010690D03*
X006850Y010695D03*
X006850Y010700D03*
X006850Y010705D03*
X006850Y010710D03*
X006850Y010715D03*
X006850Y010720D03*
X006850Y010725D03*
X006850Y010730D03*
X006850Y010735D03*
X006850Y010740D03*
X006850Y010745D03*
X006850Y010750D03*
X006850Y010755D03*
X006850Y010760D03*
X006850Y010765D03*
X006850Y010770D03*
X006850Y010775D03*
X006850Y010780D03*
X006850Y010785D03*
X006850Y010790D03*
X006850Y010795D03*
X006850Y010800D03*
X006850Y010805D03*
X006850Y010810D03*
X006850Y010815D03*
X006850Y010820D03*
X006850Y010825D03*
X006850Y010830D03*
X006850Y010835D03*
X006850Y010840D03*
X006850Y010845D03*
X006855Y010865D03*
X006855Y010870D03*
X006655Y010820D03*
X006650Y010835D03*
X006660Y010800D03*
X006660Y010795D03*
X006665Y010755D03*
X006665Y010745D03*
X006850Y010615D03*
X006850Y010610D03*
X006850Y010605D03*
X006850Y010600D03*
X006850Y010595D03*
X006850Y010590D03*
X006850Y010585D03*
X006850Y010580D03*
X006850Y010575D03*
X006850Y010570D03*
X006850Y010565D03*
X006850Y010560D03*
X006850Y010555D03*
X006850Y010550D03*
X006850Y010545D03*
X006850Y010540D03*
X006540Y010510D03*
X006405Y010605D03*
X006405Y010620D03*
X006405Y010625D03*
X006405Y010630D03*
X006405Y010640D03*
X006405Y010645D03*
X006405Y010650D03*
X006405Y010655D03*
X006405Y010660D03*
X006405Y010665D03*
X006405Y010670D03*
X006405Y010675D03*
X006405Y010680D03*
X006405Y010685D03*
X006405Y010690D03*
X006405Y010695D03*
X006405Y010700D03*
X006405Y010705D03*
X006405Y010710D03*
X006405Y010715D03*
X006405Y010720D03*
X006405Y010725D03*
X006405Y010730D03*
X006405Y010735D03*
X006405Y010740D03*
X006405Y010745D03*
X006405Y010750D03*
X006405Y010755D03*
X006405Y010760D03*
X006405Y010765D03*
X006405Y010770D03*
X006405Y010775D03*
X006405Y010780D03*
X006405Y010785D03*
X006405Y010790D03*
X006405Y010795D03*
X006405Y010800D03*
X006405Y010805D03*
X006405Y010810D03*
X006405Y010815D03*
X006405Y010820D03*
X006405Y010825D03*
X006405Y010830D03*
X006405Y010835D03*
X006405Y010840D03*
X006405Y010845D03*
X006405Y010850D03*
X006405Y010855D03*
X006405Y010860D03*
X006405Y010865D03*
X006405Y010870D03*
X006405Y010875D03*
X006405Y010880D03*
X006405Y010885D03*
X006405Y010890D03*
X006405Y010895D03*
X006405Y010980D03*
X006405Y010985D03*
X006405Y010990D03*
X006405Y010995D03*
X006405Y011000D03*
X006405Y011005D03*
X006405Y011010D03*
X006405Y011015D03*
X006405Y011020D03*
X006405Y011025D03*
X006405Y011030D03*
X006405Y011035D03*
X006405Y011040D03*
X006405Y011045D03*
X006405Y011050D03*
X006405Y011055D03*
X006405Y011060D03*
X006405Y011065D03*
X006405Y011070D03*
X006405Y011075D03*
X006405Y011080D03*
X006405Y011085D03*
X006405Y011090D03*
X006405Y011095D03*
X006405Y011100D03*
X006405Y011105D03*
X006405Y011110D03*
X006405Y011115D03*
X006405Y011120D03*
X006405Y011125D03*
X006405Y011130D03*
X006405Y011135D03*
X006405Y011140D03*
X006405Y011145D03*
X006405Y011150D03*
X006405Y011155D03*
X006405Y011165D03*
X008150Y010970D03*
X009740Y012185D03*
X009345Y012580D03*
X009345Y012585D03*
X009345Y012590D03*
X009350Y012605D03*
X009350Y012610D03*
X009355Y012635D03*
X009355Y012640D03*
X009355Y012645D03*
X009355Y012650D03*
X010335Y012410D03*
X010355Y012700D03*
X012995Y012710D03*
X014020Y012190D03*
X014325Y012115D03*
X014325Y012110D03*
X014325Y012085D03*
X014670Y012690D03*
X011860Y010645D03*
X011860Y010640D03*
X011860Y010635D03*
X011860Y010630D03*
X011860Y010625D03*
X011410Y010875D03*
X011285Y010970D03*
D42*
X010635Y010965D03*
X009985Y010965D03*
X009375Y010970D03*
X009325Y010790D03*
X009425Y010530D03*
X009090Y010390D03*
X008985Y010650D03*
X008985Y010655D03*
X008560Y010340D03*
X007870Y010520D03*
X007450Y010525D03*
X006940Y010965D03*
X006545Y010525D03*
X009390Y012185D03*
X009390Y012190D03*
X009385Y012195D03*
X009380Y012205D03*
X009395Y012180D03*
X009305Y012480D03*
X009365Y012750D03*
X009710Y012690D03*
X010050Y012710D03*
X010050Y012715D03*
X010050Y012720D03*
X010050Y012725D03*
X010380Y012680D03*
X010370Y012340D03*
X010370Y012335D03*
X010370Y012330D03*
X010370Y012325D03*
X010375Y012260D03*
X010375Y012255D03*
X010375Y012250D03*
X009720Y012225D03*
X011865Y012650D03*
X011865Y012655D03*
X012110Y012790D03*
X012665Y012725D03*
X012665Y012720D03*
X012995Y012675D03*
X013330Y012700D03*
X013330Y012705D03*
X013660Y012725D03*
X013660Y012730D03*
X014360Y012705D03*
X014360Y012700D03*
X014985Y012690D03*
X014360Y012235D03*
X013660Y012230D03*
X013660Y012225D03*
X013290Y012130D03*
X012995Y012220D03*
X012660Y012215D03*
X012660Y012210D03*
X013595Y010965D03*
X014490Y010520D03*
X015115Y010965D03*
X015510Y010790D03*
X015555Y010970D03*
X015605Y010530D03*
X012190Y010520D03*
D43*
X012288Y010585D03*
X012503Y010585D03*
X012503Y010685D03*
X012643Y010815D03*
X012648Y010820D03*
X012648Y010905D03*
X012278Y010905D03*
X012093Y010905D03*
X011843Y010590D03*
X011773Y010515D03*
X011638Y010595D03*
X011103Y010600D03*
X011088Y010895D03*
X011083Y010900D03*
X010718Y010910D03*
X010118Y010585D03*
X009923Y010585D03*
X009668Y010570D03*
X009668Y010565D03*
X009668Y010555D03*
X009903Y010895D03*
X009983Y010975D03*
X008988Y010580D03*
X009108Y010345D03*
X008678Y010725D03*
X008458Y010515D03*
X008528Y010350D03*
X007958Y010580D03*
X007958Y010905D03*
X007078Y010890D03*
X006938Y010975D03*
X006873Y010900D03*
X006418Y010590D03*
X009328Y012525D03*
X009328Y012530D03*
X009363Y012700D03*
X009363Y012705D03*
X009743Y012190D03*
X010023Y012140D03*
X010023Y012135D03*
X010623Y012110D03*
X012143Y012730D03*
X012148Y012720D03*
X012153Y012710D03*
X012158Y012705D03*
X012158Y012700D03*
X012163Y012695D03*
X012638Y012575D03*
X012638Y012570D03*
X012638Y012565D03*
X012638Y012560D03*
X012638Y012555D03*
X012638Y012550D03*
X012638Y012545D03*
X012638Y012380D03*
X012638Y012375D03*
X012638Y012370D03*
X012638Y012365D03*
X012638Y012360D03*
X012638Y012355D03*
X012638Y012350D03*
X012638Y012345D03*
X013353Y012325D03*
X013353Y012320D03*
X013353Y012315D03*
X013353Y012310D03*
X013353Y012305D03*
X013353Y012560D03*
X013353Y012565D03*
X013353Y012570D03*
X013353Y012575D03*
X013353Y012580D03*
X013353Y012585D03*
X013638Y012585D03*
X013638Y012590D03*
X013638Y012595D03*
X013638Y012600D03*
X013638Y012605D03*
X013638Y012610D03*
X013638Y012580D03*
X013638Y012410D03*
X013638Y012405D03*
X013638Y012400D03*
X013638Y012395D03*
X013638Y012390D03*
X013638Y012385D03*
X013638Y012380D03*
X013638Y012375D03*
X013998Y012700D03*
X014333Y012790D03*
X014348Y012760D03*
X014668Y012715D03*
X014688Y012220D03*
X014688Y012215D03*
X014338Y012160D03*
X014338Y012155D03*
X014013Y010975D03*
X013928Y010895D03*
X013923Y010890D03*
X014148Y010890D03*
X014148Y010585D03*
X014578Y010580D03*
X015048Y010900D03*
X015113Y010975D03*
X015253Y010890D03*
X015488Y010590D03*
X015643Y010900D03*
X013678Y010910D03*
X013303Y010890D03*
D44*
X013293Y010900D03*
X012638Y010910D03*
X012563Y010975D03*
X012623Y010795D03*
X012618Y010790D03*
X012518Y010580D03*
X012193Y010515D03*
X011298Y010955D03*
X011073Y010905D03*
X009918Y010905D03*
X009458Y010725D03*
X009373Y010975D03*
X008988Y010610D03*
X008543Y010345D03*
X008598Y010970D03*
X008163Y010955D03*
X007783Y010910D03*
X007948Y010575D03*
X007508Y010585D03*
X007068Y010900D03*
X006593Y010910D03*
X006618Y010585D03*
X009318Y012500D03*
X009363Y012725D03*
X009733Y012200D03*
X010018Y012100D03*
X010038Y012175D03*
X010358Y012380D03*
X011863Y012675D03*
X011863Y012680D03*
X012128Y012760D03*
X012648Y012660D03*
X012648Y012655D03*
X012648Y012650D03*
X012648Y012275D03*
X012648Y012270D03*
X012648Y012265D03*
X012998Y012205D03*
X013298Y012155D03*
X013298Y012150D03*
X013343Y012230D03*
X013343Y012235D03*
X013343Y012240D03*
X013648Y012285D03*
X013648Y012290D03*
X013648Y012295D03*
X013648Y012300D03*
X013648Y012670D03*
X013648Y012675D03*
X013648Y012680D03*
X013343Y012650D03*
X013343Y012645D03*
X014353Y012735D03*
X014668Y012735D03*
X014668Y012730D03*
X014688Y012200D03*
X014688Y012195D03*
X014348Y012195D03*
X014348Y012190D03*
X015028Y012075D03*
X015243Y010900D03*
X015553Y010975D03*
X015638Y010725D03*
X014403Y010910D03*
X014138Y010900D03*
D45*
X014143Y010895D03*
X013933Y010900D03*
X013958Y010580D03*
X014033Y010515D03*
X014143Y010580D03*
X014408Y010575D03*
X013688Y010590D03*
X012638Y010810D03*
X012633Y010805D03*
X012268Y010910D03*
X012183Y010975D03*
X011643Y010590D03*
X011293Y010960D03*
X011093Y010590D03*
X010728Y010590D03*
X010113Y010580D03*
X009908Y010900D03*
X008988Y010595D03*
X009108Y010350D03*
X008263Y010890D03*
X007073Y010895D03*
X006623Y010590D03*
X009128Y012195D03*
X009323Y012515D03*
X009363Y012710D03*
X009363Y012715D03*
X009043Y012705D03*
X009738Y012195D03*
X010023Y012120D03*
X010023Y012115D03*
X010023Y012110D03*
X010378Y012210D03*
X010353Y012390D03*
X010623Y012105D03*
X012133Y012750D03*
X012138Y012740D03*
X012643Y012625D03*
X012643Y012620D03*
X012643Y012615D03*
X012643Y012610D03*
X012643Y012315D03*
X012643Y012310D03*
X012643Y012305D03*
X012643Y012300D03*
X012998Y012200D03*
X013303Y012165D03*
X013348Y012260D03*
X013348Y012265D03*
X013348Y012270D03*
X013348Y012275D03*
X013643Y012320D03*
X013643Y012325D03*
X013643Y012330D03*
X013643Y012335D03*
X013643Y012340D03*
X013643Y012635D03*
X013643Y012640D03*
X013643Y012645D03*
X013643Y012650D03*
X013348Y012625D03*
X013348Y012620D03*
X013348Y012615D03*
X013348Y012610D03*
X014323Y012800D03*
X014353Y012745D03*
X014668Y012725D03*
X014668Y012720D03*
X014688Y012210D03*
X014688Y012205D03*
X014343Y012175D03*
X015248Y010895D03*
X015493Y010795D03*
D46*
X015490Y010585D03*
X015605Y010520D03*
X014565Y010910D03*
X014480Y010975D03*
X012630Y010800D03*
X012520Y010705D03*
X012515Y010700D03*
X012510Y010695D03*
X012110Y010575D03*
X012100Y010910D03*
X012645Y012280D03*
X012645Y012285D03*
X012645Y012290D03*
X012645Y012295D03*
X012645Y012630D03*
X012645Y012635D03*
X012645Y012640D03*
X012645Y012645D03*
X012995Y012695D03*
X013345Y012640D03*
X013345Y012635D03*
X013345Y012630D03*
X013645Y012655D03*
X013645Y012660D03*
X013645Y012665D03*
X013645Y012315D03*
X013645Y012310D03*
X013645Y012305D03*
X013345Y012255D03*
X013345Y012250D03*
X013345Y012245D03*
X013300Y012160D03*
X014000Y012695D03*
X014315Y012805D03*
X014350Y012740D03*
X014345Y012185D03*
X014345Y012180D03*
X012135Y012745D03*
X012130Y012755D03*
X011860Y012685D03*
X010620Y012100D03*
X010375Y012215D03*
X010355Y012385D03*
X010365Y012690D03*
X010285Y012065D03*
X010020Y012105D03*
X009320Y012505D03*
X009320Y012510D03*
X009365Y012720D03*
X009705Y012700D03*
X010110Y010900D03*
X009425Y010520D03*
X009310Y010585D03*
X009105Y010355D03*
X008985Y010600D03*
X008985Y010605D03*
X008695Y010605D03*
X007945Y010910D03*
X007860Y010975D03*
X007320Y010590D03*
X006425Y010585D03*
X006425Y010910D03*
D47*
X006610Y010900D03*
X006615Y010895D03*
X006640Y010610D03*
X006640Y010605D03*
X006635Y010600D03*
X007520Y010590D03*
X007525Y010595D03*
X007775Y010580D03*
X007870Y010510D03*
X007965Y010585D03*
X007970Y010590D03*
X007960Y010900D03*
X007765Y010900D03*
X007760Y010895D03*
X008155Y010965D03*
X008595Y010975D03*
X008685Y010730D03*
X008705Y010610D03*
X008985Y010575D03*
X008985Y010570D03*
X009065Y010395D03*
X009425Y010515D03*
X009490Y010585D03*
X009475Y010715D03*
X009465Y010900D03*
X009670Y010560D03*
X009670Y010550D03*
X009915Y010590D03*
X009895Y010890D03*
X010120Y010890D03*
X010560Y010910D03*
X010740Y010600D03*
X011105Y010605D03*
X011110Y010610D03*
X011290Y010965D03*
X012085Y010900D03*
X012285Y010900D03*
X012495Y010680D03*
X012600Y010510D03*
X012650Y010825D03*
X013090Y010895D03*
X013160Y010975D03*
X013520Y010910D03*
X013700Y010600D03*
X013945Y010590D03*
X013950Y010585D03*
X013920Y010885D03*
X014380Y010895D03*
X014385Y010900D03*
X014575Y010905D03*
X014580Y010900D03*
X014590Y010590D03*
X014585Y010585D03*
X014490Y010510D03*
X014395Y010580D03*
X015040Y010895D03*
X015605Y010515D03*
X015670Y010585D03*
X014335Y012145D03*
X014335Y012150D03*
X014020Y012195D03*
X013635Y012415D03*
X013635Y012420D03*
X013635Y012425D03*
X013635Y012430D03*
X013635Y012435D03*
X013635Y012440D03*
X013635Y012445D03*
X013635Y012450D03*
X013635Y012455D03*
X013635Y012460D03*
X013635Y012465D03*
X013635Y012470D03*
X013635Y012475D03*
X013635Y012480D03*
X013635Y012485D03*
X013635Y012490D03*
X013635Y012495D03*
X013635Y012500D03*
X013635Y012505D03*
X013635Y012510D03*
X013635Y012515D03*
X013635Y012520D03*
X013635Y012525D03*
X013635Y012530D03*
X013635Y012535D03*
X013635Y012540D03*
X013635Y012545D03*
X013635Y012550D03*
X013635Y012555D03*
X013635Y012560D03*
X013635Y012565D03*
X013635Y012570D03*
X013635Y012575D03*
X013355Y012555D03*
X013355Y012550D03*
X013355Y012545D03*
X013355Y012540D03*
X013355Y012535D03*
X013355Y012530D03*
X013355Y012525D03*
X013355Y012520D03*
X013355Y012370D03*
X013355Y012365D03*
X013355Y012360D03*
X013355Y012355D03*
X013355Y012350D03*
X013355Y012345D03*
X013355Y012340D03*
X013355Y012335D03*
X013355Y012330D03*
X012995Y012195D03*
X012635Y012385D03*
X012635Y012390D03*
X012635Y012395D03*
X012635Y012400D03*
X012635Y012405D03*
X012635Y012410D03*
X012635Y012415D03*
X012635Y012420D03*
X012635Y012425D03*
X012635Y012430D03*
X012635Y012435D03*
X012635Y012440D03*
X012635Y012445D03*
X012635Y012450D03*
X012635Y012455D03*
X012635Y012460D03*
X012635Y012465D03*
X012635Y012470D03*
X012635Y012475D03*
X012635Y012480D03*
X012635Y012485D03*
X012635Y012490D03*
X012635Y012495D03*
X012635Y012500D03*
X012635Y012505D03*
X012635Y012510D03*
X012635Y012515D03*
X012635Y012520D03*
X012635Y012525D03*
X012635Y012530D03*
X012635Y012535D03*
X012635Y012540D03*
X012995Y012705D03*
X011860Y012695D03*
X010360Y012695D03*
X010345Y012400D03*
X010380Y012205D03*
X010025Y012170D03*
X010025Y012165D03*
X010025Y012160D03*
X010025Y012155D03*
X010025Y012150D03*
X010025Y012145D03*
X009330Y012535D03*
X009360Y012690D03*
X009360Y012695D03*
X009705Y012705D03*
X009745Y012845D03*
X008520Y010355D03*
X012190Y010510D03*
X014670Y012710D03*
D48*
X014668Y012705D03*
X014348Y012765D03*
X014348Y012770D03*
X014343Y012775D03*
X014343Y012780D03*
X014338Y012785D03*
X014333Y012140D03*
X014333Y012080D03*
X014688Y012225D03*
X014688Y012230D03*
X013358Y012375D03*
X013358Y012380D03*
X013358Y012385D03*
X013358Y012390D03*
X013358Y012395D03*
X013358Y012400D03*
X013358Y012405D03*
X013358Y012410D03*
X013358Y012415D03*
X013358Y012420D03*
X013358Y012425D03*
X013358Y012430D03*
X013358Y012435D03*
X013358Y012440D03*
X013358Y012445D03*
X013358Y012450D03*
X013358Y012455D03*
X013358Y012460D03*
X013358Y012465D03*
X013358Y012470D03*
X013358Y012475D03*
X013358Y012480D03*
X013358Y012485D03*
X013358Y012490D03*
X013358Y012495D03*
X013358Y012500D03*
X013358Y012505D03*
X013358Y012510D03*
X013358Y012515D03*
X011858Y012700D03*
X010623Y012115D03*
X009333Y012540D03*
X009333Y012545D03*
X009338Y012555D03*
X009363Y012685D03*
X009043Y012710D03*
X009303Y010900D03*
X009483Y010710D03*
X009303Y010595D03*
X008988Y010565D03*
X008693Y010740D03*
X008688Y010735D03*
X008453Y010510D03*
X008513Y010360D03*
X008268Y010885D03*
X007968Y010895D03*
X007753Y010885D03*
X007978Y010600D03*
X007973Y010595D03*
X007528Y010600D03*
X007313Y010600D03*
X007083Y010885D03*
X006868Y010895D03*
X006863Y010890D03*
X006623Y010890D03*
X006413Y010905D03*
X006413Y010595D03*
X006643Y010615D03*
X006648Y010620D03*
X006648Y010625D03*
X006653Y010635D03*
X009668Y010545D03*
X009668Y010540D03*
X009908Y010600D03*
X009913Y010595D03*
X010123Y010590D03*
X010123Y010885D03*
X009893Y010885D03*
X009888Y010880D03*
X010723Y010905D03*
X010748Y010610D03*
X010743Y010605D03*
X011113Y010615D03*
X011118Y010620D03*
X011118Y010625D03*
X011103Y010880D03*
X011098Y010885D03*
X011093Y010890D03*
X011403Y010885D03*
X011633Y010600D03*
X011848Y010595D03*
X012098Y010580D03*
X012293Y010590D03*
X012298Y010595D03*
X012298Y010600D03*
X012493Y010595D03*
X012498Y010590D03*
X012488Y010665D03*
X012493Y010675D03*
X012653Y010830D03*
X012658Y010835D03*
X012658Y010895D03*
X012653Y010900D03*
X012293Y010890D03*
X012288Y010895D03*
X012083Y010895D03*
X012078Y010890D03*
X013083Y010885D03*
X013303Y010885D03*
X013683Y010905D03*
X013913Y010875D03*
X013918Y010880D03*
X014153Y010885D03*
X014373Y010885D03*
X014588Y010895D03*
X014598Y010600D03*
X014593Y010595D03*
X014388Y010585D03*
X014153Y010590D03*
X013938Y010595D03*
X013708Y010610D03*
X013703Y010605D03*
X015038Y010890D03*
X015258Y010885D03*
X015483Y010595D03*
X015678Y010590D03*
X015663Y010710D03*
X015658Y010715D03*
D49*
X015608Y010525D03*
X013678Y010585D03*
X013593Y010970D03*
X012608Y010780D03*
X012603Y010775D03*
X012583Y010760D03*
X012558Y010740D03*
X012553Y010735D03*
X012548Y010730D03*
X012543Y010725D03*
X011773Y010520D03*
X011303Y010950D03*
X010633Y010970D03*
X010718Y010585D03*
X009103Y010365D03*
X008988Y010625D03*
X008988Y010630D03*
X008168Y010950D03*
X006543Y010520D03*
X009313Y012490D03*
X009363Y012735D03*
X009708Y012695D03*
X009728Y012210D03*
X010043Y012190D03*
X010043Y012185D03*
X010373Y012225D03*
X010363Y012365D03*
X010363Y012370D03*
X010373Y012685D03*
X011863Y012670D03*
X012123Y012770D03*
X012653Y012685D03*
X012653Y012680D03*
X012653Y012675D03*
X012653Y012245D03*
X012653Y012240D03*
X013318Y012175D03*
X013323Y012180D03*
X013333Y012195D03*
X013333Y012200D03*
X013338Y012205D03*
X013338Y012210D03*
X013338Y012215D03*
X013653Y012260D03*
X013653Y012265D03*
X013653Y012270D03*
X013653Y012695D03*
X013653Y012700D03*
X013338Y012675D03*
X013338Y012670D03*
X014308Y012810D03*
X014358Y012720D03*
X014668Y012740D03*
X014688Y012190D03*
X014353Y012210D03*
X014353Y012075D03*
D50*
X014330Y012130D03*
X014330Y012135D03*
X014670Y012700D03*
X012995Y012190D03*
X013085Y010890D03*
X013080Y010880D03*
X013305Y010880D03*
X013515Y010905D03*
X013500Y010785D03*
X013690Y010900D03*
X013695Y010895D03*
X013900Y010840D03*
X013900Y010835D03*
X013905Y010855D03*
X013905Y010860D03*
X013910Y010865D03*
X013910Y010870D03*
X013895Y010785D03*
X013920Y010625D03*
X013925Y010615D03*
X013930Y010610D03*
X013930Y010605D03*
X013935Y010600D03*
X014035Y010510D03*
X014155Y010595D03*
X014380Y010595D03*
X014385Y010590D03*
X014600Y010605D03*
X014600Y010610D03*
X014605Y010615D03*
X014605Y010620D03*
X014610Y010630D03*
X014615Y010650D03*
X014620Y010675D03*
X014600Y010875D03*
X014595Y010880D03*
X014595Y010885D03*
X014590Y010890D03*
X014375Y010890D03*
X014370Y010880D03*
X014365Y010875D03*
X014155Y010880D03*
X013710Y010615D03*
X012660Y010840D03*
X012660Y010890D03*
X012490Y010670D03*
X012485Y010660D03*
X012485Y010655D03*
X012490Y010600D03*
X012315Y010640D03*
X012310Y010625D03*
X012310Y010620D03*
X012305Y010615D03*
X012305Y010610D03*
X012300Y010605D03*
X012090Y010585D03*
X012085Y010590D03*
X011855Y010605D03*
X011855Y010610D03*
X011850Y010600D03*
X011630Y010605D03*
X011405Y010880D03*
X011110Y010870D03*
X011105Y010875D03*
X011125Y010645D03*
X011125Y010640D03*
X011120Y010635D03*
X011120Y010630D03*
X010750Y010615D03*
X010735Y010895D03*
X010730Y010900D03*
X010555Y010905D03*
X009885Y010875D03*
X009885Y010870D03*
X009880Y010865D03*
X009880Y010860D03*
X009875Y010850D03*
X009875Y010845D03*
X009870Y010825D03*
X009870Y010820D03*
X009885Y010645D03*
X009890Y010630D03*
X009895Y010620D03*
X009900Y010615D03*
X009900Y010610D03*
X009905Y010605D03*
X010005Y010510D03*
X009675Y010575D03*
X009665Y010535D03*
X009665Y010530D03*
X009500Y010595D03*
X009495Y010590D03*
X009275Y010530D03*
X008985Y010555D03*
X008985Y010560D03*
X008700Y010750D03*
X008700Y010755D03*
X008695Y010745D03*
X008510Y010725D03*
X008450Y010505D03*
X008505Y010365D03*
X008275Y010880D03*
X007980Y010875D03*
X007975Y010880D03*
X007975Y010885D03*
X007970Y010890D03*
X007755Y010890D03*
X007750Y010880D03*
X007745Y010870D03*
X007760Y010595D03*
X007765Y010590D03*
X007770Y010585D03*
X007980Y010605D03*
X007980Y010610D03*
X007985Y010615D03*
X007985Y010620D03*
X007990Y010630D03*
X007530Y010605D03*
X007305Y010605D03*
X007085Y010880D03*
X006860Y010885D03*
X006640Y010860D03*
X006635Y010870D03*
X006630Y010875D03*
X006630Y010880D03*
X006625Y010885D03*
X006665Y010735D03*
X006665Y010720D03*
X006665Y010710D03*
X006660Y010670D03*
X006660Y010665D03*
X006660Y010660D03*
X006655Y010650D03*
X006655Y010645D03*
X006655Y010640D03*
X006650Y010630D03*
X006410Y010600D03*
X009335Y012550D03*
X009340Y012560D03*
X009340Y012565D03*
X009360Y012670D03*
X009360Y012675D03*
X009360Y012680D03*
X010340Y012405D03*
X010625Y012120D03*
X012070Y010880D03*
X012070Y010875D03*
X012075Y010885D03*
X012065Y010865D03*
X012295Y010885D03*
X012300Y010880D03*
X012305Y010870D03*
X015035Y010885D03*
X015260Y010880D03*
X015485Y010900D03*
X015550Y010980D03*
X015670Y010705D03*
X015680Y010595D03*
X015455Y010530D03*
D51*
X014480Y010970D03*
X012595Y010770D03*
X012590Y010765D03*
X012575Y010755D03*
X012570Y010750D03*
X012565Y010745D03*
X012600Y010515D03*
X011655Y010585D03*
X010985Y010970D03*
X010105Y010905D03*
X009425Y010525D03*
X009100Y010370D03*
X009095Y010380D03*
X008985Y010635D03*
X008480Y010905D03*
X007330Y010585D03*
X009130Y012200D03*
X009725Y012215D03*
X010015Y012095D03*
X010045Y012195D03*
X010045Y012200D03*
X010045Y012205D03*
X010045Y012210D03*
X010045Y012215D03*
X010045Y012235D03*
X010045Y012240D03*
X010045Y012245D03*
X010045Y012250D03*
X010045Y012255D03*
X010045Y012260D03*
X010045Y012265D03*
X010045Y012270D03*
X010045Y012275D03*
X010045Y012280D03*
X010045Y012285D03*
X010045Y012290D03*
X010045Y012295D03*
X010045Y012300D03*
X010045Y012305D03*
X010045Y012310D03*
X010045Y012315D03*
X010045Y012320D03*
X010045Y012325D03*
X010045Y012330D03*
X010045Y012335D03*
X010045Y012340D03*
X010045Y012345D03*
X010045Y012350D03*
X010045Y012355D03*
X010045Y012360D03*
X010045Y012365D03*
X010045Y012370D03*
X010045Y012375D03*
X010045Y012380D03*
X010045Y012385D03*
X010045Y012390D03*
X010045Y012395D03*
X010045Y012400D03*
X010045Y012405D03*
X010045Y012410D03*
X010045Y012415D03*
X010045Y012420D03*
X010045Y012425D03*
X010045Y012430D03*
X010045Y012435D03*
X010045Y012440D03*
X010045Y012445D03*
X010045Y012450D03*
X010045Y012455D03*
X010045Y012460D03*
X010045Y012465D03*
X010045Y012470D03*
X010045Y012475D03*
X010045Y012480D03*
X010045Y012485D03*
X010045Y012490D03*
X010045Y012495D03*
X010045Y012500D03*
X010045Y012505D03*
X010045Y012510D03*
X010045Y012515D03*
X010045Y012520D03*
X010045Y012525D03*
X010045Y012530D03*
X010045Y012535D03*
X010045Y012540D03*
X010045Y012545D03*
X010045Y012550D03*
X010045Y012555D03*
X010045Y012560D03*
X010045Y012565D03*
X010045Y012570D03*
X010045Y012575D03*
X010045Y012580D03*
X010045Y012585D03*
X010045Y012590D03*
X010045Y012595D03*
X010045Y012600D03*
X010045Y012605D03*
X010045Y012610D03*
X010045Y012615D03*
X010045Y012620D03*
X010045Y012625D03*
X010045Y012630D03*
X010045Y012635D03*
X010045Y012640D03*
X010045Y012645D03*
X010045Y012650D03*
X010045Y012655D03*
X010045Y012660D03*
X010045Y012665D03*
X010045Y012670D03*
X010045Y012675D03*
X010365Y012360D03*
X010365Y012355D03*
X009365Y012740D03*
X011865Y012665D03*
X011865Y012660D03*
X011900Y012515D03*
X012120Y012775D03*
X012115Y012780D03*
X012655Y012695D03*
X012655Y012690D03*
X012995Y012685D03*
X013335Y012685D03*
X013335Y012680D03*
X013655Y012705D03*
X013655Y012710D03*
X013655Y012715D03*
X014300Y012815D03*
X014665Y012745D03*
X014690Y012185D03*
X014355Y012215D03*
X014355Y012220D03*
X014020Y012210D03*
X013655Y012250D03*
X013655Y012255D03*
X013330Y012190D03*
X013325Y012185D03*
X013295Y012140D03*
X012995Y012215D03*
X012655Y012230D03*
X012655Y012235D03*
D52*
X012658Y012225D03*
X012658Y012220D03*
X012993Y012680D03*
X012663Y012710D03*
X012663Y012715D03*
X012658Y012705D03*
X012658Y012700D03*
X012113Y012785D03*
X013333Y012695D03*
X013333Y012690D03*
X013658Y012720D03*
X014003Y012685D03*
X014358Y012710D03*
X014358Y012715D03*
X014668Y012750D03*
X014988Y012695D03*
X014688Y012180D03*
X014358Y012225D03*
X014358Y012230D03*
X014023Y012215D03*
X013658Y012235D03*
X013658Y012240D03*
X013658Y012245D03*
X013293Y012135D03*
X012563Y010970D03*
X012183Y010970D03*
X010998Y010515D03*
X010633Y010515D03*
X009098Y010375D03*
X009093Y010385D03*
X008988Y010640D03*
X008988Y010645D03*
X008478Y010520D03*
X007863Y010970D03*
X009383Y012200D03*
X009378Y012210D03*
X009373Y012215D03*
X009308Y012485D03*
X009363Y012745D03*
X009033Y012700D03*
X009723Y012220D03*
X010048Y012220D03*
X010048Y012225D03*
X010048Y012230D03*
X010373Y012230D03*
X010373Y012235D03*
X010373Y012240D03*
X010373Y012245D03*
X010368Y012345D03*
X010368Y012350D03*
X010618Y012090D03*
X010048Y012680D03*
X010048Y012685D03*
X010048Y012690D03*
X010048Y012695D03*
X010048Y012700D03*
X010048Y012705D03*
X013593Y010515D03*
X014128Y010905D03*
D53*
X014168Y010965D03*
X013478Y010600D03*
X012473Y010895D03*
X011858Y010985D03*
X010988Y010985D03*
X010693Y010710D03*
X010518Y010600D03*
X010138Y010965D03*
X009368Y010985D03*
X009148Y010395D03*
X007293Y010525D03*
X010343Y012710D03*
X011618Y010525D03*
X014688Y012310D03*
X014688Y012315D03*
X014668Y012620D03*
X014668Y012625D03*
X014143Y012795D03*
X015548Y010985D03*
D54*
X014488Y010505D03*
X014173Y010950D03*
X013593Y010505D03*
X011863Y010970D03*
X011613Y010540D03*
X009663Y010515D03*
X008863Y010970D03*
X008658Y010445D03*
X007868Y010505D03*
X007538Y010970D03*
X006398Y011190D03*
X006388Y010515D03*
X009678Y011190D03*
X010633Y012150D03*
X010348Y012705D03*
X014668Y012670D03*
X014688Y012265D03*
X014988Y012170D03*
X014993Y012160D03*
X014993Y012155D03*
X015018Y012095D03*
X015023Y012090D03*
D55*
X015015Y012100D03*
X015010Y012110D03*
X015000Y012140D03*
X014995Y012145D03*
X014995Y012150D03*
X014670Y012665D03*
X014140Y012810D03*
X012995Y012180D03*
X012440Y012810D03*
X010635Y012160D03*
X010635Y012155D03*
X010320Y012420D03*
X009770Y012835D03*
X010145Y010950D03*
X010005Y010505D03*
X010635Y010505D03*
X011430Y010515D03*
X011425Y010950D03*
X012595Y010505D03*
X012680Y010585D03*
X013330Y010515D03*
X013325Y010950D03*
X014035Y010505D03*
X015275Y010950D03*
X015455Y010515D03*
X009275Y010515D03*
X008655Y010450D03*
X008290Y010950D03*
X007290Y010540D03*
D56*
X007290Y010535D03*
X007100Y010955D03*
X007535Y010975D03*
X008600Y010655D03*
X008650Y010460D03*
X009110Y010975D03*
X009670Y011195D03*
X010530Y010590D03*
X011615Y010535D03*
X011860Y010975D03*
X013490Y010590D03*
X014170Y010955D03*
X015035Y010515D03*
X014670Y012655D03*
X012995Y012720D03*
X010645Y012200D03*
X010645Y012195D03*
X010640Y012185D03*
X010640Y012180D03*
X010640Y012175D03*
X009050Y012720D03*
X006390Y010510D03*
D57*
X006515Y010985D03*
X007535Y010985D03*
X008645Y010475D03*
X009495Y010875D03*
X009790Y012820D03*
X012995Y012175D03*
X014490Y010985D03*
X015680Y010875D03*
D58*
X014688Y012320D03*
X014688Y012325D03*
X014668Y012610D03*
X014668Y012615D03*
X013588Y010985D03*
X012568Y010985D03*
X012188Y010985D03*
X010628Y010985D03*
X009358Y010795D03*
X008643Y010480D03*
X008598Y010985D03*
D59*
X008838Y010975D03*
X008643Y010485D03*
X009283Y010505D03*
X009378Y010795D03*
X010508Y010610D03*
X010888Y010600D03*
X011418Y010965D03*
X011623Y010975D03*
X013168Y010985D03*
X013668Y010710D03*
X013468Y010610D03*
X015123Y010985D03*
X015593Y010505D03*
X015623Y010505D03*
X014688Y012330D03*
X014688Y012335D03*
X014668Y012600D03*
X014668Y012605D03*
X008123Y010890D03*
X007423Y010585D03*
X006943Y010985D03*
D60*
X009655Y011200D03*
X010510Y010605D03*
X010895Y010890D03*
X010275Y012100D03*
X009800Y012810D03*
X012445Y012790D03*
X014145Y012790D03*
X014105Y012075D03*
X013645Y010710D03*
X013470Y010605D03*
X015460Y010505D03*
D61*
X014100Y012070D03*
X012445Y012795D03*
X010390Y012185D03*
X010275Y012095D03*
X009795Y012815D03*
X008285Y010965D03*
X009665Y010505D03*
X010890Y010595D03*
X012695Y010600D03*
D62*
X011593Y010975D03*
X010898Y010590D03*
X009423Y010505D03*
X008868Y010975D03*
X007868Y010985D03*
X006393Y010505D03*
X010278Y012090D03*
X010303Y012425D03*
X012443Y012800D03*
X014143Y012800D03*
X014668Y012630D03*
X014688Y012305D03*
X014688Y012300D03*
X014093Y012065D03*
X015273Y010960D03*
D63*
X015273Y010955D03*
X015458Y010510D03*
X013323Y010955D03*
X013083Y010515D03*
X012688Y010590D03*
X011423Y010955D03*
X010908Y010900D03*
X009663Y010510D03*
X008288Y010955D03*
X006863Y010515D03*
X006393Y011195D03*
X009778Y012830D03*
X010648Y012205D03*
X010643Y012190D03*
X014083Y012060D03*
X014688Y012280D03*
X014688Y012285D03*
X014668Y012650D03*
D64*
X014350Y012750D03*
X014350Y012755D03*
X014325Y012795D03*
X013640Y012630D03*
X013640Y012625D03*
X013640Y012620D03*
X013640Y012615D03*
X013640Y012370D03*
X013640Y012365D03*
X013640Y012360D03*
X013640Y012355D03*
X013640Y012350D03*
X013640Y012345D03*
X013350Y012300D03*
X013350Y012295D03*
X013350Y012290D03*
X013350Y012285D03*
X013350Y012280D03*
X013305Y012170D03*
X013350Y012590D03*
X013350Y012595D03*
X013350Y012600D03*
X013350Y012605D03*
X012995Y012700D03*
X012640Y012605D03*
X012640Y012600D03*
X012640Y012595D03*
X012640Y012590D03*
X012640Y012585D03*
X012640Y012580D03*
X012640Y012340D03*
X012640Y012335D03*
X012640Y012330D03*
X012640Y012325D03*
X012640Y012320D03*
X012150Y012715D03*
X012145Y012725D03*
X012140Y012735D03*
X011860Y012690D03*
X010350Y012395D03*
X010025Y012130D03*
X010025Y012125D03*
X009325Y012520D03*
X009470Y010720D03*
X009305Y010590D03*
X008985Y010590D03*
X008985Y010585D03*
X008160Y010960D03*
X007770Y010905D03*
X007785Y010575D03*
X007450Y010515D03*
X007315Y010595D03*
X006630Y010595D03*
X006545Y010515D03*
X006605Y010905D03*
X009930Y010580D03*
X010115Y010895D03*
X010630Y010975D03*
X010985Y010975D03*
X011100Y010595D03*
X010995Y010510D03*
X010735Y010595D03*
X010635Y010510D03*
X011395Y010890D03*
X012280Y010580D03*
X012505Y010690D03*
X013095Y010900D03*
X013295Y010895D03*
X013590Y010975D03*
X013695Y010595D03*
X013595Y010510D03*
X014390Y010905D03*
X015650Y010720D03*
X014340Y012165D03*
X014340Y012170D03*
X014020Y012200D03*
D65*
X014020Y012180D03*
X014670Y012645D03*
X014140Y012805D03*
X012440Y012805D03*
X012320Y012695D03*
X014010Y010985D03*
X012480Y010900D03*
X010905Y010585D03*
X009985Y010985D03*
X009275Y010510D03*
X008420Y010970D03*
X007535Y010980D03*
D66*
X007863Y010945D03*
X008213Y010945D03*
X008218Y010940D03*
X008218Y010935D03*
X009363Y010765D03*
X010058Y010515D03*
X010633Y010540D03*
X011008Y010545D03*
X010993Y010940D03*
X011348Y010940D03*
X011348Y010935D03*
X010638Y010935D03*
X012183Y010945D03*
X012568Y010940D03*
X012598Y010540D03*
X012193Y010545D03*
X013593Y010540D03*
X013598Y010935D03*
X013693Y012130D03*
X012998Y012325D03*
X012998Y012330D03*
X012998Y012335D03*
X012698Y012115D03*
X012688Y012790D03*
X013698Y012810D03*
X014398Y012585D03*
X014398Y012580D03*
X014398Y012365D03*
X014398Y012360D03*
X014688Y012115D03*
X014688Y012110D03*
X014968Y012595D03*
X015548Y010760D03*
X009273Y012420D03*
D67*
X009300Y012470D03*
X009365Y012755D03*
X010055Y012755D03*
X010055Y012750D03*
X009715Y012235D03*
X009405Y012160D03*
X009400Y012170D03*
X009135Y012205D03*
X008485Y010915D03*
X008635Y010660D03*
X008985Y010665D03*
X008985Y010670D03*
X011810Y012205D03*
X011865Y012635D03*
X012675Y012745D03*
X012995Y012670D03*
X013325Y012720D03*
X013665Y012745D03*
X014365Y012690D03*
X014365Y012685D03*
X014665Y012765D03*
X014980Y012675D03*
X014980Y012670D03*
X014365Y012255D03*
X014365Y012250D03*
X014020Y012225D03*
X013665Y012210D03*
X013285Y012120D03*
X012995Y012230D03*
X012665Y012195D03*
X012665Y012190D03*
X012600Y010520D03*
D68*
X012570Y010935D03*
X013655Y010715D03*
X014490Y010545D03*
X015570Y010945D03*
X013695Y012125D03*
X013265Y012085D03*
X012995Y012340D03*
X012995Y012345D03*
X012995Y012350D03*
X012995Y012355D03*
X012995Y012545D03*
X012995Y012550D03*
X012995Y012555D03*
X012995Y012560D03*
X012995Y012565D03*
X012995Y012570D03*
X013290Y012795D03*
X012700Y012110D03*
X014400Y012370D03*
X014400Y012375D03*
X014400Y012570D03*
X014400Y012575D03*
X014665Y012815D03*
X014965Y012590D03*
X010995Y010935D03*
X010695Y010715D03*
X010055Y010520D03*
X009365Y010760D03*
X009390Y010945D03*
X008600Y010700D03*
X007870Y010545D03*
X006480Y010965D03*
X009270Y012415D03*
X009425Y012110D03*
X009365Y012795D03*
X010090Y012830D03*
D69*
X010060Y012775D03*
X010060Y012770D03*
X009365Y012765D03*
X009365Y012760D03*
X009300Y012465D03*
X009135Y012210D03*
X009410Y012150D03*
X009710Y012250D03*
X009710Y012255D03*
X009025Y012695D03*
X009985Y010960D03*
X010635Y010960D03*
X011770Y010530D03*
X013165Y010960D03*
X013595Y010960D03*
X014015Y010960D03*
X014480Y010965D03*
X014490Y010525D03*
X015115Y010960D03*
X015520Y010785D03*
X015560Y010965D03*
X014370Y012270D03*
X014015Y012240D03*
X014015Y012235D03*
X013670Y012195D03*
X013670Y012190D03*
X012995Y012240D03*
X012670Y012180D03*
X012670Y012175D03*
X012995Y012660D03*
X012690Y012770D03*
X012685Y012765D03*
X012105Y012800D03*
X011870Y012615D03*
X011870Y012610D03*
X011870Y012605D03*
X013320Y012735D03*
X013670Y012755D03*
X013670Y012760D03*
X014370Y012675D03*
X014370Y012670D03*
X007870Y010525D03*
X007450Y010530D03*
X006940Y010960D03*
D70*
X007860Y010960D03*
X008605Y010675D03*
X009420Y012135D03*
X009705Y012270D03*
X009705Y012275D03*
X009705Y012670D03*
X009365Y012770D03*
X010065Y012790D03*
X010390Y012670D03*
X011870Y012580D03*
X011875Y012545D03*
X011810Y012210D03*
X012675Y012165D03*
X012675Y012160D03*
X012995Y012250D03*
X013275Y012105D03*
X013675Y012175D03*
X013675Y012180D03*
X014010Y012255D03*
X014010Y012260D03*
X014375Y012285D03*
X014375Y012290D03*
X014690Y012150D03*
X014975Y012645D03*
X014975Y012650D03*
X014665Y012780D03*
X014375Y012655D03*
X014005Y012670D03*
X013675Y012770D03*
X013315Y012750D03*
X012995Y012650D03*
X013595Y010955D03*
X014480Y010960D03*
X012600Y010525D03*
X011000Y010525D03*
X010985Y010960D03*
X010635Y010955D03*
D71*
X009378Y010965D03*
X009338Y010785D03*
X008613Y010670D03*
X009418Y012140D03*
X009413Y012145D03*
X009708Y012260D03*
X009708Y012265D03*
X010013Y012085D03*
X009708Y012675D03*
X009708Y012680D03*
X010063Y012780D03*
X010063Y012785D03*
X009298Y012460D03*
X011873Y012585D03*
X011873Y012590D03*
X011873Y012595D03*
X011873Y012600D03*
X011883Y012520D03*
X012103Y012805D03*
X012673Y012170D03*
X012998Y012245D03*
X013278Y012110D03*
X013673Y012185D03*
X014013Y012245D03*
X014013Y012250D03*
X014373Y012275D03*
X014373Y012280D03*
X014688Y012155D03*
X014978Y012655D03*
X014668Y012775D03*
X014373Y012665D03*
X014373Y012660D03*
X013673Y012765D03*
X013318Y012745D03*
X013318Y012740D03*
X012993Y012655D03*
X012193Y010525D03*
D72*
X011773Y010525D03*
X011068Y010580D03*
X008988Y010660D03*
X008483Y010910D03*
X009403Y012165D03*
X009398Y012175D03*
X009303Y012475D03*
X009718Y012230D03*
X010013Y012090D03*
X010373Y012265D03*
X010373Y012270D03*
X010373Y012275D03*
X010373Y012280D03*
X010373Y012285D03*
X010373Y012290D03*
X010373Y012295D03*
X010373Y012300D03*
X010373Y012305D03*
X010373Y012310D03*
X010373Y012315D03*
X010373Y012320D03*
X010053Y012730D03*
X010053Y012735D03*
X010053Y012740D03*
X010053Y012745D03*
X011868Y012645D03*
X011868Y012640D03*
X012108Y012795D03*
X012668Y012730D03*
X012673Y012735D03*
X012673Y012740D03*
X013328Y012715D03*
X013328Y012710D03*
X013663Y012735D03*
X013663Y012740D03*
X014003Y012680D03*
X014363Y012695D03*
X014668Y012755D03*
X014668Y012760D03*
X014983Y012685D03*
X014983Y012680D03*
X014688Y012175D03*
X014688Y012170D03*
X014363Y012240D03*
X014363Y012245D03*
X014023Y012220D03*
X013663Y012220D03*
X013663Y012215D03*
X013288Y012125D03*
X012998Y012225D03*
X012663Y012205D03*
X012663Y012200D03*
X013163Y010965D03*
X014013Y010965D03*
D73*
X013600Y010925D03*
X013595Y010545D03*
X014490Y010550D03*
X015555Y010750D03*
X014690Y012100D03*
X014405Y012390D03*
X014405Y012555D03*
X014405Y012560D03*
X014665Y012820D03*
X013695Y012120D03*
X012995Y012380D03*
X012995Y012385D03*
X012995Y012390D03*
X012995Y012395D03*
X012995Y012400D03*
X012995Y012405D03*
X012995Y012410D03*
X012995Y012415D03*
X012995Y012420D03*
X012995Y012425D03*
X012995Y012430D03*
X012995Y012435D03*
X012995Y012440D03*
X012995Y012445D03*
X012995Y012450D03*
X012995Y012455D03*
X012995Y012460D03*
X012995Y012465D03*
X012995Y012470D03*
X012995Y012475D03*
X012995Y012480D03*
X012995Y012485D03*
X012995Y012490D03*
X012995Y012495D03*
X012995Y012500D03*
X012995Y012505D03*
X012995Y012510D03*
X012995Y012515D03*
X012995Y012520D03*
X012995Y012525D03*
X012705Y012105D03*
X011000Y010925D03*
X011005Y010915D03*
X010640Y010925D03*
X010635Y010545D03*
X010050Y010525D03*
X009370Y010755D03*
X009390Y010940D03*
X008600Y010705D03*
X007870Y010550D03*
X012595Y010550D03*
D74*
X012193Y010540D03*
X012183Y010950D03*
X011348Y010915D03*
X011003Y010540D03*
X010633Y010535D03*
X010638Y010940D03*
X009358Y010770D03*
X008518Y010525D03*
X007868Y010540D03*
X010008Y012075D03*
X009688Y012385D03*
X009688Y012390D03*
X009688Y012395D03*
X009688Y012400D03*
X009688Y012405D03*
X009688Y012410D03*
X009688Y012415D03*
X009688Y012420D03*
X009688Y012425D03*
X009688Y012430D03*
X009688Y012545D03*
X009688Y012550D03*
X009688Y012555D03*
X009688Y012560D03*
X009688Y012565D03*
X009688Y012570D03*
X009688Y012575D03*
X009688Y012580D03*
X009688Y012585D03*
X010083Y012820D03*
X010623Y012075D03*
X012693Y012125D03*
X012998Y012305D03*
X012993Y012600D03*
X013298Y012785D03*
X013268Y012090D03*
X013993Y012365D03*
X013993Y012370D03*
X013993Y012375D03*
X013993Y012380D03*
X013993Y012385D03*
X013993Y012390D03*
X013993Y012395D03*
X013993Y012575D03*
X013993Y012580D03*
X013993Y012585D03*
X013993Y012590D03*
X013993Y012595D03*
X013993Y012600D03*
X014393Y012600D03*
X014393Y012595D03*
X014393Y012350D03*
X014393Y012345D03*
X014688Y012125D03*
X014688Y012120D03*
X014968Y012600D03*
X014968Y012605D03*
X013598Y010940D03*
X013593Y010535D03*
X014488Y010540D03*
D75*
X014490Y010530D03*
X014380Y012300D03*
X014380Y012305D03*
X014380Y012635D03*
X014380Y012640D03*
X014665Y012790D03*
X014970Y012630D03*
X014005Y012660D03*
X014005Y012665D03*
X013680Y012780D03*
X013310Y012760D03*
X012995Y012640D03*
X012995Y012265D03*
X012995Y012260D03*
X013270Y012100D03*
X013680Y012160D03*
X013680Y012165D03*
X014005Y012275D03*
X014005Y012280D03*
X014005Y012285D03*
X012680Y012150D03*
X012100Y012810D03*
X010395Y012665D03*
X010070Y012800D03*
X009700Y012660D03*
X009700Y012655D03*
X009700Y012300D03*
X009700Y012295D03*
X009700Y012290D03*
X009420Y012130D03*
X009140Y012215D03*
X009290Y012450D03*
X009365Y012775D03*
X010010Y012080D03*
X009380Y010960D03*
X009345Y010780D03*
X008660Y010600D03*
X007870Y010530D03*
D76*
X007870Y010555D03*
X008535Y010530D03*
X009375Y010745D03*
X009390Y010930D03*
X010045Y010530D03*
X010635Y010550D03*
X010640Y010915D03*
X011010Y010565D03*
X012585Y010570D03*
X012590Y010565D03*
X012590Y010560D03*
X013595Y010550D03*
X013600Y010915D03*
X014075Y010530D03*
X014490Y010555D03*
X015560Y010740D03*
X015645Y012135D03*
X015645Y012140D03*
X015645Y012145D03*
X015645Y012150D03*
X015645Y012155D03*
X015645Y012160D03*
X015645Y012165D03*
X015645Y012170D03*
X015645Y012175D03*
X015645Y012180D03*
X015645Y012185D03*
X015645Y012190D03*
X015645Y012195D03*
X015645Y012200D03*
X015645Y012205D03*
X015645Y012210D03*
X015645Y012215D03*
X015645Y012220D03*
X015645Y012225D03*
X015645Y012230D03*
X015645Y012235D03*
X015645Y012240D03*
X015645Y012245D03*
X015645Y012250D03*
X015645Y012255D03*
X015645Y012260D03*
X015645Y012265D03*
X015645Y012270D03*
X015645Y012275D03*
X015645Y012280D03*
X015645Y012285D03*
X015645Y012290D03*
X015645Y012295D03*
X015645Y012300D03*
X015645Y012305D03*
X015645Y012310D03*
X015645Y012315D03*
X015645Y012320D03*
X015645Y012325D03*
X015645Y012330D03*
X015645Y012335D03*
X015645Y012340D03*
X015645Y012345D03*
X015645Y012350D03*
X015645Y012355D03*
X015645Y012360D03*
X015645Y012365D03*
X015645Y012370D03*
X015645Y012375D03*
X015645Y012380D03*
X015645Y012385D03*
X015645Y012390D03*
X015645Y012395D03*
X015645Y012400D03*
X015645Y012405D03*
X015645Y012410D03*
X015645Y012415D03*
X015645Y012420D03*
X015645Y012425D03*
X015645Y012430D03*
X015645Y012435D03*
X015645Y012440D03*
X015645Y012445D03*
X015645Y012450D03*
X015645Y012455D03*
X015645Y012460D03*
X015645Y012465D03*
X015645Y012470D03*
X015645Y012475D03*
X015645Y012480D03*
X015645Y012485D03*
X015645Y012490D03*
X015645Y012495D03*
X015645Y012500D03*
X015645Y012505D03*
X015645Y012510D03*
X015645Y012515D03*
X015645Y012520D03*
X015645Y012525D03*
X015645Y012530D03*
X015645Y012535D03*
X015645Y012540D03*
X015645Y012545D03*
X015645Y012550D03*
X015645Y012555D03*
X015645Y012560D03*
X015645Y012565D03*
X015645Y012570D03*
X015645Y012575D03*
X015645Y012580D03*
X015645Y012585D03*
X015645Y012590D03*
X015645Y012595D03*
X015645Y012600D03*
X015645Y012605D03*
X015645Y012610D03*
X015645Y012615D03*
X015645Y012620D03*
X015645Y012625D03*
X015645Y012630D03*
X015645Y012635D03*
X015645Y012640D03*
X015645Y012645D03*
X015645Y012650D03*
X015645Y012655D03*
X015645Y012660D03*
X015645Y012665D03*
X015645Y012670D03*
X015645Y012675D03*
X015645Y012680D03*
X015645Y012685D03*
X015645Y012690D03*
X015645Y012695D03*
X015645Y012700D03*
X015645Y012705D03*
X015645Y012710D03*
X015645Y012715D03*
X015645Y012720D03*
X015645Y012725D03*
X015645Y012730D03*
X015645Y012735D03*
X015645Y012740D03*
X015645Y012745D03*
X015645Y012750D03*
X015645Y012755D03*
X015645Y012760D03*
X015645Y012765D03*
X015645Y012770D03*
X015645Y012775D03*
X015645Y012780D03*
X015645Y012785D03*
X015645Y012790D03*
X015645Y012795D03*
X015645Y012800D03*
X015645Y012805D03*
X015645Y012810D03*
X015645Y012815D03*
X015645Y012820D03*
X015645Y012825D03*
X015645Y012830D03*
X015645Y012835D03*
X015645Y012840D03*
X015645Y012845D03*
X015645Y012850D03*
X015645Y012855D03*
X015645Y012860D03*
X015645Y012865D03*
X015645Y012870D03*
X015645Y012875D03*
X015645Y012880D03*
X015645Y012885D03*
X015645Y012890D03*
X015645Y012895D03*
X015645Y012900D03*
X015645Y012905D03*
X015645Y012910D03*
X015645Y012915D03*
X015645Y012920D03*
X015645Y012925D03*
X015645Y012930D03*
X015645Y012935D03*
X015645Y012940D03*
X015645Y012945D03*
X015645Y012950D03*
X015645Y012955D03*
X015645Y012960D03*
X015645Y012965D03*
X015645Y012970D03*
X015645Y012975D03*
X015645Y012980D03*
X015645Y012985D03*
X015645Y012990D03*
X015645Y012995D03*
X015645Y013000D03*
X015645Y013005D03*
X015645Y013010D03*
X015645Y013015D03*
X015645Y013020D03*
X015645Y013025D03*
X015645Y013030D03*
X015645Y013035D03*
X015645Y013040D03*
X015645Y013045D03*
X015645Y013050D03*
X015645Y013055D03*
X015645Y013060D03*
X015645Y013065D03*
X015645Y013070D03*
X015645Y013075D03*
X015645Y013080D03*
X014665Y012825D03*
X014410Y012540D03*
X014410Y012410D03*
X014410Y012405D03*
X014690Y012090D03*
X013265Y012080D03*
X012715Y012095D03*
X012280Y012330D03*
X012280Y012335D03*
X012280Y012340D03*
X012280Y012345D03*
X012280Y012350D03*
X012280Y012355D03*
X012280Y012360D03*
X012280Y012365D03*
X012280Y012370D03*
X012280Y012375D03*
X012280Y012380D03*
X012280Y012475D03*
X012280Y012480D03*
X012280Y012485D03*
X012280Y012490D03*
X012280Y012495D03*
X012280Y012500D03*
X012280Y012505D03*
X012280Y012510D03*
X012280Y012515D03*
X012280Y012520D03*
X012280Y012525D03*
X012280Y012530D03*
X012685Y012800D03*
X013280Y012810D03*
X011800Y012230D03*
X009365Y012800D03*
X006490Y010950D03*
D77*
X006945Y010950D03*
X007445Y010540D03*
X007870Y010535D03*
X007860Y010955D03*
X009990Y010950D03*
X010300Y012060D03*
X009695Y012320D03*
X009695Y012325D03*
X009695Y012330D03*
X009695Y012630D03*
X009695Y012635D03*
X009695Y012640D03*
X009365Y012780D03*
X009285Y012440D03*
X010075Y012810D03*
X011805Y012215D03*
X012095Y012815D03*
X012685Y012140D03*
X012995Y012275D03*
X012995Y012280D03*
X013270Y012095D03*
X013685Y012150D03*
X014000Y012305D03*
X014000Y012310D03*
X014000Y012315D03*
X014000Y012640D03*
X014000Y012645D03*
X013685Y012790D03*
X013305Y012770D03*
X012995Y012625D03*
X014385Y012625D03*
X014385Y012620D03*
X014385Y012320D03*
X014970Y012620D03*
X014970Y012625D03*
X014665Y012795D03*
X014480Y010955D03*
X014490Y010535D03*
X014015Y010950D03*
X015120Y010950D03*
X015535Y010775D03*
X012600Y010530D03*
D78*
X012563Y010955D03*
X012183Y010955D03*
X011768Y010540D03*
X011003Y010530D03*
X010988Y010955D03*
X010638Y010950D03*
X009698Y012305D03*
X009698Y012310D03*
X009698Y012315D03*
X009698Y012645D03*
X009698Y012650D03*
X010073Y012805D03*
X009288Y012445D03*
X009423Y012125D03*
X008598Y010685D03*
X012683Y012145D03*
X012998Y012270D03*
X012993Y012630D03*
X012993Y012635D03*
X012688Y012780D03*
X013308Y012765D03*
X013683Y012785D03*
X014003Y012655D03*
X014003Y012650D03*
X014003Y012300D03*
X014003Y012295D03*
X014003Y012290D03*
X013683Y012155D03*
X014383Y012310D03*
X014383Y012315D03*
X014383Y012630D03*
X014688Y012140D03*
X014688Y012135D03*
X015563Y010960D03*
X013598Y010950D03*
X013168Y010950D03*
D79*
X012565Y010950D03*
X012600Y010535D03*
X011350Y010905D03*
X011350Y010910D03*
X012690Y012130D03*
X012995Y012290D03*
X012995Y012295D03*
X012995Y012300D03*
X012995Y012605D03*
X012995Y012610D03*
X013300Y012780D03*
X013690Y012800D03*
X013995Y012620D03*
X013995Y012615D03*
X013995Y012610D03*
X013995Y012605D03*
X013995Y012360D03*
X013995Y012355D03*
X013995Y012350D03*
X013995Y012345D03*
X013995Y012340D03*
X013690Y012140D03*
X014390Y012335D03*
X014390Y012340D03*
X014390Y012605D03*
X014390Y012610D03*
X014665Y012805D03*
X014970Y012610D03*
X014480Y010950D03*
X015540Y010770D03*
X015565Y010955D03*
X010405Y012660D03*
X009690Y012605D03*
X009690Y012600D03*
X009690Y012595D03*
X009690Y012590D03*
X009690Y012380D03*
X009690Y012375D03*
X009690Y012370D03*
X009690Y012365D03*
X009690Y012360D03*
X009690Y012355D03*
X009280Y012430D03*
X009365Y012785D03*
X008215Y010910D03*
X008215Y010905D03*
X007860Y010950D03*
D80*
X007863Y010915D03*
X008543Y010960D03*
X008613Y010585D03*
X009368Y010535D03*
X010033Y010555D03*
X010673Y010725D03*
X012193Y010570D03*
X013633Y010725D03*
X014063Y010550D03*
X014483Y010915D03*
X012728Y012080D03*
X012268Y012225D03*
X012268Y012230D03*
X012268Y012235D03*
X012268Y012635D03*
X012268Y012640D03*
X012268Y012645D03*
X012263Y012660D03*
X012258Y012665D03*
X014423Y012500D03*
X014423Y012495D03*
X014423Y012450D03*
X009428Y012095D03*
X009253Y012385D03*
X009363Y012810D03*
X008723Y012775D03*
X008723Y012770D03*
X008723Y012765D03*
X008723Y012760D03*
X008723Y012375D03*
X008723Y012370D03*
X008723Y012190D03*
X008723Y012185D03*
X008723Y012180D03*
X006503Y010930D03*
D81*
X006495Y010945D03*
X007870Y010560D03*
X008545Y010535D03*
X008600Y010720D03*
X009380Y010735D03*
X009390Y010920D03*
X010040Y010540D03*
X010640Y010565D03*
X011015Y010575D03*
X012185Y010925D03*
X013600Y010565D03*
X015565Y010730D03*
X015570Y010915D03*
X015640Y012085D03*
X015640Y012090D03*
X015640Y012095D03*
X015640Y012100D03*
X014690Y012085D03*
X014415Y012420D03*
X014415Y012425D03*
X014415Y012520D03*
X014415Y012525D03*
X013275Y012815D03*
X012275Y012590D03*
X012275Y012585D03*
X012275Y012580D03*
X012275Y012575D03*
X012275Y012570D03*
X012245Y012680D03*
X012090Y012830D03*
X012275Y012290D03*
X012275Y012285D03*
X012275Y012280D03*
X012275Y012275D03*
X009365Y012805D03*
X009260Y012395D03*
X008715Y012340D03*
X008715Y012335D03*
X008715Y012330D03*
X008715Y012325D03*
X008715Y012320D03*
X008715Y012240D03*
X008715Y012235D03*
X008715Y012230D03*
X008715Y012225D03*
X008715Y012220D03*
D82*
X008733Y012155D03*
X008733Y012150D03*
X008733Y012405D03*
X008733Y012705D03*
X008733Y012710D03*
X009363Y012815D03*
X012258Y012185D03*
X012258Y012180D03*
X013258Y012830D03*
X015623Y013120D03*
X015163Y010945D03*
X015573Y010580D03*
X015558Y010555D03*
X015558Y010550D03*
X014053Y010575D03*
X014058Y010945D03*
X010023Y010575D03*
X009393Y010580D03*
X009388Y010575D03*
X008593Y010570D03*
X008588Y010565D03*
X008583Y010560D03*
X008578Y010555D03*
X008548Y010950D03*
X007403Y010545D03*
X006988Y010945D03*
X006488Y010535D03*
D83*
X006493Y010540D03*
X006983Y010925D03*
X006988Y010935D03*
X006988Y010940D03*
X007413Y010575D03*
X007413Y010570D03*
X007408Y010560D03*
X008553Y010940D03*
X009378Y010565D03*
X010028Y010935D03*
X011728Y010555D03*
X011733Y010565D03*
X011733Y010570D03*
X011738Y010580D03*
X013208Y010930D03*
X013208Y010935D03*
X014053Y010935D03*
X014058Y010940D03*
X015158Y010930D03*
X015158Y010925D03*
X015163Y010935D03*
X015163Y010940D03*
X015563Y010570D03*
X015563Y010565D03*
X012253Y012165D03*
X012253Y012170D03*
X009243Y012365D03*
X008738Y012415D03*
X008738Y012420D03*
X008738Y012695D03*
X008738Y012805D03*
X008738Y012140D03*
D84*
X008730Y012160D03*
X008730Y012395D03*
X008730Y012400D03*
X008730Y012715D03*
X008730Y012720D03*
X008730Y012795D03*
X009430Y012090D03*
X010030Y010945D03*
X010025Y010570D03*
X009375Y010550D03*
X008600Y010575D03*
X008570Y010550D03*
X010665Y010730D03*
X011725Y010545D03*
X013210Y010945D03*
X013625Y010730D03*
X014055Y010570D03*
X014055Y010565D03*
X015555Y010545D03*
X013260Y012070D03*
X012735Y012075D03*
X012260Y012190D03*
X012260Y012195D03*
X012090Y012835D03*
X012680Y012810D03*
X014430Y012475D03*
D85*
X013705Y012085D03*
X012250Y012160D03*
X013205Y010925D03*
X013200Y010920D03*
X013200Y010915D03*
X013200Y010910D03*
X013615Y010745D03*
X013615Y010740D03*
X014050Y010925D03*
X014050Y010930D03*
X015150Y010905D03*
X015155Y010915D03*
X015155Y010920D03*
X015615Y013125D03*
X011735Y010575D03*
X010655Y010740D03*
X010655Y010745D03*
X010025Y010930D03*
X010020Y010925D03*
X009380Y010570D03*
X008555Y010935D03*
X007415Y010580D03*
X007410Y010565D03*
X006975Y010905D03*
X006980Y010915D03*
X006980Y010920D03*
X006985Y010930D03*
X006495Y010545D03*
X008740Y012135D03*
X008740Y012425D03*
X008740Y012810D03*
X009240Y012360D03*
X009430Y012085D03*
D86*
X009245Y012370D03*
X008735Y012410D03*
X008735Y012145D03*
X008735Y012700D03*
X008735Y012800D03*
X010125Y012845D03*
X012255Y012175D03*
X013705Y012090D03*
X013735Y012840D03*
X013210Y010940D03*
X013620Y010735D03*
X011730Y010560D03*
X011725Y010550D03*
X010660Y010735D03*
X010030Y010940D03*
X009380Y010560D03*
X009375Y010555D03*
X008550Y010945D03*
X007405Y010555D03*
X007405Y010550D03*
X015560Y010560D03*
X015570Y010575D03*
D87*
X015153Y010910D03*
X014048Y010920D03*
X014043Y010915D03*
X013613Y010780D03*
X013613Y010775D03*
X013613Y010770D03*
X013613Y010765D03*
X013613Y010760D03*
X013613Y010755D03*
X013613Y010750D03*
X013198Y010905D03*
X012248Y012150D03*
X012248Y012155D03*
X013248Y012835D03*
X010653Y010780D03*
X010653Y010775D03*
X010653Y010770D03*
X010653Y010765D03*
X010653Y010760D03*
X010653Y010755D03*
X010653Y010750D03*
X010018Y010915D03*
X010018Y010920D03*
X008563Y010920D03*
X008558Y010930D03*
X006978Y010910D03*
X006518Y010580D03*
X006498Y010550D03*
X008743Y012130D03*
X008743Y012430D03*
X009363Y012820D03*
D88*
X009235Y012355D03*
X008745Y012435D03*
X008745Y012125D03*
X008745Y012815D03*
X008560Y010925D03*
X010015Y010910D03*
X012245Y012145D03*
X014245Y012825D03*
X014040Y010910D03*
X006515Y010575D03*
X006500Y010560D03*
X006500Y010555D03*
D89*
X006503Y010565D03*
X008748Y012120D03*
X008748Y012440D03*
X008748Y012820D03*
X009233Y012350D03*
X012243Y012140D03*
X013258Y012065D03*
X013748Y012845D03*
X014678Y012075D03*
D90*
X013705Y012080D03*
X012240Y012135D03*
X008750Y012115D03*
X008750Y012445D03*
X006505Y010570D03*
D91*
X012178Y011375D03*
D92*
X012180Y011380D03*
D93*
X012180Y011385D03*
D94*
X012180Y011390D03*
D95*
X012178Y011395D03*
D96*
X012180Y011400D03*
D97*
X012178Y011405D03*
X012178Y013505D03*
D98*
X012180Y011410D03*
D99*
X012178Y011415D03*
D100*
X012178Y011420D03*
X012178Y013490D03*
D101*
X012180Y013485D03*
X012180Y011425D03*
D102*
X012178Y011430D03*
X012178Y013480D03*
D103*
X012178Y013475D03*
X012178Y011435D03*
D104*
X012180Y011440D03*
X012180Y013470D03*
D105*
X012180Y011445D03*
D106*
X012178Y011450D03*
X012178Y013460D03*
D107*
X012178Y013455D03*
X012178Y011455D03*
D108*
X012178Y011460D03*
X012178Y013450D03*
D109*
X012178Y013445D03*
X012178Y011465D03*
D110*
X012178Y011470D03*
X012178Y013440D03*
D111*
X012180Y011475D03*
D112*
X012180Y011480D03*
X012180Y013430D03*
D113*
X012178Y011485D03*
D114*
X012178Y011490D03*
X012178Y013420D03*
D115*
X012178Y013415D03*
X012178Y011495D03*
D116*
X012180Y011500D03*
X012180Y013410D03*
D117*
X012178Y013405D03*
X012178Y011505D03*
D118*
X012178Y011510D03*
X012178Y013400D03*
D119*
X012180Y013395D03*
X012180Y011515D03*
D120*
X012178Y011520D03*
X012178Y013390D03*
D121*
X012178Y013385D03*
X012178Y011525D03*
D122*
X012180Y011530D03*
X012180Y013380D03*
D123*
X012178Y013375D03*
X012178Y011540D03*
X012178Y011535D03*
D124*
X012178Y011545D03*
X012178Y011550D03*
X012178Y013360D03*
X012178Y013365D03*
D125*
X012178Y013355D03*
X012178Y013350D03*
X012178Y011560D03*
X012178Y011555D03*
D126*
X012180Y011565D03*
X012180Y013345D03*
D127*
X012178Y013340D03*
X012178Y011575D03*
X012178Y011570D03*
D128*
X012180Y011580D03*
X012180Y013335D03*
D129*
X012178Y013330D03*
X012178Y013325D03*
X012178Y013320D03*
X012178Y011590D03*
X012178Y011585D03*
D130*
X012180Y011595D03*
X012180Y013315D03*
D131*
X012178Y013310D03*
X012178Y013305D03*
X012178Y013300D03*
X012178Y011610D03*
X012178Y011605D03*
X012178Y011600D03*
D132*
X012180Y011615D03*
X012180Y011620D03*
X012180Y013290D03*
X012180Y013295D03*
D133*
X012178Y013285D03*
X012178Y013280D03*
X012178Y013275D03*
X012178Y013270D03*
X012178Y011640D03*
X012178Y011635D03*
X012178Y011630D03*
X012178Y011625D03*
D134*
X012180Y011645D03*
X012180Y011650D03*
X012180Y011655D03*
X012180Y011660D03*
X012180Y011675D03*
X012180Y011685D03*
X012180Y013250D03*
X012180Y013255D03*
X012180Y013260D03*
X012180Y013265D03*
D135*
X012178Y013245D03*
X012178Y013240D03*
X012178Y013235D03*
X012178Y013230D03*
X012178Y013225D03*
X012178Y013220D03*
X012178Y013215D03*
X012178Y013210D03*
X012178Y013205D03*
X012178Y013200D03*
X012178Y011755D03*
X012178Y011750D03*
X012178Y011745D03*
X012178Y011740D03*
X012178Y011735D03*
X012178Y011730D03*
X012178Y011725D03*
X012178Y011720D03*
X012178Y011715D03*
X012178Y011710D03*
X012178Y011705D03*
X012178Y011700D03*
X012178Y011695D03*
X012178Y011690D03*
X012178Y011680D03*
X012178Y011670D03*
X012178Y011665D03*
D136*
X014340Y013005D03*
X015015Y011760D03*
D137*
X011365Y011760D03*
D138*
X015025Y011765D03*
X015025Y011770D03*
X015025Y011775D03*
X015025Y011780D03*
X015025Y011785D03*
X015025Y011790D03*
X015025Y011795D03*
X015025Y011800D03*
X015025Y011805D03*
X015025Y011810D03*
X015025Y011815D03*
X015025Y011820D03*
D139*
X011355Y011765D03*
D140*
X011348Y011770D03*
D141*
X011345Y011775D03*
D142*
X011343Y011780D03*
X011343Y011785D03*
X011343Y011790D03*
X011343Y011795D03*
X011343Y011800D03*
X011343Y011805D03*
X011343Y011810D03*
X011343Y011815D03*
X011343Y011820D03*
X011343Y011825D03*
X011343Y011830D03*
X011343Y011835D03*
X011343Y011840D03*
X011343Y011845D03*
X011343Y011850D03*
X011343Y011855D03*
X011343Y011860D03*
X011343Y011865D03*
X011343Y011870D03*
X011343Y011875D03*
X011343Y011880D03*
X011343Y011885D03*
X011343Y011890D03*
X011343Y011895D03*
X011343Y011900D03*
X011343Y011905D03*
X011343Y011910D03*
X011343Y011915D03*
X011343Y011920D03*
X011343Y011925D03*
X011343Y011930D03*
X011343Y011935D03*
X011343Y011940D03*
X011343Y011945D03*
X011343Y011950D03*
X011343Y011955D03*
X011343Y011960D03*
X011343Y011965D03*
X011343Y011970D03*
X011343Y011975D03*
X011343Y011980D03*
X011343Y011985D03*
X011343Y011990D03*
X011343Y011995D03*
X011343Y012000D03*
X011343Y012005D03*
X011343Y012010D03*
X011343Y012015D03*
X011343Y012020D03*
X011343Y012025D03*
X011343Y012030D03*
X011343Y012035D03*
X011343Y012040D03*
X011343Y012045D03*
X011343Y012050D03*
X011343Y012055D03*
D143*
X014328Y013010D03*
X015028Y012070D03*
X015028Y012065D03*
X015028Y012060D03*
X015028Y012055D03*
X015028Y012050D03*
X015028Y012045D03*
X015028Y012040D03*
X015028Y012035D03*
X015028Y012030D03*
X015028Y012025D03*
X015028Y012020D03*
X015028Y012015D03*
X015028Y012010D03*
X015028Y012005D03*
X015028Y012000D03*
X015028Y011995D03*
X015028Y011990D03*
X015028Y011985D03*
X015028Y011980D03*
X015028Y011975D03*
X015028Y011970D03*
X015028Y011965D03*
X015028Y011960D03*
X015028Y011955D03*
X015028Y011950D03*
X015028Y011945D03*
X015028Y011940D03*
X015028Y011935D03*
X015028Y011930D03*
X015028Y011925D03*
X015028Y011920D03*
X015028Y011915D03*
X015028Y011910D03*
X015028Y011905D03*
X015028Y011900D03*
X015028Y011895D03*
X015028Y011890D03*
X015028Y011885D03*
X015028Y011880D03*
X015028Y011875D03*
X015028Y011870D03*
X015028Y011865D03*
X015028Y011860D03*
X015028Y011855D03*
X015028Y011850D03*
X015028Y011845D03*
X015028Y011840D03*
X015028Y011835D03*
X015028Y011830D03*
X015028Y011825D03*
D144*
X015118Y012260D03*
X015118Y012265D03*
X013718Y012060D03*
X011383Y012530D03*
X011383Y012535D03*
X011383Y012540D03*
X011383Y012545D03*
X011383Y012550D03*
X011383Y012555D03*
X011383Y012560D03*
X010763Y012795D03*
X008803Y012845D03*
X008803Y012530D03*
D145*
X008770Y012480D03*
X008770Y012835D03*
X009225Y012305D03*
X008770Y012090D03*
X010795Y012390D03*
X012225Y012105D03*
X013255Y012060D03*
X013710Y012070D03*
X015150Y012785D03*
X015150Y012790D03*
D146*
X012423Y012060D03*
D147*
X011115Y012060D03*
D148*
X010808Y012230D03*
X010808Y012235D03*
X010808Y012240D03*
X010808Y012245D03*
X010808Y012250D03*
X010808Y012255D03*
X010808Y012260D03*
X010808Y012265D03*
X010808Y012270D03*
X010808Y012275D03*
X010808Y012280D03*
X010808Y012285D03*
X010808Y012290D03*
X010808Y012295D03*
X010808Y012300D03*
X010808Y012305D03*
X010808Y012310D03*
X010808Y012315D03*
X010808Y012320D03*
X009998Y012060D03*
X009228Y012335D03*
X008758Y012460D03*
X008758Y012105D03*
X012233Y012120D03*
X013708Y012075D03*
D149*
X012618Y012830D03*
X011418Y012785D03*
X011418Y012420D03*
X011408Y012105D03*
X009433Y012060D03*
X008838Y012585D03*
X015083Y012555D03*
X015083Y012550D03*
X015083Y012380D03*
X015083Y012375D03*
D150*
X015100Y012320D03*
X011400Y012225D03*
X011400Y012220D03*
X011400Y012215D03*
X011400Y012210D03*
X011395Y012140D03*
X011395Y012135D03*
X011400Y012435D03*
X011400Y012730D03*
X011400Y012735D03*
X010745Y012810D03*
X010745Y012490D03*
X008820Y012555D03*
X008820Y012060D03*
D151*
X009233Y012245D03*
X009233Y012250D03*
X009228Y012265D03*
X008783Y012840D03*
X010783Y012765D03*
X010783Y012760D03*
X010783Y012725D03*
X010783Y012720D03*
X010783Y012715D03*
X010783Y012710D03*
X010783Y012430D03*
X010783Y012425D03*
X013713Y012065D03*
X015138Y012740D03*
X015138Y012745D03*
D152*
X012428Y012065D03*
D153*
X011120Y012065D03*
D154*
X011388Y012450D03*
X011388Y012455D03*
X011388Y012460D03*
X011388Y012640D03*
X011388Y012645D03*
X011388Y012650D03*
X011388Y012655D03*
X011388Y012660D03*
X011388Y012665D03*
X010758Y012800D03*
X010758Y012475D03*
X009433Y012065D03*
X008808Y012535D03*
X015113Y012280D03*
X015113Y012275D03*
X015113Y012835D03*
D155*
X015115Y012270D03*
X012220Y012080D03*
X011385Y012465D03*
X011385Y012470D03*
X011385Y012475D03*
X011385Y012480D03*
X011385Y012485D03*
X011385Y012490D03*
X011385Y012495D03*
X011385Y012500D03*
X011385Y012505D03*
X011385Y012510D03*
X011385Y012515D03*
X011385Y012520D03*
X011385Y012525D03*
X011385Y012565D03*
X011385Y012570D03*
X011385Y012575D03*
X011385Y012580D03*
X011385Y012585D03*
X011385Y012590D03*
X011385Y012595D03*
X011385Y012600D03*
X011385Y012605D03*
X011385Y012610D03*
X011385Y012615D03*
X011385Y012620D03*
X011385Y012625D03*
X011385Y012630D03*
X011385Y012635D03*
X010760Y012470D03*
X008805Y012065D03*
D156*
X012430Y012070D03*
D157*
X011115Y012070D03*
D158*
X010780Y012435D03*
X010780Y012690D03*
X010780Y012695D03*
X010780Y012700D03*
X010780Y012705D03*
X010780Y012770D03*
X009430Y012070D03*
X009245Y012220D03*
X009240Y012225D03*
X009240Y012230D03*
X009235Y012235D03*
X009235Y012240D03*
X008785Y012500D03*
X015135Y012730D03*
X015135Y012735D03*
X015135Y012210D03*
X015135Y012205D03*
D159*
X015125Y012235D03*
X015125Y012240D03*
X015125Y012700D03*
X015125Y012830D03*
X012220Y012085D03*
X010770Y012455D03*
X010770Y012660D03*
X010770Y012785D03*
X008795Y012070D03*
D160*
X008768Y012475D03*
X009223Y012315D03*
X009223Y012310D03*
X009433Y012075D03*
X010798Y012375D03*
X010798Y012380D03*
X010798Y012385D03*
X013223Y012845D03*
X014253Y012830D03*
X015153Y012810D03*
X015153Y012805D03*
X015153Y012800D03*
X015153Y012795D03*
X015588Y012075D03*
D161*
X015093Y012345D03*
X012228Y012075D03*
X011403Y012115D03*
X011408Y012760D03*
X008828Y012565D03*
D162*
X011370Y012075D03*
D163*
X010778Y012440D03*
X010778Y012680D03*
X010778Y012685D03*
X010778Y012775D03*
X012223Y012090D03*
X015133Y012215D03*
X015133Y012725D03*
X015133Y012825D03*
X008788Y012505D03*
X008788Y012075D03*
D164*
X011413Y012080D03*
X011453Y012405D03*
D165*
X012235Y012125D03*
X009430Y012080D03*
X009230Y012340D03*
X008755Y012455D03*
X008755Y012825D03*
D166*
X008780Y012495D03*
X008780Y012080D03*
X009230Y012255D03*
X009230Y012260D03*
X009225Y012270D03*
X009225Y012275D03*
X009360Y012835D03*
X010785Y012755D03*
X010785Y012750D03*
X010785Y012745D03*
X010785Y012740D03*
X010785Y012735D03*
X010785Y012730D03*
X010785Y012420D03*
X012220Y012095D03*
X015140Y012750D03*
X015140Y012755D03*
X015140Y012820D03*
D167*
X015068Y012505D03*
X015068Y012500D03*
X015068Y012430D03*
X015068Y012425D03*
X011433Y012810D03*
X011423Y012085D03*
X008853Y012620D03*
X008853Y012625D03*
X008853Y012630D03*
X008853Y012635D03*
X008853Y012665D03*
X008853Y012670D03*
X008853Y012675D03*
X008853Y012680D03*
D168*
X008775Y012485D03*
X008775Y012085D03*
X009225Y012280D03*
X009225Y012285D03*
X009225Y012290D03*
X010790Y012405D03*
X010790Y012410D03*
X012225Y012100D03*
X015145Y012770D03*
D169*
X015073Y012520D03*
X015073Y012515D03*
X015073Y012415D03*
X015073Y012410D03*
X011428Y012415D03*
X011418Y012090D03*
X011428Y012805D03*
X010718Y012830D03*
X008848Y012690D03*
X008848Y012605D03*
D170*
X008845Y012600D03*
X011425Y012800D03*
X011415Y012095D03*
X015075Y012400D03*
X015075Y012405D03*
X015075Y012525D03*
X015075Y012530D03*
D171*
X012230Y012110D03*
X010800Y012365D03*
X010800Y012370D03*
X009225Y012320D03*
X008765Y012470D03*
X008765Y012095D03*
D172*
X008840Y012590D03*
X010725Y012825D03*
X011420Y012790D03*
X011410Y012100D03*
X015080Y012385D03*
X015080Y012390D03*
X015080Y012545D03*
D173*
X012230Y012115D03*
X010805Y012210D03*
X010805Y012215D03*
X010805Y012220D03*
X010805Y012225D03*
X010805Y012325D03*
X010805Y012330D03*
X010805Y012335D03*
X010805Y012340D03*
X010805Y012345D03*
X009225Y012330D03*
X008760Y012100D03*
X008760Y012830D03*
D174*
X008835Y012580D03*
X010730Y012505D03*
X011415Y012780D03*
X011405Y012110D03*
X015085Y012370D03*
X015085Y012560D03*
X015085Y012565D03*
D175*
X013238Y012840D03*
X012093Y012840D03*
X012238Y012130D03*
X009363Y012825D03*
X009233Y012345D03*
X008753Y012450D03*
X008753Y012110D03*
D176*
X010740Y012495D03*
X010740Y012815D03*
X011405Y012755D03*
X011405Y012750D03*
X011405Y012430D03*
X011400Y012125D03*
X011400Y012120D03*
X012620Y012825D03*
X015095Y012340D03*
X015095Y012335D03*
D177*
X015098Y012330D03*
X015098Y012325D03*
X011403Y012230D03*
X011398Y012130D03*
X011403Y012740D03*
X011403Y012745D03*
X008823Y012560D03*
D178*
X008818Y012550D03*
X011398Y012720D03*
X011398Y012725D03*
X011398Y012205D03*
X011398Y012200D03*
X011398Y012195D03*
X011398Y012190D03*
X011398Y012185D03*
X011398Y012180D03*
X011393Y012150D03*
X011393Y012145D03*
X015103Y012310D03*
X015103Y012315D03*
D179*
X015105Y012305D03*
X015105Y012300D03*
X011395Y012175D03*
X011395Y012170D03*
X011395Y012165D03*
X011395Y012160D03*
X011395Y012155D03*
X011395Y012440D03*
X011395Y012705D03*
X011395Y012710D03*
X011395Y012715D03*
X010750Y012485D03*
D180*
X010775Y012445D03*
X010775Y012675D03*
X008790Y012510D03*
X015130Y012715D03*
X015130Y012720D03*
X015130Y012225D03*
X015130Y012220D03*
D181*
X015128Y012230D03*
X015128Y012705D03*
X015128Y012710D03*
X010773Y012670D03*
X010773Y012665D03*
X010773Y012780D03*
X010773Y012450D03*
X008793Y012515D03*
D182*
X011548Y012235D03*
D183*
X011550Y012240D03*
X011550Y012245D03*
D184*
X010768Y012460D03*
X008798Y012520D03*
X015123Y012250D03*
X015123Y012245D03*
D185*
X011553Y012250D03*
D186*
X010765Y012465D03*
X010765Y012790D03*
X009360Y012840D03*
X008800Y012525D03*
X012620Y012815D03*
X015120Y012255D03*
D187*
X011555Y012255D03*
X011555Y012260D03*
D188*
X011558Y012265D03*
X011558Y012270D03*
D189*
X011560Y012275D03*
X011560Y012280D03*
X011560Y012285D03*
D190*
X011390Y012445D03*
X011390Y012670D03*
X011390Y012675D03*
X011390Y012680D03*
X011390Y012685D03*
X008810Y012540D03*
X015110Y012290D03*
X015110Y012285D03*
D191*
X011563Y012290D03*
X011563Y012295D03*
X011563Y012300D03*
X011563Y012305D03*
D192*
X011393Y012690D03*
X011393Y012695D03*
X011393Y012700D03*
X010753Y012805D03*
X010753Y012480D03*
X008813Y012545D03*
X012618Y012820D03*
X015108Y012295D03*
D193*
X015148Y012775D03*
X015148Y012780D03*
X015148Y012815D03*
X010793Y012400D03*
X010793Y012395D03*
X009223Y012300D03*
X009223Y012295D03*
D194*
X011565Y012310D03*
X011565Y012315D03*
X011565Y012320D03*
X011565Y012325D03*
X011565Y012330D03*
D195*
X010803Y012350D03*
X010803Y012355D03*
X010803Y012360D03*
X009363Y012830D03*
X009228Y012325D03*
X008763Y012465D03*
D196*
X011568Y012375D03*
X011568Y012370D03*
X011568Y012365D03*
X011568Y012360D03*
X011568Y012355D03*
X011568Y012350D03*
X011568Y012345D03*
X011568Y012340D03*
X011568Y012335D03*
D197*
X011410Y012765D03*
X010735Y012500D03*
X008830Y012570D03*
X015090Y012355D03*
X015090Y012350D03*
D198*
X015088Y012360D03*
X015088Y012365D03*
X011413Y012425D03*
X011413Y012770D03*
X011413Y012775D03*
X010733Y012820D03*
X009358Y012845D03*
X008833Y012575D03*
D199*
X011570Y012395D03*
X011570Y012390D03*
X011570Y012385D03*
X011570Y012380D03*
D200*
X011423Y012795D03*
X010723Y012510D03*
X008843Y012595D03*
X015078Y012540D03*
X015078Y012535D03*
X015078Y012395D03*
D201*
X011488Y012400D03*
D202*
X011438Y012410D03*
X010708Y012520D03*
X010708Y012835D03*
X015063Y012485D03*
X015063Y012445D03*
D203*
X015143Y012760D03*
X015143Y012765D03*
X010788Y012415D03*
X008778Y012490D03*
D204*
X008850Y012610D03*
X008850Y012615D03*
X008850Y012685D03*
X010715Y012515D03*
X015070Y012510D03*
X015070Y012420D03*
D205*
X015065Y012435D03*
X015065Y012440D03*
X015065Y012490D03*
X015065Y012495D03*
X012620Y012835D03*
X011435Y012815D03*
X008855Y012660D03*
X008855Y012655D03*
X008855Y012650D03*
X008855Y012645D03*
X008855Y012640D03*
D206*
X011440Y012820D03*
X015060Y012480D03*
X015060Y012475D03*
X015060Y012455D03*
X015060Y012450D03*
D207*
X015058Y012460D03*
X015058Y012465D03*
X015058Y012470D03*
D208*
X010698Y012525D03*
D209*
X010685Y012530D03*
D210*
X010638Y012535D03*
X010638Y012540D03*
X010638Y012545D03*
X010638Y012550D03*
X010638Y012555D03*
X010638Y012560D03*
X010638Y012565D03*
X010638Y012570D03*
X010638Y012575D03*
X010638Y012580D03*
X010638Y012585D03*
X010638Y012590D03*
X010638Y012595D03*
X010638Y012600D03*
X010638Y012605D03*
X010638Y012610D03*
X010638Y012615D03*
X010638Y012620D03*
X010638Y012625D03*
X010638Y012630D03*
X010638Y012635D03*
X010638Y012640D03*
D211*
X010640Y012645D03*
X010640Y012650D03*
X010640Y012655D03*
D212*
X011445Y012825D03*
D213*
X011450Y012830D03*
X010695Y012840D03*
D214*
X014428Y012835D03*
D215*
X012618Y012840D03*
X011458Y012835D03*
D216*
X014688Y012840D03*
D217*
X011468Y012840D03*
X010678Y012845D03*
D218*
X014675Y012845D03*
D219*
X012418Y012845D03*
D220*
X011483Y012845D03*
D221*
X014460Y012850D03*
X014460Y012855D03*
X014460Y012860D03*
X014460Y012865D03*
X014460Y012870D03*
X014460Y012875D03*
X014460Y012880D03*
X014460Y012885D03*
X014460Y012890D03*
X014460Y012895D03*
X014460Y012900D03*
X014460Y012905D03*
X014460Y012910D03*
X014460Y012915D03*
X014460Y012920D03*
X014460Y012925D03*
X014460Y012930D03*
X014460Y012935D03*
X014460Y012940D03*
X014460Y012945D03*
X014460Y012950D03*
X014460Y012955D03*
X014460Y012960D03*
X014460Y012965D03*
X014460Y012970D03*
X014460Y012975D03*
X014460Y012980D03*
X014460Y012985D03*
X014460Y012990D03*
X014460Y012995D03*
X014460Y013000D03*
D222*
X012285Y013000D03*
X012285Y013005D03*
X012285Y013010D03*
X012285Y013015D03*
X012285Y013020D03*
X012285Y013025D03*
X012285Y013030D03*
X012285Y013035D03*
X012285Y013040D03*
X012285Y013045D03*
X012285Y013050D03*
X012285Y013055D03*
X012285Y013100D03*
X012285Y012995D03*
X012285Y012990D03*
X012285Y012985D03*
X012285Y012980D03*
X012285Y012975D03*
X012285Y012970D03*
X012285Y012965D03*
X012285Y012960D03*
X012285Y012955D03*
X012285Y012950D03*
X012285Y012945D03*
X012285Y012940D03*
X012285Y012935D03*
X012285Y012930D03*
X012285Y012925D03*
X012285Y012920D03*
X012285Y012915D03*
X012285Y012910D03*
X012285Y012905D03*
X012285Y012900D03*
X012285Y012895D03*
X012285Y012890D03*
X012285Y012885D03*
X012285Y012880D03*
X012285Y012875D03*
X012285Y012870D03*
X012285Y012865D03*
X012285Y012860D03*
X012285Y012855D03*
X012285Y012850D03*
D223*
X010478Y012850D03*
X010478Y012855D03*
X010478Y012860D03*
X010478Y012865D03*
X010478Y012870D03*
X010478Y012875D03*
X010478Y012880D03*
X010478Y012885D03*
X010478Y012890D03*
X010478Y012895D03*
X010478Y012900D03*
X010478Y012905D03*
X010478Y012910D03*
X010478Y012915D03*
X010478Y012920D03*
X010478Y012925D03*
X010478Y012930D03*
X010478Y012935D03*
X010478Y012940D03*
X010478Y012945D03*
X010478Y012950D03*
X010478Y012955D03*
X010478Y012960D03*
X010478Y012965D03*
X010478Y012970D03*
X010478Y012975D03*
X010478Y012980D03*
X010478Y012985D03*
X010478Y012990D03*
X010478Y012995D03*
X010478Y013000D03*
X010478Y013005D03*
X010478Y013010D03*
X010478Y013015D03*
X010478Y013020D03*
X010478Y013025D03*
X010478Y013030D03*
X010478Y013035D03*
X010478Y013040D03*
X010478Y013045D03*
X010478Y013050D03*
X010478Y013055D03*
X010478Y013060D03*
X010478Y013065D03*
X010478Y013070D03*
X010478Y013075D03*
X010478Y013080D03*
X010483Y013095D03*
X010483Y013100D03*
X010483Y013105D03*
X010483Y013110D03*
D224*
X009190Y013110D03*
X009190Y013115D03*
X009190Y013120D03*
X009190Y013125D03*
X009190Y013130D03*
X009190Y013135D03*
X009190Y013140D03*
X009190Y013105D03*
X009190Y013100D03*
X009190Y013095D03*
X009190Y013090D03*
X009190Y013085D03*
X009190Y013080D03*
X009190Y013075D03*
X009190Y013070D03*
X009190Y013065D03*
X009190Y013060D03*
X009190Y013055D03*
X009190Y013050D03*
X009190Y013045D03*
X009190Y013040D03*
X009190Y013035D03*
X009190Y013030D03*
X009190Y013025D03*
X009190Y013020D03*
X009190Y013015D03*
X009190Y013010D03*
X009190Y013005D03*
X009190Y013000D03*
X009190Y012995D03*
X009190Y012990D03*
X009190Y012985D03*
X009190Y012980D03*
X009190Y012975D03*
X009190Y012970D03*
X009190Y012965D03*
X009190Y012960D03*
X009190Y012955D03*
X009190Y012950D03*
X009190Y012945D03*
X009190Y012940D03*
X009190Y012935D03*
X009190Y012930D03*
X009190Y012925D03*
X009190Y012920D03*
X009190Y012915D03*
X009190Y012910D03*
X009190Y012905D03*
X009190Y012900D03*
X009190Y012895D03*
X009190Y012890D03*
X009190Y012885D03*
X009190Y012880D03*
X009190Y012875D03*
X009190Y012870D03*
X009190Y012865D03*
X009190Y012860D03*
X009190Y012855D03*
X009190Y012850D03*
D225*
X014325Y013015D03*
D226*
X014323Y013020D03*
D227*
X014320Y013025D03*
D228*
X014318Y013030D03*
X014318Y013035D03*
D229*
X014315Y013040D03*
X014315Y013045D03*
X014315Y013050D03*
D230*
X014313Y013055D03*
X014313Y013060D03*
X014313Y013065D03*
X014313Y013070D03*
X014313Y013075D03*
D231*
X014653Y013190D03*
X012288Y013095D03*
X012288Y013090D03*
X012288Y013085D03*
X012288Y013080D03*
X012288Y013075D03*
X012288Y013070D03*
X012288Y013065D03*
X012288Y013060D03*
D232*
X014313Y013080D03*
X014313Y013085D03*
X014313Y013090D03*
X014313Y013095D03*
X014313Y013100D03*
X014313Y013105D03*
X014313Y013110D03*
X014313Y013115D03*
X014313Y013120D03*
X014313Y013125D03*
D233*
X010480Y013090D03*
X010480Y013085D03*
D234*
X012283Y013105D03*
D235*
X012280Y013110D03*
D236*
X012278Y013115D03*
D237*
X010485Y013115D03*
X010485Y013120D03*
X010485Y013125D03*
D238*
X012273Y013120D03*
X014638Y013195D03*
D239*
X012265Y013125D03*
D240*
X014680Y013130D03*
X014680Y013135D03*
X014680Y013140D03*
X014680Y013145D03*
X014680Y013150D03*
D241*
X012245Y013130D03*
D242*
X010490Y013130D03*
D243*
X011693Y013135D03*
X011693Y013140D03*
X011693Y013145D03*
X011693Y013150D03*
D244*
X009193Y013150D03*
X009193Y013155D03*
X009193Y013160D03*
X009193Y013165D03*
X009193Y013170D03*
X009193Y013145D03*
D245*
X014678Y013155D03*
X014678Y013160D03*
D246*
X011690Y013155D03*
D247*
X011690Y013160D03*
X011690Y013165D03*
D248*
X014675Y013165D03*
D249*
X014673Y013170D03*
D250*
X011688Y013170D03*
D251*
X014670Y013175D03*
D252*
X011683Y013175D03*
D253*
X009195Y013175D03*
X009195Y013180D03*
X009195Y013185D03*
X009195Y013190D03*
D254*
X014668Y013180D03*
D255*
X011680Y013180D03*
D256*
X014663Y013185D03*
D257*
X011675Y013185D03*
D258*
X011668Y013190D03*
D259*
X011655Y013195D03*
D260*
X009198Y013195D03*
D261*
X012180Y013370D03*
D262*
X012180Y013425D03*
D263*
X012178Y013435D03*
D264*
X012178Y013465D03*
D265*
X012180Y013495D03*
D266*
X012178Y013500D03*
D267*
X012178Y013510D03*
D268*
X012178Y013515D03*
D269*
X012178Y013520D03*
D270*
X012178Y013525D03*
D271*
X012180Y013530D03*
D272*
X012180Y013535D03*
M02*
